<mxfile host="www.draw.io" modified="2019-11-12T09:40:36.878Z" agent="Mozilla/5.0 (Windows NT 10.0; Win64; x64) AppleWebKit/537.36 (KHTML, like Gecko) Chrome/78.0.3904.97 Safari/537.36" etag="P4XxnMZtW5mIpFo4Pr6j" version="12.2.3" type="github" pages="1">
  <diagram id="LqB2hqHCdG0w4z2Z9kTY" name="Page-1">
    <mxGraphModel dx="2560" dy="2405" grid="1" gridSize="10" guides="1" tooltips="1" connect="1" arrows="1" fold="1" page="1" pageScale="1" pageWidth="850" pageHeight="1100" math="0" shadow="0">
      <root>
        <mxCell id="0"/>
        <mxCell id="1" parent="0"/>
        <mxCell id="oFQstUxSCO1s48QNKXJ--64" style="edgeStyle=orthogonalEdgeStyle;rounded=0;comic=0;jumpStyle=arc;orthogonalLoop=1;jettySize=auto;html=1;entryX=0;entryY=0.5;entryDx=0;entryDy=0;shadow=0;fontFamily=Verdana;fontSize=23;fontColor=#FF9A03;" edge="1" parent="1" source="oFQstUxSCO1s48QNKXJ--1" target="oFQstUxSCO1s48QNKXJ--61">
          <mxGeometry relative="1" as="geometry"/>
        </mxCell>
        <mxCell id="oFQstUxSCO1s48QNKXJ--1" value="" style="rounded=1;arcSize=10;dashed=1;strokeColor=#ff0000;fillColor=none;gradientColor=none;dashPattern=8 4;strokeWidth=2;" vertex="1" parent="1">
          <mxGeometry x="20" y="20" width="260" height="810" as="geometry"/>
        </mxCell>
        <mxCell id="oFQstUxSCO1s48QNKXJ--14" style="edgeStyle=orthogonalEdgeStyle;rounded=0;comic=0;orthogonalLoop=1;jettySize=auto;html=1;shadow=0;jumpStyle=arc;" edge="1" parent="1" source="oFQstUxSCO1s48QNKXJ--2" target="oFQstUxSCO1s48QNKXJ--6">
          <mxGeometry relative="1" as="geometry"/>
        </mxCell>
        <mxCell id="oFQstUxSCO1s48QNKXJ--2" value="Amazon EC2" style="outlineConnect=0;fontColor=#232F3E;gradientColor=none;strokeColor=#ffffff;fillColor=#232F3E;dashed=0;verticalLabelPosition=middle;verticalAlign=bottom;align=center;html=1;whiteSpace=wrap;fontSize=10;fontStyle=1;spacing=3;shape=mxgraph.aws4.productIcon;prIcon=mxgraph.aws4.ec2;" vertex="1" parent="1">
          <mxGeometry x="100" y="70" width="80" height="100" as="geometry"/>
        </mxCell>
        <mxCell id="oFQstUxSCO1s48QNKXJ--23" style="edgeStyle=orthogonalEdgeStyle;rounded=0;comic=0;jumpStyle=arc;orthogonalLoop=1;jettySize=auto;html=1;shadow=0;entryX=0.5;entryY=1;entryDx=0;entryDy=0;" edge="1" parent="1" source="oFQstUxSCO1s48QNKXJ--3" target="oFQstUxSCO1s48QNKXJ--20">
          <mxGeometry relative="1" as="geometry">
            <mxPoint x="760" y="560" as="targetPoint"/>
          </mxGeometry>
        </mxCell>
        <mxCell id="oFQstUxSCO1s48QNKXJ--29" value="&lt;b style=&quot;font-size: 18px;&quot;&gt;Custom Python LogShipper&lt;/b&gt;" style="text;html=1;resizable=0;points=[];align=center;verticalAlign=middle;labelBackgroundColor=#ffffff;fontSize=18;fontFamily=Verdana;" vertex="1" connectable="0" parent="oFQstUxSCO1s48QNKXJ--23">
          <mxGeometry x="-0.4079" relative="1" as="geometry">
            <mxPoint x="56.5" as="offset"/>
          </mxGeometry>
        </mxCell>
        <mxCell id="oFQstUxSCO1s48QNKXJ--3" value="AWS Lambda" style="outlineConnect=0;fontColor=#232F3E;gradientColor=none;strokeColor=#ffffff;fillColor=#232F3E;dashed=0;verticalLabelPosition=middle;verticalAlign=bottom;align=center;html=1;whiteSpace=wrap;fontSize=10;fontStyle=1;spacing=3;shape=mxgraph.aws4.productIcon;prIcon=mxgraph.aws4.lambda;" vertex="1" parent="1">
          <mxGeometry x="100" y="630" width="80" height="100" as="geometry"/>
        </mxCell>
        <mxCell id="oFQstUxSCO1s48QNKXJ--18" style="edgeStyle=orthogonalEdgeStyle;rounded=0;comic=0;jumpStyle=arc;orthogonalLoop=1;jettySize=auto;html=1;shadow=0;" edge="1" parent="1" source="oFQstUxSCO1s48QNKXJ--4" target="oFQstUxSCO1s48QNKXJ--16">
          <mxGeometry relative="1" as="geometry"/>
        </mxCell>
        <mxCell id="oFQstUxSCO1s48QNKXJ--4" value="Application Load Balancer" style="outlineConnect=0;fontColor=#232F3E;gradientColor=none;strokeColor=#ffffff;fillColor=#232F3E;dashed=0;verticalLabelPosition=middle;verticalAlign=bottom;align=center;html=1;whiteSpace=wrap;fontSize=10;fontStyle=1;spacing=3;shape=mxgraph.aws4.productIcon;prIcon=mxgraph.aws4.application_load_balancer;" vertex="1" parent="1">
          <mxGeometry x="100" y="335" width="80" height="110" as="geometry"/>
        </mxCell>
        <mxCell id="oFQstUxSCO1s48QNKXJ--15" style="edgeStyle=orthogonalEdgeStyle;rounded=0;comic=0;jumpStyle=arc;orthogonalLoop=1;jettySize=auto;html=1;entryX=0;entryY=0.5;entryDx=0;entryDy=0;shadow=0;" edge="1" parent="1" source="oFQstUxSCO1s48QNKXJ--5" target="oFQstUxSCO1s48QNKXJ--6">
          <mxGeometry relative="1" as="geometry"/>
        </mxCell>
        <mxCell id="oFQstUxSCO1s48QNKXJ--5" value="Amazon ECS" style="outlineConnect=0;fontColor=#232F3E;gradientColor=none;strokeColor=#ffffff;fillColor=#232F3E;dashed=0;verticalLabelPosition=middle;verticalAlign=bottom;align=center;html=1;whiteSpace=wrap;fontSize=10;fontStyle=1;spacing=3;shape=mxgraph.aws4.productIcon;prIcon=mxgraph.aws4.ecs;" vertex="1" parent="1">
          <mxGeometry x="100" y="200" width="80" height="100" as="geometry"/>
        </mxCell>
        <mxCell id="oFQstUxSCO1s48QNKXJ--22" style="edgeStyle=orthogonalEdgeStyle;rounded=0;comic=0;jumpStyle=arc;orthogonalLoop=1;jettySize=auto;html=1;shadow=0;" edge="1" parent="1" source="oFQstUxSCO1s48QNKXJ--6" target="oFQstUxSCO1s48QNKXJ--20">
          <mxGeometry relative="1" as="geometry"/>
        </mxCell>
        <mxCell id="oFQstUxSCO1s48QNKXJ--44" value="Application logs" style="text;html=1;resizable=0;points=[];align=center;verticalAlign=middle;labelBackgroundColor=#ffffff;fontSize=23;fontFamily=Verdana;" vertex="1" connectable="0" parent="oFQstUxSCO1s48QNKXJ--22">
          <mxGeometry x="-0.54" y="-2" relative="1" as="geometry">
            <mxPoint x="29" y="-2.5" as="offset"/>
          </mxGeometry>
        </mxCell>
        <mxCell id="oFQstUxSCO1s48QNKXJ--6" value="Filebeat" style="shape=image;verticalLabelPosition=bottom;labelBackgroundColor=#ffffff;verticalAlign=top;aspect=fixed;imageAspect=0;image=data:image/png,iVBORw0KGgoAAAANSUhEUgAAAOEAAADhCAMAAAAJbSJIAAAAYFBMVEX///9AvrACe5kzvK30+/u+5uE6va5CwbEAeZiH0sh2zsMfk6EZjp8AcJGEucmHusrR7emY2dGdztPe8vBYxbgguKkqoaY7t64OhJwdkqEAdJcAg5e2491UxLes39mP1c2vPaidAAAB0klEQVR4nO3d7U7VUBCG0ZbWAyjoQSj4AXL/d6kCf0lqMntmwPXcwcrbnf1nJ50mSZIkSZIkSZIkSZIkSdK773h1HtDXasarXd9syyGgi8/Vklc6bnNIp58uexLX5RAlPOtJvFpigH+FJy2JQb5nYUfiGjXhs7AhMVrYjxgubEeMF3YjDhA2I44Q9iIOEbYijhF2Ig4SNiKOEvYhDhO2IY4TdiEOFDYhjhT2IA4VtiCOFXYgDhY2II4Wnlx+ee/C8hXHC6tXTBAWr5ghrCWmCEuJOcJKYpKwkJglrCOmCcsujTxhFTFRWETMFNYQU4UlxFxhBTFZWEDMFuYT04XpxHxhNjFQeLtTmEyME853e4W5xEDh7s80lxgonOdvHYmhwvn7j7Od5RFjhad3txc7+5n1WDNW+Me4u49vVLi7AyEhISEhISEhISEhISEhISEhISEhISEhISEhISEhISEhISEhISEhISEhISEhISEhISEhISEhISEhISEhISEhISEhISEhISEhISEh4dsWTmXC8yzhTZFwuc8S3heNuK1Zwukh6H/A/wj8lQac1oeCFbe0U/jU47bkts1ph/Cl9fghtetknyRJkiRJkiRJkiRJkv7TfgN9UWAmg/iaUAAAAABJRU5ErkJggg==;fontStyle=1;fontSize=24;" vertex="1" parent="1">
          <mxGeometry x="340" y="140" width="75" height="75" as="geometry"/>
        </mxCell>
        <mxCell id="oFQstUxSCO1s48QNKXJ--21" style="edgeStyle=orthogonalEdgeStyle;rounded=0;comic=0;jumpStyle=arc;orthogonalLoop=1;jettySize=auto;html=1;shadow=0;" edge="1" parent="1" source="oFQstUxSCO1s48QNKXJ--16" target="oFQstUxSCO1s48QNKXJ--20">
          <mxGeometry relative="1" as="geometry"/>
        </mxCell>
        <mxCell id="oFQstUxSCO1s48QNKXJ--16" value="Metricbeat" style="shape=image;verticalLabelPosition=bottom;labelBackgroundColor=#ffffff;verticalAlign=top;aspect=fixed;imageAspect=0;image=data:image/png,iVBORw0KGgoAAAANSUhEUgAAAOEAAADhCAMAAAAJbSJIAAAApVBMVEX///9AvrAJpd4Ce5kyu6wJpt8Ad5hCwbEDgaNXt+Q9va8An9wAepkwqqkAod0AoNzm9vR2zcOi3NXU7uuJ08qw4dv0+/7p9vvd8Pnx+vlSw7YjuKnL6+dnyb64496V18+m2PBkvue74fOKzOyo2fHD6ON0xOkSh505ta3P6veS0O0KgJtdx7vM6fa64PMqrOBctNkimKMtpacHmswajp8ek6EFiK8OCJFlAAAFq0lEQVR4nO2cfXPaSAyHsTH1xU4MDi8NGHDShlzakuv1rr3v/9EOQ4xXaxlM0Sph5vf81el0ap5oV1rJSzodAAAAAAAAAAAAAAAAAAAAAAAAAAAAAAAAAAAAAAAAAAAAAAAAAACXyGQwH+ejxSzYEXnrdJQvh9O3/lwyDMfpLMgKryjyXtn8Mdr8TRYt8tXgrT/gWczzWVaoeU1sPLMgHV+m5XSZRsWCPM7mn83y4Vt/3lNZLrJWdpVkMLogycGoXfBsS+/2MnLPfJ2drldGcvT+t+Rq9hvhMyXT971Yz/TbOmaLdo4v93eOberMz/fbOaYt1upDHMd/uXcymaa/u/8Yx9GRh33pJb7vf1cRK7kV8ysIguWhh32OfV/ZcDALBP22jovG0vHxqr8VjB/1BHPRAO6ImsL4Kdn6+cmDmt90LR3AHUHKPe1pt0J9vzfRElyKZFBW0asVjrvvrxH04y9agnnmyM8rkuqYPuxrGUC//1nJb+JohZaQujG52guq5dGB52qFlgSL/cNekr2fn3zUERw624IVkfdaNp6qAKoViqXDLWgoRsUhrkoxioVCR7CojIPOY9836OkIjpUEC8e/Y1Mw1ukq9ATDm+71v71KsP9VRVBriW4Ef3y47nYNxSsVwZWWYPj854duQZVmVE5rQzXBf4oAFpRBjD9pCA4U6uDWz/u5C2BlmDxpCHacn2ReBZ+/7QX/6GkWioWS4I9yhVaCOoUid3vYLv3KFLMVLCvhvYagThoNb6oA7iOYqBSKqUoEvV9VAPcR9H2VQqGxCc0UYwjGLxqCtwohrIqguUT9RKWtH7jfhGFkpBgjgolOW792vkbDm+vrLhNBv69SKMbO16hZBEmS0SkUU9drlKYYM4I6haKTOl6jNMWYEVQqFI47ijD6SQJoCirNf2dOQ1i08k2CSvPfpdM0Y6UYukSV5r8ueyZyzraSjDX/TYPg1o2gy0phpxgaQfI6O918jGzlxPDA7a1z/TwrxVgRNOe/259z5LkQdLcL7SJoRZC09YPdpwjmDgyd7cJaiqERpG39azqP1vKCK0chtM7Z9QiS+e+o/BSZ/MUiR0du0spzgmT+O98fOSL2Dfg5DN2EMPxVC6AlaM5/zfFCIH3Lb+QihEyKsQVJoTDHC+I10UUI60XQTjJ0/kvGC9IFw0Ge4VKMHUFyWrPO/YFsrpEfP1mtPC9ICoVVrqJjd99OQn6CyBRBRpAtFHtFSUPpIymbYuw9SNv6+vtK0XONcDFkU0wtgqStZ1aR5DKVHc8w52xWkMx/uZ9xIGcoeuiutfINgmT+y74MEsymkgMoPsUwS/RAoSgN5Yq+nJ/ncUWQEzTnv1O+NZVrMARHbGFbQXKtq2kNiZ1N5WrFJok2CNI6wbT1rKFUvZDbhuG3hj3Ys2NoFIrml0FiG1Eukz63KhPW/Ld5ShstGj/zSQzkDG/Yk0xNkMx/a6c1g0zGUK6vCDlDZomaheLgrYFM5otgcm99OcN6BMn89/CZP5CZmwommrohE0HS1h8+EQulGrn3MXVDRpAUiiPrR2geJZdoaoaMIJn/HjtryJxqBFOpbcgJHmrrGUUJw7kzQ06QzH/To4/OJM5tgv09NeQE/cNtfQ2RBkrwihAxZAXN+W+b7SFyMs3lmkPTkBUk93/b5PDDX8RsieC02zDkI2jOf1vd8RQpiIKj0sqQFSSntXmrpjTK36khL2gWimm7m+Qi8zYHq7RB8N54asujosgqbbdcTjHkBcn8t+0VSJnmYiHcW/CC9IsiLQ0DoaGwzK9KKCgMGwSt+78tvv0eRZnYi+Bx+RuezmVj+B8vaF/rmqZH/zMvdXEh40xe4h7r58c6dyvdM0kSzq+v9H07De4eruo8PKr97gAAAAAAAAAAAAAAAAAAAAAAAAAAAAAAAAAAAAAAAAAAAAAAAAAug/8BzvRyFzOHJ78AAAAASUVORK5CYII=;fontStyle=1;fontSize=23;" vertex="1" parent="1">
          <mxGeometry x="340" y="410" width="80" height="80" as="geometry"/>
        </mxCell>
        <mxCell id="oFQstUxSCO1s48QNKXJ--19" style="edgeStyle=orthogonalEdgeStyle;rounded=0;comic=0;jumpStyle=arc;orthogonalLoop=1;jettySize=auto;html=1;entryX=0;entryY=0.5;entryDx=0;entryDy=0;shadow=0;" edge="1" parent="1" source="oFQstUxSCO1s48QNKXJ--17" target="oFQstUxSCO1s48QNKXJ--16">
          <mxGeometry relative="1" as="geometry"/>
        </mxCell>
        <mxCell id="oFQstUxSCO1s48QNKXJ--17" value="Amazon CloudWatch" style="outlineConnect=0;fontColor=#232F3E;gradientColor=none;strokeColor=#ffffff;fillColor=#232F3E;dashed=0;verticalLabelPosition=middle;verticalAlign=bottom;align=center;html=1;whiteSpace=wrap;fontSize=10;fontStyle=1;spacing=3;shape=mxgraph.aws4.productIcon;prIcon=mxgraph.aws4.cloudwatch;" vertex="1" parent="1">
          <mxGeometry x="100" y="480" width="80" height="110" as="geometry"/>
        </mxCell>
        <mxCell id="oFQstUxSCO1s48QNKXJ--25" style="edgeStyle=orthogonalEdgeStyle;rounded=0;comic=0;jumpStyle=arc;orthogonalLoop=1;jettySize=auto;html=1;shadow=0;" edge="1" parent="1" source="oFQstUxSCO1s48QNKXJ--20" target="oFQstUxSCO1s48QNKXJ--24">
          <mxGeometry relative="1" as="geometry"/>
        </mxCell>
        <mxCell id="oFQstUxSCO1s48QNKXJ--20" value="" style="shape=image;verticalLabelPosition=bottom;labelBackgroundColor=#ffffff;verticalAlign=top;aspect=fixed;imageAspect=0;image=data:image/png,iVBORw0KGgoAAAANSUhEUgAAAhcAAAM2CAMAAABygFFdAAAAAXNSR0IArs4c6QAAAARnQU1BAACxjwv8YQUAAAAJcEhZcwAADsMAAA7DAcdvqGQAAAASdEVYdFNvZnR3YXJlAEdyZWVuc2hvdF5VCAUAAADbUExURSMfIC8sLTAtLjellT06Oz47PD68rkC+sEtISUxJSk+jmVCkmVlWV1pXWGK9sWdkZWhlZnVyc3VzdIKAgYOBgoW6s4+NjpCOj5GPkJPZ0pfb1J6cnZ+dnqnh26yqq62rrLq4ubq5usbFxsfGx8jHyNDv69XU1dzy7+Pi4+TWi+v49+35+PHx8fK9GvLBKPPFNvTJRfXNUvXNU/bRYPbRYfb8+/fVb/fWcPfdi/jaffjafvjejPnejfnimvnim/rmqPrmqfvqt/vruPzuxfzvxv3z0/734v/78P///03UOmQAABfJSURBVHja7d1rg+JKQgZgaGkXlJahaWWUkWHMGKNmLx6Pu3p2PO4ed13+/y+SnivQlaSScAs879eZhiJ5UrdUJb2fHyu/+u5jPnz48NMf/vB/a+lUej8/VX753Q8bIY44F+F89/2Hn/7owHMR1vHDj+oOLgq6IL/5Uc3BRTC/+J4NLgpsfPeBDS7CNn7z05+cDi5C+f5H8xxchGc5ftCicBGm8UGtwUV4APujvgYX4b7G79DgIjxC0Z5wEZ4t/50zxIVOKBd1ehr/6zRxEWxOfnKiuAg2JzoaXJDBRZ1x6wczGlwEZfzohHGhNeGixq0To1YuwqNWMrgIxo0TLgqGJs4cF8EOqMaEi/BtE40JFxoTLjQmXLTND6bGuVBlcFGjynASuQjOjNuJxEUwBiZchKsMcxlcBOcyfu9UcqH7yYW2hAttCRfaEi5O15aYFuci2JaY4+JCJ4OL+NhjwkV4VbCzyoXeJxfxizL0PrkwLOEiHoZlXFwE8z/OLRdgcGEigwsTGVyAwQUYXIDBBRhcgMEFGFyY4JKbcAEGF2Bw4bY7F2BwAQYXJ4s1n1wE851zzYX5LS6MVrloF2uBuTAo4cKghIt2+d4J5yKU/3bGuQhFF4OLUH6pi8GFeU8uovNbJ50L01tcRE9v6WJwYRaDi+h4liMXWhIuDFa5MB/OxRFaEi8r4UJLwoWWhAtjEi7MbnHhPgkX51yK4exz4Y47F9ExicGFSQwudD250PXk4vCxl5kLs55cGKtyYazKxeHzawa4MFblwuQWF3oYXOhhcKHC4EKFwYUKgwsVBhcqDC5UGFxcfdxW5cJtVS5i8wsSuAjFwi0uQvkVCly43c5FbP6dBS7MbXFhqMpFm9hjxIWeJxduknDhJgkX5jy5MOfJxRnjpXhchPJfPHBhCoMLDQkXGhIuNCRcuKnKxdni7RNcmNriQkPChYaEi4PHMk8ugkGCi1Cs2uLClCcXRqpcGKlycfBYzcdFKJaFc+GeKhc6GFy0yu+p4MIMBheR+TcquHCLhAu3SLhoE2swuAjFGgwuzGxxoePJhY4nF26pcmHGkwsznlxcVLx1gotgPJmPCwMSLsyEc9EmniHPhTskXBiocmGgyoU7Z1ycJH/kQkxgcGECgwsTGFwcOL/mQkxgcMEFF1xwYWKLCy644IILE+FcmAjnggsuuOCCCy644EJsXeYinN9yIVxwwQUXXHDBBRcnyH9yIVxwwQUXXHDBBRdccMEFF1xwwQUXXHDBBRdccMEFF8IFAlxwwQUXXHDBBRdccMEFF1xwwQUXXHDBBRdccMEFF8IFF1xwwQUXXHDBBRdccMEFF1xwwQUXXHDBBRdccMEFF8IFF1xwwQUXXHDBBRdccMEFF1xwwQUXXHDBBRdccMEFF8IFF1xwwQUXXHDBBRdccMEFF1xwwQUXXHDBBRdccMEFF8IFF1xwwQUXXHDBBRdccMEFF1xwwQUXXHDBBRdccMEFF8IFF1xwwQUXXHDBBRdccMEFF1xwwQUXXHDBBRdccMEFF8IFF1xwwQUXXHDBBRdccMEFF1xwwQUXXHDBBRdccMEFF8IFF1xwwQUXXHDBBRdccMEFF1xwwQUXXHDBBRdccMEFF8IFF1xwwQUXXHDBBRdccMEFF1xwwQUXV5F//qfG+Zd/7X7+oyfB/MWfNc6f/6z7+XsCuOCCCy644IILLrjgggsuuOCCCy646KSLAQNcBFyMGeCCCy644IILLrjg4gQu5gxwwQUXXHDRwsWSAS4CLhIGuOCCCy64aOFizQAXXHDBBRdtXFiAwUXIhRskXIRcTCDgIuDCRDgXIRcLCLgIuDCxxQUXXMS6MIHBBRdcRLswgcEFF1zEujCBwQUXXMS6WFHARcBFSgEXARcGqlwEXQwx4CLgwp12LkIuDEi4CLkwIOEi5MKAhIuQCwMSLoIuDEi4CLkwIOEi5MKAhIuQCwMSLkIuDEi4CLkwIOEi6MKSLS5CLmYgcBFwoePJRchFBgIXARcegsFF0IUZTy5CLsx4chFyYfMyFyEXZra4CLpwq52LkIspClwEXHitABchF2a2uAi5MLPFRdCFDgYXIRdunXERcpGzwEXAhRkMLoIurM3hIuTCLRIuQi7cIuEi6MLiXy5CLrxYgIuQC7uLuAi5WPdx4CLgwlQ4FyEXpsK5CLnQkHARdKEh4SLkwqItLkIu3FPlIuTCtjMugi40JFyEXGhIuAi5cO+Mi6AL9864CLmwjYSLkAsNCRdBF0YkXIRcGJFwEXLhHgkXQRdutnMRcmEDMxdBF/YXcRFyYfkvFyEXNqpyEXRhLpyLkAtTGFyEXFidw0XQhSkMLkIuTGFwEXSh58lFyEVugxEXobh5xkUo5jy5CGbMBReBLLngwlCVi1gXcy64CCTjggtDVS5iXWRccLF2V5WLSBcJF1yY2+Ii1kXCBRcqDC5iXay44MJkOBexLpZccKHC4CLWxZILLlQYXMS6WHLBRShDLrgw6clFpItbnfTkQoXBRQMXN7oOg4uqZFxwYaUnF7Eusj4XXNhLwkWki1t87AEXEVlywYXJLS5iXaRccGGsykWsi5vrenIRlwUXXFiIwUWsi4QLLnQ9uYjNbXU9uYjOggsubn3Wk4v43NINdy7WWhIu2rm4oZaEizrJuODippducVEvQy64uOGVGFystSRctHdxIy0JF3WT9rng4lZXh3NRPxMuuAjdcR9wwcVtrt3ioknmXHBxkzfQuGiUq1+KwUWzrLjgIpQZF1zc3nw4F01z3V0MLhon4YKLW1sGzEWLTLngInSjZMgFFzfV9+SiVRIuuLilvicXLTPlgovb6XtyAQYXx3BxnQvEuTgADC64uJGdA1wcIgsuuLiJ0SoXh8mECy5uYLTKBRhcHNHFlcHg4mC5qvktLsDg4rgurgkGF4dMwgUXVz0jzgUYXBzfxbXA4AIMLk7h4jpgcAEGF6dxcQ0wuACDi1O5WCd9Lri4wilxLsDg4oQuOr4egwswuDipi3U+5oKL69o+wAUYXJzcRWd3onFx5Kz6XHBxNRMZXBw9nRyvcnECGFMuuLiOl1JwcZIsueDiGnqfXJwoHZsU5+JkmXHBRdenuLg4YdIhF1x0eiaDi9NmwQUXwbZkwAUXnW1LuDh9ln0uuAgkG3LBRShzLrgIblQccMFFqPs54YKLzk2Lc3G+XPKIlYtz5nJ7GVycNfmMCy46VGVwce5cZpXBxfmTjrngoht3TLi4iFxcY8LFheTCGhMuLiYX1ZhwcTm5pMaEi0tKNuaCi+A015gLLoLdjAEXXAT3EvS54CLUAZ33ueAi1AGdcsFFUMZ56wwuLjZnbU24WJPBRbdcnFEGF+tLlzHggovgTNeQCy6Cs+MTLrgIT2j0ueDi7B0NLjqU1YQLLsKzoAMuuDhfpcFF95ItBlxwERy4Hnt4wkVXszoqDS46nOWECy6CkxrHosFF15Mvj9GgcHENSWYDLrgIJV0MueCioEUZcMFFcM7rQDa4uL5ki0mfCy6C3Y3ldMgFF+FhymIy4IKLYGd0NZ80qDn+kotbSLqajwdccBFuV5bzybjPBRfhyiNZVPrg4naTJhsg89l4HDDChXya9Eg+ZTX/mL/+q8b527/rfv6RCwmFC+FCuBAuhAvhQrgQLoQL4UK4EC6ECxEuhAvhQrgQLoQL4UK4EC6EC+FCuBAuRLgQLoQL4UK4EC6EC+FCuBAuhAvhQrgQ4UK4EC6EC+FCuBAuhAvhQrgQLoQL4UKEC+FCuBAuhAvhQrgQLoQL4UK4EC6ECxEuhAvhQrgQLoQL4UK4EC6EC+FCuBAuRLgQLoQL4UK4EC6EC+FCuBAuhAvhQrgQ4UK4kOO6WD58SeqgXUa+npHZGV38Te9L/sEZuZBL+kvGXAgXwoVwIVwIF8KFcHFTLuZff2fCBRdccMEFF1xwwQUXXHDBBRdccMEFF1xwwQUXXHDBBRdccMEFF1xwwQUXXHDRDRfZ+3evP+Xt+7NtXczev3/7pRBxpWjvYvOd75v94s1fvvlU2ncxn1Dq4rkQl+Yif/v00NvN/avXae2j9Pr11y2YD4+bM1vv79+9frjbK0Vv9PFz8oO7yDYn9Onh4X7nu169ji9x3qC0QRfvN8f+2wfdPzy9vxAX+ZtRL5z7x3ga7x7vA58wenrzfB18vqiePpO5C/79Xa8kD5tzlgWPcUVeYNnURw+j4v//mMT92vLSPu6VtsBFGj70r96e30X2VP4Low5TVn6YXuTFB7y9j/mzeUsXyetXo+q/qP7J9UsbcpE+FX/M/dszu3hdeUJf5ZVV6lOvZvY+IBnF/VlbF+PIv3kq/bnJff3SvnCRvx21PexHdJHGnJC7isZkdddr5SJ/jP2zti5msX/0WHIRNCrtXplHEfXrfXo2F7FndFn2Pa97vVYu8lHvVC7mvdYwGpa2Xpk/X4/5mVwk0UUsgTHrtXNR40Cf0EXgpNYu7aqli94oP4uLNL7+L25Klr2WLh57zY70kV30wr/4VY1PSNq6KMJ5XBf5fvepP57Pk+es5rP9Htp9Ad109xOm8+Tzf8yTxbQf4WLf1XDytRDz+WQ8LjzSB3DRH3/M5hufv2qwNyqJuQo2pV1Elba8zM+l2Bzz/SL0etkZXOw2AP3Z3gWymu78e8GTwrar1fGL1ma1daAmH4/f/FMKcA4XgQORJsv5dNx/cY6/5Nt3TOeBZPsuxuPZfJkkL6Gn835FhZHv1LDjZbC0i1Bpi1wMp8vtkmSrccxRP6aLnc5FfxGqUGaVdJcVH7Fe9MpnI7cvwEFp93ZzxOdZy/nOvKKLn2+flWnpr2lU2r3qaroK1MLZuGHX80Autue9xwVfn/RLD9N6/e1q76dVDc1dVl7fDOsO2I9x32yrkrwr+7nNSruLIqYnvzy1i7RXcco/4R2UVhhJVTdtp0YIVIrZ1oFqyOLA91OHJT9p65gNGpU2skc5izk1R3KxdWGU3fRN+2WndRrTEI5LKsVl2ajuLC62pC5KmpFmpe1FFnVYVmkd1UW+daGWdnoXZUW8i+k4JyWV4rcrY7C+DBdbc+XT4sugYWljXawi6uHjuFhGD5IHxdfIt3p1EvUJk5KTMLsUF6vierR1aWNdrPvFldZxXUyi2/Vl8fWzjLP19TK7L3GxuhQXWXEFOW77TdEupg06GAdxcRf/xcXHKfKMLItbm9EBzumh1/H1C1cD9E7mYtlgxd8hXCQ1elCTwrbu27+U1jlJ8dHoXaCL8QW4yEqWqhzTxaLG9y4L27px5IcUH40xF1X/Mz+li2/t17BGgztt62JefA6WF+giLxw+Lo/tosEFcwgXozo9668N7qjoU/rtXUwuxsWs8PNalzbexfQ8Lnp1xkGF1UKveKAR6WLaZKB+ZBfzCBcNSxvvYl6/ajqAi6xWSzkrGk8MWrcj86aLUM7ionVp4w/7ov4ajAO4SGp1awoPVPv+xfZN3VF66S5W26XNjuoiOYuLRa1h0Kqo0Yl0kcWueHx8d9ku8gYbTTrl4ttP70d8UGEZIzvNq5L/NtlbFvb0Lj+zi+yx+PPalraJi8lZXIzbuJjHoS47cUloi9rb9NQu8o+7Yh/29qElxVM5zUob7yKvP+F5ABfTWt9aOIGxiEM9LuvMFGz1edjsXzy6i/x5o/bjw0P8wt1hu9LW6O6fxcW43rcW/e80aoFqVtpopf2SdfKPMYe7kYv0zauHBgu6016r0t6Ii7j1RxWVU8VGg7tXb/NDuwhvsY5xUVnax9LS3oqLSfnizU+X2F3FHFrSr9xI/PaQLt5Gbi8Nf96qTWlvxcXW1TMqasNHlY1NPq3eq/k6P5CLOptpk0OXtjsu5q1c5P2q/df51gatYfGIZ1K94211CBd5nd1tRZ/XvLS3Ul/sbOC6D/zW5C5yzXs2H1TWz3lrFyW7S/vP240Wz9uNIk5eRGmDl8nNuMh3Wtv7N+lun3+nJa9aK5suJv0m23hruBgVa6h78jalrb/p+GZcvOyfb5539DEvh4ExKzg3m1pLnl0yaulid3vqZJm0nZRcTIcl9dstu1hPYxvr+AWs6XI+HsTv7452ke0Up/rhaHHjm+fShuu5RedcTGp9a+mcbD6MY1H3iZXZaj6Oe1JItIutir+fHmSSoaK0nXNxoPsjNWBM102SzAbVz2eJdZHFsWi+inNVWdruuOi1dhHzxJx+890h6bSq1ol1sYhcbdVmdW9Faa/LxapqtiOpGLXN83WLpNsVUt7cxTiy8mq36nuntF1zkdRyMa8eUpQMIoaLVir2WqqkuYvYxZktdwPkg+IP6JCLWus7k8qWZjeDySJbt09aOiKJdJHGrkVqu0skKR6RXLqLda0Hb4wr76Z/mb9apM8PSppuHhY1f35K1vpQmZRta4h0kcQe6da7hyaFii/exaDODZK7qkZn2eQxYXVSul0z0sU89ie3drGMWJdwoS7qTGxVLym7b703qGp6oFMuku66mMduCdr5mdOK62N5LBfrTrlYd9dFnQeyzKr2pt3X3mJ7JBcLLlq6yGtsRBxVEEqaTnUf3MWci5YuthY2V31vVjW+m9XeAXNYF4u4Pdjz2B0ZrV3kHXYxi1rKHXU874/vIi07SpED0EXlksPD9zunnXORxt7S2nr08bLiFxzPReku3iSuDx09x9vaxaK78xfbMxjl3cVl5f9rec80JqMym3ncCU9jVwi1dlFc2g642Lp19qqsd1H9gLYmzyCtl1V5o9ePO9r9yA5GWxeL4tJ2wMX24qXitzZtL5RNK4/37DgstmwG14hGPlZzEndWspYu0pLSdsDFzgK8x6K3i4wiFlxtHe+n7Bidzq015bPyCZa7LO46LnyqSbbz3somDeP2CvhFF13srHYMvpYx33lzWVo9YHk+Mw8PTx/X/b7/mlIradXLd3fftZhVNDNlj7HJqpaWp6/314vv/+assrSPpaXtgou91dH3T7sHId97c+wspkNXuDS68EXGqy///ib4Guu9QkwrT/h9yaNVtmvIuze7HxF6efLmfyWBKucutrSzdSdd5IPgGv+Pr0Z+2N/DWfZehcgl4cENyLs4R19qm4+vaH/xVuSiR1YPdzc6f/4Nrx4+Ps8iKQL88Pn/PT6UbFjdfeF0QWnfxJa2Ey5KHzGw/xvL7qJksZ9z97IfU+dNdIXjy9JN5otgTyg+m/fUH6y03XCx8xyxZmfkc80zjP2cu2ULF/OIIWjpX+WDXqPUrRkLZwE74iJi037Ucu46e8SfisaYlZlFDTVKNSWNWIyblHa+7rCLdRpzBQ3SGn3wmtdR9JHuLyPnJvYziW5xvixUXk5buygobWdcbCryqiqjX3Hbo84biF+O3mKP9Lh8ZiQfR250q3oIS3/6fBEs++FPGLUsbYdcrPPSPfuDqr0fW7NOw0/vlh2Py7sbD4VDieLjXD3zOIvcAJmWSOxPlqH/NQ7dVGpU2otwsRx/SdWSrBcb6L6gmFXuE9tiMdsTlH5+ke50UDpblBTuUv5aiqhZ1KygU/jiJmsSljGc75yrJPxYsMrSDstKO44+JUd0USt5slne/+3iHY6/vVE7kkVJ+58vx1WzUx/f/T18+XiK2TJ+aj1f7hEcbH7FKnAG0t1NxoPxbBH4sdlyNiw4M4co7cHTW19MtvoWFTXL9lzJfanPTy8737woO2n0vPDN3y0/vTO9okDPX5NUfkta+kn55yqxcWmv1MWr+O1JacytFrkKF0mdO+zTGkuNpdMuJpE7Pvfvbs2cxGt2kdU70YPGz86RTrlY1lvYNOHiNlzM6jxEo+7DWKSzLsZccMEFF3Vd3HHBxbcMm9YXfSdRO2I8crsuspj/fn+CDYtcXJSLmIntNGahplzV/MWk1v/uJU7iNbuY92o0JFubTHU7r9tFUmcn50NP9+JGXOS9+MfDPlp+cTMudhbtlsLIRi3eRCJdc7GzneexsI+RPfZ6qosbcrH71rveqzcvT3n+7mkUu5tQrsRFYHfp/cPD6y95fBi1f5+VdNDFuvZG4GHuBN6AixqPSsDihlzUhGHB7624iNsR/3lfl/nv23ERsSP+s4qlU3dTLjb7Qqt3pU9XTtytudgkW0wHJVu8obhRFx+z2TA832zhH3zbJ77ZT77UqThR/h+zFkRt/nOMlwAAAABJRU5ErkJggg==;" vertex="1" parent="1">
          <mxGeometry x="654.5" y="301" width="194" height="298" as="geometry"/>
        </mxCell>
        <mxCell id="oFQstUxSCO1s48QNKXJ--33" value="" style="edgeStyle=orthogonalEdgeStyle;rounded=0;comic=0;jumpStyle=arc;orthogonalLoop=1;jettySize=auto;html=1;shadow=0;fontFamily=Verdana;fontSize=18;" edge="1" parent="1" source="oFQstUxSCO1s48QNKXJ--24" target="oFQstUxSCO1s48QNKXJ--32">
          <mxGeometry relative="1" as="geometry"/>
        </mxCell>
        <mxCell id="oFQstUxSCO1s48QNKXJ--24" value="" style="shape=image;verticalLabelPosition=bottom;labelBackgroundColor=#ffffff;verticalAlign=top;aspect=fixed;imageAspect=0;image=data:image/png,iVBORw0KGgoAAAANSUhEUgAAAbMAAAB0CAMAAAA4qSwNAAABIFBMVEX///8jHyAAAADwvxojHiA+vrAGpd7XoikBm48gHB37+/s+vbAGAAAgGx3IyMjW1dbvuwDz8/Pm5eXc29soJSaFiIoaFRcVDxGxsLDv27XVnRIAn9yamZru7u5LwrUcGBl9e3zy/P6Fyer55bJoZmc/PT01MjOop6cQCQySkZG6ubkMAAVYVldhX2Crqqp3dXZKR0gyLzDc8u/xxTn66r7mxoXDwsMkEglaV1hPTE2v4duc2tP++u799d388dH33ZXzz2XyyEr56Ln37NjtxVTmsx/aqj7z0Gj12IPeqyTlxIHdr07y4sIAc5/K6fcZXHhPuOQfNUEJlsqe1vASgq3h8vq14fRhvuaFssiQzex2wbp90ccjq57H5uNHr6Zpu7OCVCAWAAAPpElEQVR4nO1cCZvbthEVsaxdyIS0oiRSzpKmnIgiKep0EmVlO46dOEePNGnTNm1tp///X3QGvMBT0lYbrb/g7bdaiSSAwTzMYDCAttWSkJCQkJCQkJCQkJCQkJCQkJCQkJCQkJCQkJCQkJCQkJCQkJCQ+BXw/PMXL158/vzcYkgchOcvvnh5cZng4vV3X0rm7jSef/Qa+brIgMS9+uLzcwsmUYMXL/N8CcS9+vLcwklU4JNX1YTFtF18dG4BJQr46nUDYRFrH39ybiElRHz6wf2v93AGrL2U4cidwVfffHD//iGkXUhTuyN4iIwB/rCXtIvLL84trATi05iyw0j79tziSoiUHeIeLy5fnVtgCZGyw0h7fW6Rf+vIU3YYaS9v0M7S8zz91MK/J7Ch797pqntYoOz+/f2cXVx+d3xDBtHI9nRyJ7C90XLZO329J0WXhBppn6q2r0qUHRKHXFwen38cUIV0TiV2hj7RNHLX7bdLFEU7FWftb0qUHbRMu0Eaa8DU2+FMpcZ7wJl6Ms7+WDaz/d7x8vImC+uTcGYtJotR7sp7wpl6Ms4qPON+73j58Y02Zk7C2ZgYxMpd6RPffw984+k4+1MlZU2Gdnn58Q3T+yeZz8am4uc5s4dBENj/b723jBPOZw8/qMHXlzW4+PbG+cZb4uy9wAk5+/PDOnxUiU/+n93q0/jG95az08UgvyIG7CR2pr6nnJ0u1v8VIX3juaU4Hifyje+pnZ0ubrwV2B0vGAbWthCAFzmz9e7MC4Lh0JqVQ/V2f2YNoZLltq8niamebfdWwFkAbziiG/guX1hHAYbWqKPnbvS6ywDrHHX6ekl/+swCob1uKQJt6/3O0sKCy24uRdYWG+57Qtf6vC5r1k1FT+czG2UIqnp8GHoNsB8XcHCt/YlCQt/3Q+Kvc6tfkTPdmqwHPuEPwpPhOp+I7AUuIfyWRoi5WU/6eHWhDgaKoqrKIIIR8Pb8wUAVVbCdG5EAGgkHbpDKtRoQLamTTecrkbblOuRlNKKs+sL12Xg+NQjRuJwaGQyFQn0DZOCk6IGrkSQF3LbcMFYAiO52+UVuZ63ecq5yGbDHs4M1KkAnTfj+qoB7P//lkFqHxKSKqlAV4BBXUKYYg2yJ6TDQvsI5wCfHoqaIz5ToLt6nDuEdXJiURhcoZfAbRpwRxsysGXtHDBYXVRSmDTO5GG+K18CYIaRsdZc4eIvBLWaSYSaJGxqMxmLCEzRkWUt9jVEHOOtOiO8oWszZ1gyduBWUNO4xcKbQFdFQtOhmvseHYkbUenz2w70Srn78x95KJyicTzTougZ6MAQLEO2sSwwTxm0MAxok2VaFR4AxqIRD84HdaD/gOjQ4HcyIECk3n7uyBybohKWFSWxnC3BOqhFGV0NeZ8pZnxkgKVgFA+OGUUFWqSg70+B2yQH3VMPNioUKY217RbDFRP4ZoUhI2hBJ7UxRTEVxok5jTWKPD8bQb+CM/bXMGWCfqQUwDszQ6oN31UeuBmpap/dEzvrmfGx5s223r+v69hpKMT/x/WA44Eg2MB10u52ZZ612RlRuOJlMXKay9STCwoseV1nG2QI6xYgajDpYeGmtIvfsYQtk7m2hzu3ICyZutjXShpHFyG5mg9DdQDNEbS7cSeCNZh2UsxuETLzXD1V1YDFgjBka8bkrsPERg+y48NjQIpIMfaMKT625YNuAl2LHByU7R2kAreTsqtnS+hDS+pNUlAA+ZtnBhljf8uHBZPJbwXgM82OwnVZZjvWhzczOOtAidfJJZCy/YQoddHPX0nhi7INnSIv0XEOhYXUuTIcuOOkg7IPQClgM04zFSM9kN9f9UkmM9Z35LIthJvAgOX5K82lkUorwm/5RPvtbJWn3GqucmKoxFz5DlMdY8qEp1ncd1Uw8ks9Uc1zXQjnWz/lGEKCqER621ey36jDPEYFlG/xvWLOcGIHnIAmf4BujOdvKPLPDFMetMJ8oBhHQA22Yq/KDzegRgS4l5iomDP589vdqQ/upoUodhkEuxa77ggqbOLN81dlFb22Qi3RrntvDWRumjSpNwNTNnLqmQ8XYiRcCX2Wb6mdRZ5l/B84U4opDYQZjo3Ivvrw+G9a3Ug/0Yw2o4azR0Jaaalznrlwbip9E2025qy04uHh86iCXWbt8qfKNGWcd1FkF30tNYdOaGteOkldzX1PUus0d7EPi0YAzxcy7YZCOKVXlynmQDohtHnskosM5A8uKotLoRVGT6LuOs6YZDVxhYSIKfCVlsZkzlU2jHug4JMszQoxmzjwI5QYVihgBZ7S6wh6MlrzuelNa6xBcpmgJTWhnRn7iWzs1br2cI8bZMKztZg22BTtTC3b2fQ1n/6yvcgqs5Ef5DO0nft/EGQwgGnPWQjsb1zXRzBmEAAVDT6tXteoZH8a7s8tfguAsrInDXVrgLG+PoVpTsmxntsIapoAazPb4xjrO6ie0NoaJ+YEHymKbmIumHPFW4Mx1cIlUMwSb48a5UzmdtXSDgjVZVdGgp5WKTMChDysehR4WOFPynPVQAZVdLHOGoezRx9CyJbWSX5pFH29gZ+DVGMt7pq6mMiVWVUUMYvc7Wy9YLXZTlvpGXEspqknW41m/HIE1xyAQflZrewHxJA3NedApTlTgvc1CEWgjb+htvdsZWePJ3AXJGuwM3TqpHGwVOWLo8tHBftE3Hmpn9ctqHEwDbyTCMhWacpa3M92bMzPElKNpOFTJ7Ky101AAxySh4Y5neeNotrMNrdmp0YmJa07DJz7dBVtBe1Chs5iJMs+uRWttb1cbw9cwH2MYmDpr4AwVUB29VOzFgMkezRlOi0nCrzyt1cYg9+qzxR00kFAT4asQFFRx1hsDIxRTeI7ph5ovctaGe9F6H24SMp/lVdxgZ4PapZV+jXlQ7BhzfBKuUkFwcWvkZNYcYUKdDYjJoCBzDJCTMFXkTK3irHI5XsUZO54zjKmT9VicOY1TmzyYrFuf/VxfI3IG8RmmbylljCdyGXU2sayib7SnMEgdzL1tdquhNbJ8JfWNKJvlggHGaWSDuJm/2ceZUrccbnXHmE40kACY20iSrZkY0AaXNkL0JowXKAGhUfKSuRNMtk0LcaNZ5Eyt46zkG8GPH81Ze49vrM6DNLhGPpjooAglSfaIdraG0e2vR+mEJcaNEXpba+IqmDFH1lJFNPtG4KxpR1SfBYupExlcGAeLmG1SSkKbS34T4zRqDDtp87kYxC/GIMf6xppQtgEbWiJK3cfZ1YcNFaJghl7ei4tvC7E+rg39sVB0W+KMw+5aO8LEZ5vtDMwgXcLXQe8MXXQIcdAGFZqrdknmSL8QwlImBhWF9VmBM0xT1MUgVb7xeM4gpC0uypRsfa1UUvZjU4XobbX6k4aCbwRF0anYhRrOEB0V4vRkvbCHs7XTsLQTYGGOa8LfYtxYl/eDOFAhuUyHy5riRvuIWB/Hw/FJYkym14JW7cU0WlmU7Ws40Sv4xpJuGzhrzSCMTBMjyFnekkTfCMPQmDTKGAM8Ihvwd7A+MxY1T2FGwMhJVfCNxTU1EcLKHE5lZ13im6bp40uK6BO8hj9cXd27in6jl6urH/ftnm0aw1eBM/Bh+XxBE2d8pZpkDKo4y+wMjIZWpdVLwPbM9N2mpogXFrP0e/IguNao9M0V5xtvEuu3esMm/OvDPP790wGb1EbTdJJx1t7Qwnhs4qwlehycfsa5u32STStoktWBWwHdNMto18YNPOXvrOs5K8UgqIBiIixt7yQxyOkBfaR1Wx55OyuuffdyltiZmHSOIPpGnFHrUoU5YJxq1MiSAeysINUezvjebdWYOdGa+hbA46Zl3d38fJafd8qxfu6e4ie6QTXmdztye55AAB0cICk60Xj3agxLQ7PaOc5KNrjHNyI1xUxYeuMEa+rbwM6A4VuXrBY4w7iRid1dAhVVmyiANhCcBZmdkhpzZwsCiL/9/du/XViiJS6W67k6CkGzzTn7Hjj11I4r7Iznt8OKKOTu+kaew2QkyE58tnt22iuBM9S8sYudiN0NNri+TzIYo6HX0e1ohdS2lwNYkmip4myDKsZcj+rmJOc4szFz6U9Hdjtq3O5Hd4YBHlCNBkWvj9mNzN0u8AzHNDurgcVi0fgWQ5x87+nLBRHzohVxY2uEHSGTTtK+3o8ePlXceBuYwDhXfM1d8HNR87U7MElyT8yDTEEZhrIKgvFkx/DoGM++XnvYwyHhpznX88Vi7voaxSez7l4DhYZzPVns3AGf2HKctTxUGtVCdw6tbxiJDytONY0QZ8rr3BBc5GipNerIhEPUOZf5ereeqskRR06BNh8Gw9ViSjTwIphL2ww53VWctXYmz9uw9QIFNEl6vvFkvvE/v6/D20eVePP0SWOF7TkqID2B6FBKM86EPc8uJmIpLiowp+/45iDqKy7DeDZJYY5jRIl06g+E3EKHj3Wsmxl8NzXPWWtMnCi7zFuPPWCb53woXoSroHdKFpkGO5oZl+AyQ7E0NJ3gFoNjwgoIRGGmNsDzj5TwubicB2nhsS2NCs2rjZzdyM6e1HL24Hd1ePS08Ry4ZcQJdIXxlD0hidMxtDBLEnQ3xODnjR1TIztL7+FhXMpnqgWBhaMRHRnGxL45zk10nubz+ikz+XGBPv4bB0F1M5eY6CF53X6k3t4A63QoTTYLNrngUl9g4zwpRB1+WDYNkFZRbyhu4wxWndaIgtzRHl230HCEdoAKoJjcplBVbErwbFj4XxNTcCeV6+99qDO0t7WUcdaaqrSXqw0/RYtn4ofeLLURz/OyU2WtnncNnoOou3F8NrA7XIdcBT19a40XeEweXKQ7HhVj5/5wys/iuhM+y9kW1Cuy2u4Md7zwYLcKvGjWsvujYDXf8OPFym64LcaJ3WDu8EoH7mIcLLOkcKsz3kSNWdE3LGxvopK4YSvfcKKA0crFhvzpfGzF0nMh848tofSx50Ei1HDWRBngzb6vXLQPSUbAY42fGypJkriHV72/zvp7N/kS0i1+celdk5k1OMjDvycjcXJUescHDx5wwvgfeOFvot/ksiTtjPjlmAAkg+TsjHhc9owPHiRGlXuN7YzbWnPIL3HLKAX8B1jZu3ML/VtHgbQDPKOk7OzIkfY2Fy7y+KPIoqTsDuDJ20KY/0D4EWN+/lnOZXcD/82vzKrBuZNLszuDp/sp43h2bkElMjz+5QDKHkm/eLfw7pE4a2XeMJ3OmpPDEmdBylqljT29y/+w6TeMJ29qGHsjA/w7jCfPitb26M07GSzedTx+8vTZszccz54+kXxJSEhISEhISEhISEhISEhISEhISEhISEhISEhISEhISEhISEhISEicGP8DRCa5ymhgZW4AAAAASUVORK5CYII=;" vertex="1" parent="1">
          <mxGeometry x="1020" y="401.5" width="365" height="97" as="geometry"/>
        </mxCell>
        <mxCell id="oFQstUxSCO1s48QNKXJ--40" value="" style="edgeStyle=orthogonalEdgeStyle;rounded=0;comic=0;jumpStyle=arc;orthogonalLoop=1;jettySize=auto;html=1;shadow=0;fontFamily=Verdana;fontSize=18;" edge="1" parent="1" source="oFQstUxSCO1s48QNKXJ--32" target="oFQstUxSCO1s48QNKXJ--39">
          <mxGeometry relative="1" as="geometry"/>
        </mxCell>
        <mxCell id="oFQstUxSCO1s48QNKXJ--32" value="" style="shape=image;verticalLabelPosition=bottom;labelBackgroundColor=#ffffff;verticalAlign=top;aspect=fixed;imageAspect=0;image=data:image/png,iVBORw0KGgoAAAANSUhEUgAAB4AAAANsCAYAAAC6a7UsAACRbUlEQVR42uzBgQAAAADDoPtTH2TVsgAAAAAAAAAAAAAAAAAAAAAAAAAAAAAAAAAAAAAAAAAAAAAAAAAAAAAAAAAAAAAAAAAAAAAAAAAAAAAAAAAAAAAAAAAAAAAAAAAAAAAAAAAAAAAAAAAAAAAAAAAAAAAAAAAAAAAAAAAAAAAAAAAAAAAAAAAAAAAAAAAAAAAAAAAAAAAAAAAAAAAAAAAAAAAAAAAAAAAAAAAAAAAAAAAAAAAAAAAAAAAAAAAAAAAAAAAAAAAAAAAAAAAAAAAAAAAAAAAAAAAAAAAAAAAAAAAAAAAAAAAAAAAAAAAAAAAAAAAAAAAAAAAAAAAAAAAAAAAAAAAAAAAAAAAAAAAAAAAAAAAAAAAAAAAAAAAAAAAAAAAAAAAAAAAAAAAAAAAAAAAAAAAAAAAAAAAAAAAAAAAAAAAAAAAAAAAAAAAAAAAAAAAAAAAAAAAAAAAAAAAAAAAAAAAAAAAAAAAAAAAAAAAAAAAAAAAAAAAAAAAAAAAAAAAAAAAAAAAAAAAAAAAAAAAAAAAAAAAAAAAAAAAAAAAAAAAAAAAAAAAAAAAAAAAAAAAAAAAAAAAAAAAAAAAAAAAAAAAAAAAAAAAAAAAAAAAAAAAAAAAAAAAAAAAAAAAAAAAAAAAAAAAAAAAAAAAAAAAAAAAAAAAAAAAAAAAAAAAAAAAAAAAAAAAAAAAAAAAAAAAAAAAAAAAAAAAAAAAAAAAAAAAAAAAAAAAAAAAAAAAAAAAAAAAAAAAAAAAAAAAAAAAAAAAAAAAAAAAAAAAAAAAAAAAAAAAAAAAAAAAAAAAAAAAAAAAAAAAAAAAAAAAAAAAAAAAAAAAAAAAAAAAAAAAAAAAAAAAAAAAAAAAAAAAAAAAAAAAAAAAAAAAAAAAAAAAAAAAAAAAAAAAAAAAAAAAAAAAAAAAAAAAAAAAAAAAAAAAAAAAAAAAAAAAAAAAAAAAAAAAAAAAAAAAAAAAAAAAAAAAAAAAAAAAAAAAAAAAAAAAAAAAAAAAAAAAAAAAAAAAAAAAAAAAAAAAAAAAAAAAAAAAAAAAAAAAAAAAAAAAAAAAAAAAAAAAAAAAAAAAAAAAAAAAAAAAAAAAAAAAAAAAAAAAAAAAAAAAAAAAAAAAAAAAAAAAAAAAAAAAAAAAAAAAAAAAAAAAAAAAAAAAAAAAAAAAAAAAAAAAAAAAAAAAAAAAAAAAAAAAAAAAAAAAAAAAAAAAAAAAAAAAAAAAAAAAAAAAAAAAAAAAAAAAAAAAAAAAAAAAAAAAAAAAAAAAAAAAAAAAAAAAAAAAAAAAAAAAAAAAAAAAAAAAAgLNnDzi7GFwYRc+H3zZq27YR1bZtx6lt27Zt27Zt622fWTTn3rWSPYoNAAAAAAAAAAAAAAAAAAAAAAAAAAAAAAAAAAAAAAAAAAAAAAAAAAAAAAAAAAAAAAAAAAAAAAAAAAAAAAAAAAAAAAAAAAAAAAAAAAAAAAAAAAAAAAAAAAAAAAAAAAAAAAAAAAAAAAAAAAAAAAAAAAAAAAAAAAAAAAAAAAAAAAAAAAAAvwQAAAAAAAAAAAAAAAAAAAAAAAAAAAAAAAAAAAAAAAAAAAAAAAAAAAAAAAAAAAAAAAAAAAAAAAAAAAAAAAAAAAAAAAAAAAAAAAAAAAAAAAAAAAAAAAAAAAAAAAAAAAAAAAAAAAAAAAAAAAAAAAAAAAAAAAAAAAAAAAAAAAAAAAAAAAAAAAAAAAAAAAAAAAAAAAAAAAAAAAAAAAAAAAAAAAAAAAAAAAAAAAAAAAAAAAAAAAAAAAAAAAAAAAAAAAAAAAAAAAAAAAAAAAAAAAAAAAAAAAAAAAAAAAAAAAAAAAAAAAAAAAAAAAAAAAAAAAAAAAAAAAAAAAAAAAAAAAAAAAAAAAAAAAAAAAAAAAAAAAAAAAAAAAAAAAAAAAAAAAAAAAAAAAAAAAAAAAAAAAAAAAAAAAAAAODdJfb/dfrTGJEk6Y9ppAAAAAAAgLF2AC+ZTkvnSpJad07aLf2tgLEWAAAAAGAAb5m+TD9Jklr3dlo3jVZbAAAAAACAASxJ+jRtk35XbQEAAAAAAAawJOmHdGz6U7UFAAAAAAAYwJKk79NlafxqDQAAAAAAMIAlSbenGdJQtQQAAAAAABjAkqRBejktnIarLQAAAAAAwACWJL2e1jB/ewMAAAAAAANYkvR52jn9udoCAAAAAAAMYEnSt+mw9McCAAAAAAAwgCWpbYN0XZqgAAAAAAAADGBJat3daYY0VAAAAAAAAAawJLVskF5Mi6ThAgAAAAAAMIAlqW3vpI3TrwoAAAAAAMAAlqS2fZF2SH8oAAAAAAAAA1iS2vZ9Ojn9rQAAAAAAAAxgSa0zfy9MkxQAAAAAAIABLEmtuy9NnYYKAAAAAADAAJaktr2ZFk/DBQAAAAAAYABLUtveThuk0QIAAAAAADCAJaltX6Xd0l8KAAAAAADAAJaktn2TTkp/LwAAAAAAAANYklp3ZZq8AAAAAAAADGBJatsgPZRmSEMFAAAAAABgAEtqm/n7UlqyAAAAAAAADGBJat0HabP0mwIAAAAAADCAJaltX6dd0u8LAAAAAADAAJaktn2Xzkr/LgAAAAAAAANYapv0Q7oyTV4AAAAAAAAGsCS1bZAeTTOmoQIAAAAAADCAJaltr6bl0kgBAAAAAAAYwJLUtvfT+unXBQAAAAAAYABLUtu+SfukPxQAAAAAAIABLElt+zadkf5dAAAAAAAABrAktW2QrkpTpKECAAAAAAAwgCWp7fx9Is2RhgsAAAAAAMAAlqS2vZSWLgAAAAAAAANYklr3adoi/b4AAAAAAAAMYElq29dpT/MXAAAAAAAwgCWpdz+ki9P/CwAAAAAAwACWpLYN0vVpigIAAAAAADCAJan1/H0izZaGCgAAAAAAwACWpLa9klZJowUAAAAAAGAAS1LbPkobpd8UAAAAAACAASxJbfsmHZL+UAAAAAAAAAawJLXtu3RG+n8BAAAAAAAYwJLUtkG6MU2RhgoAAAAAAMAAlqS28/eFtID5CwAAAAAAGMCS1LuX04rmLwAAAAAAYABLUu8+S9unPxYAAAAAAIABLElt+yIdYP4CAAAAAAAGsCT17sd0fpqgAAAAAAAADGBJat0taZI0VAAAAAAAAAawJLVskJ5J8xYAAAAAAIABLEmtezOtk0YLAAAAAADAAJaktn2etk6/KwAAAAAAAANYktr2bTo2/bUAAAAAAAAMYElq2/fpnDRhAQAAAAAAGMCS1LZBujNNXgAAAAAAAAawJLXuhbRoGioAAAAAAAADWJLa9npaMY0UAAAAAACAASxJbfsy7ZJ+XwAAAAAAAAawJLWev0ekv1RbAAAAAAAABrAkDdJFacJqDQAAAAAAwACWZP7em6ZJQ9UWAAAAAACAASzJ/H06LVatAQAAAAAAGMCS9F5aM/262gIAAAAAADCAJenLtGP6bbUFAAAAAABgAEvSt+nk9I9qCwAAAAAAwACWpB/ShWnCagsAAAAAAMAAlqQf031pqjRUYyLgZ/bsATj+w4vi6Iv/tm3btm3btm3bRm3btm3bZrK/3lG1qTM7fek5M5+xFl9eAAAAAAAMwJJuIh2UXpnGC2gLAAAAAAADsCSdkN6epgsAAAAAAKAtA7AkXZB+kmYKAAAAAACgNQOwJOPvP9IdCwAAAAAAoC0DsCQN0lrpAdUaAAAAAACAAViS8XeP9Pg0Vm0BAAAAAAAYgCXpgPTyulaAB973fjPpDumOI+5WtbAA55WZWlQAAAAADMCSdGr6QLpZXVtgqHlZWj1tNOK+XsBiPa+8MK054nPKhun5BQAAAMCiGYAl6az0res8/oKh5oPpjLRkxC1XwGI9r7wznT3ic8pcensBAAAAsCgGYEm6OP033aUAAzBgAAYAAABoywAsSYO0YbpXAQZgwAAMAAAA0JoBWJLxd8/02AIMwIABGAAAAIDWA7AkHZzelCYLMAADBuC2AAAAAAzAknRKel+arusOMADjvz+Vbj7ibpYmDcAG4CsCAAAAMABL0rnpF+kWdf0ABmD891+cfjDivpeebQA2AF8GAAAAwAAsSRelf6S71fUHGIDx3/9pWjLiLkpfNQAbgAEAAAAiDMCSNEjrpXvXEMAADAZgA3AnAAAAAAZgScbffdPTaj6AARgMwAbgNgAAAAAMwJJ0WHp5Gqv5AAZgMAAbgFsAAAAAMABL0lnpU+lmBRiAW8MAbAA2AAMAAAAYgCUZf3+WblmAAbgtDMAGYAMwAAAAgAFYkubSUumeBRiAwQDcgAF4fgAAAAAGYEkapM3S/dJYAQZgMAA3YACeHwAAAIABWJLxd/f01AIMwGAAbsQAPAwAAADAACxJR6Y3pMkCDMBgAG7CADwMAAAAwAAsSWekD6epAgzAYABuwgA8DAAAAMAALEnnpd+mWxdgAAYDcEMGYAAAAIAIA7AkXZz+m+5RgAEYDMBtGYABAAAADMCSNJs2Tw8owAAMBuDWDMAAAAAABmBJ2ju9MI0VYAAGA3BbBmAAAAAAA7AkHZFeliYLMACDAbgtAzAAAACAAViSzk1fSVMFGIDBANyWARgAAADAACxJ56Rfp1sXYAAGA3BbBmAAAAAAA7AkDdKy6d4FGIDBANyWARgAAADAACxJc2mr9JA0VoABGAzALRmAAQAAAAzAkjRIu6VnF2AABgNwawZgAAAAAAOwJB2X3pCmCjAAgwG4LQMwAAAAgAFYks5MX0jTBUQYgMEA3JABGAAAAMAALEkXpD+lO9QwwAAMBuAmDMAAAAAABmBJmksrp7vVMMAADAbgRgzAAAAAAAZgScbfbdODaxhgAAYDcCMGYAAAAAADsCTtk16axmsYYAAGA3ATBmAAAAAAA7AkHZNemyZrfoABGAzADRiAAQAAAAzAknRW+laaLmB0DMBgADYAAwAAALDAA7AknZ9+kW5XwGgZgMEAbAAGAAAAYAEHYEkapNXS3QoYPQMwGIANwAAAAAAs0AAsSXNp5/SYWniAARgMwCNkAAYAAAAwAEvSvukFaawWHmAABgPwiBiAAQAAAAzAknRKemeaLqABAzAYgOdnAAYAAAAwAEvSqenr6eYF9GEAxn//oekVI+5l6QF1I2UABgAAADAAS9JF6U/pTgU0ZACOAAzAAAAAAAZgSZpNa6a7FtCWARgwAAMAAAAYgCVpLm2fHl5AawZgwAAMAAAAYACWpP3Sy9JEAW0ZgAEDMAAAAIABWJJOSm/tPf4CBmDAAAwAAABgAJakc9MP0y0LaMsADBiAAQAAAAzAknRh+kO6UwFtGYABAzAAAACAAViSZtPa6Z4FtGUABgzAAAAAAAZgSRqkndKTC2jNAAwYgAEAAAAMwJJ0YHp2Gi+gLQMwYAAGAAAAMABL0hnpg2mygLYMwIABGAAAAMAALEmnp++kmxfQlgEYMAADAAAAGIAlaTb9Nd25gNYMwIABGAAAAMAALMn4u0G6bxoroCUDMGAABgAAADAAG74kDdIO6QkFtGYABgzAAAAAAAZg45ekw9PL02QBbRmAAQMwAAAAgAHYACzptPSBNF5ATwZgwAAMAAAAgAE4STon/TjdpoC2DMCAARgAAAAAA7Cki9M/0p0KaM0ADBiAAQAAADAAS8bf9dO9CzAAG4ABAzAAAABAawZgSTunZ6axAgzABmDAAAwAAADQlgFY0sHpeWmiAAOwARgwAAMAAAC0ZQCWdGb6TJoswABsAAYMwAAAAABtGYAlnZ1+kG7lDAgYgAEDMAAAAEBfBmBJg/S/dOcCMAADBmAAAACAtgzAkmbTpunBaawADMCAARgAAACgJQOwpEHaOT2lAAzAgAEYAAAAoDUDsKRj0qvTZAEYgAEDMAAAAEBbBmBJJ6WPp6kCMAADBmAAAACAtgzAks5PP0y3KwADMGAABgAAAGjLACxpkJZJty0AAzBgAAYAAABoywAsaTZtke5XAAZgwAAMAAAA0JoBWNKe6QVpvAAMwIABGAAAAKAlA7CkQToyvSJNFIABGDAAAwAAALRlAJZ0ZvpymikAAzBgAAYAAABoywAs6bz0/XSbAjAAAwZgAAAAgLYMwJIuTsulOxeAARgwAAMAAAC0ZQCWNJc2Tw8vAAMwYAAGAAAAaMsALGmQdk9PTmMFYAAGDMAAAAAAbRmAJZ2Q3pAmCsAADBiAF9t3OZYuYe8ugKO6Fz2O/5PgGryhXIgSJFAChFsIToS6e3sNue/W3V2ROtSFet+91fdoqXvx4u4anBBCdOX833c625nMPCDIJnt29/ed+Yxcv3vyZ5n95expjrbVaIkYo1Rk/9nSBG3Q9gg1OapzoZTOWBxaoG01GhilIv88xKAl2h6h1ogzSimllAbgIBCR3bgZ9Y1SSmkAVkqRBmDXf5DYCK3xJ3RGJk7DaNyCJzAZH2EavsAvmF2N6fgC0zAVL+IZ3I2rcDb6Ix0d0QZNEGuUqpmf9/poglZoh45IQldkYATOwGW4HjfgYUwOmILPMa2KHzELs4/QT1XOxQd4AU/hZozBGeiHNPwJrdFQo3GEpUG3KdohGd2Rg0txMybgeXyIafgK0zG7Gt9hWsD7mIxxuAlX4DT0QgpORAvUNzWb0s96IzRDG7RHJ6SiGzJxBs7GP3E9bsGTmIzn8N+YVsWXmIHZR2gmvsK0gDcxCY/iWlyGfGQgGQmIR12jlFJKaQAWkSoq8ThaGCKllNIArJTSAOyWoReIQwIG4ELciKfwAWZgIwpRjFKUwwMvHNjj4IUHFSjDARRhG+biE0zCjTgPvdECsRq/VLU/20As6iIBPTAIZ+OvuLHKmPtvfI45WIKdKMR+FKME5QGV8Ab4YIPIgRcelKMUxdiHDZiFDzER1+I0nITGiHH7uVCqyrlshwG4BLfhRXyGpdiF/SgJ4nuOH15UohwlKMZerMbPeBuPYjRGIhX1da7UMbzvtEAn9EUOLsC/cDuexCv4GN9jPtZiL/ahGAdQivKqZyDADxtEvipno6zK2SjEMnyDN3EPRmEYOqGuzoZSSqnoHYBFxIcP0M4opZQGYKVUSNMAHPhQMh5pGIjRmIwfsAwFKIYD6zJ+7McmzMdHuAN5SEfTqPwQUme4AVqiI7qgL07BGDyMV/EN5mIZNmAbilAOG+Z82IuNmIP3cT0GIRmNXXAulM5pPbRHb1yAcZiGpShAiQvfdyqxB6vxK17CP5CFDroTMqpH3iZoh1SchAG4EDfgSfwbv2IRVmIzdqEYXtgwV4EdWImfMRGXoxcS9NXSSimlomMAFhE/vkWaOURKKaUBWAVGm9Yu0NDFr1FjvSYagI/xQ8r6aIGuuAKPYyrWoAI2AvixHh/hPgxBG32FZ8R80F4PjRGPduiNs3AlxuNtfIF52IwK2BQpxzK8j1uRhXjUMao2f4broBVa17LGIT63DdAaf8bVeBUzUAQHNoyVYDZewN+QhqYR9ZgCndkGaIqWSMVwXIpbMRkf4EesRCH8sCmyB7/iGVyAFDTS2VBKKaUBWCQyLcNgxBmllNIArA5+TVviNSzHihCah1MQ69LX6UasqGVLMNqEXRqAAx9cpuJU3IsvsRaF8MFGsAoU4Afcg0FoZVQ43SV4IrpjGC7A7XgJX2IZNh3VnVTioBQbMBX/Qq9aGwj1M52O+VhRy24Kwf/XukjGmXgEP2ATiuHARhg/9mEF3sS5SA7LX7LQ3bzJ6I2R+CcexvuYibXYhr0oO6KfZfFhN5biWZyLjhqClVJKaQAWiRzbcS5ijFJKaQA+eLqeDXE9ymBDyIs30dzFr9VjsLXMg9uM69MAHPjQvS364BZ8gCUoh41yu/E9bkZ3NDEq1GeuPuJxIrrhVFyHSfhfzMaaGhuNxI+N+Bh/Raca/Spb/byfhBLYWjbO1HBVnnHaFVfiPSyK4veecizCcxiEVvr6dVecwVg0Rlt0RBYuxd14C19jMbagAlaCrgy/YSIGI15nI3xTSikNwCJSjNvR0CillAbgQ6frOQKrYUNsIfoYl6YBWANwNV8N3h83YBoKUAo/rABwUIqVeBz9NHjV+uCbhKG4FPdiCmaiAIUogQdWav3uxem4Bim6O0sD8FEMakm4DG9gFQ7ovQeAB1vwHk5HS6Nq+9y1QHechn9hIqZiMXahCGW1/jMrldiC13F6+D1qRimllAZgEanAOBzuLiqllNIArGuZjJ9d8MHLLlyCOOPeNABrAK76oXsbZOM2/IAC+GCPiPixGf9BPloYFayz1AQd0A2n4wZMwXQsx05UwrqOVGApHkSqvsJWA/AhvmmiI07FFCxDKawc1l58jwt012ONPDKgJZKRhcswHh9jHta69pnT4mAvPsLpaGVcn1JKKQ3AIuLBx2hnlFJKA/Dh01c/j4fjgiFoIhoYl6YBWANwYPRtiJNwMz7HPo2+Qfvw8V0MQj19MH9M5+cEXIG78CZmYBs88IXd3VXiwRzcjHa6Izi6B+Aqz0ftj/sw65jumhQH+/E+co/r7506T3XQF1fiaXyKpSiGF34NvmF5Nj7AMDQyrkwppZQGYBFx8BMyjVJKaQA+fPrg5hwUuGD8/RnJxoVpANYAzD8fh444H29hDcphJaj8WIeHkK4R+KjPTz72wAsrEaMEU5GnD+SjbwAODL8n4nS8jc1BeTaq+LEJDyLtmN5vdJ6a4g2UauiNyGfTj0ei+86GUkopDcAisgz9EWeUUkoD8KHTNczEQtgQW4Nc46I0AGsADtztG48BeApzNfrWGh/m46/6KsKjOj9DUQgrEWkXnkJi5N8NrAE48G0T3XE7ZqAMVoLOi99w3jH9goWeKf8mrEQkP6bjEjQxSimlNAC7gojsxeUaf6tJKaUBWNevGd5ywZ1i5bjDLR+6aQDWABy426oVzsYb2BiSZ6WKg114ESmIMaq68zMYe2AlYpXjfzAwMkdgDcCBr8DPwv1YWit3V4qDTbgVrY06mjM1GVYilh+7cK9+IU8ppTQAi0jo7cVtaGiUUkoDsDr8b+xfiWIX3OX3EVqaEKcBWAMwGiAdt+IH7IeVkPNhBs7QsxqrPT8DsBNWIpof6/EXNDNhnwbgwC8etcRAvI5NIXm2r5ThfaQg1qgjOVOTYCOelOND9IFuNlFKKQ3AIhICXjyDeKOUUhqAVfV3iS2HDbEl+LMJfRqANQA/ErAEFXBgxTUcbMY1aGzUoc5PN6yGlaiwDXehqVFhOQAHht9GyMV72AEfrISMD9PQDzGmunSmHoEHNuKJBzMxQCOwUkppAK5dIuLFJ+iAGKOUUhqA1aGvW3t85YIPGPfhUtTRAFwNDcC1oQheWHG1fXgU7Y062PnpilWwEjUO4CnEGxU2A3Bg+G2GfPwH2+HAiiv4MA+Dq70TWGfqZpTCSlRwsAAXoa5RSimlAbjGiYgf36ObUUopDcDq8NesER6F3wUfrE06hq9z1QCsAVikAm+jE2KMqnp+0rAMVqJKOSYhwShXD8CB4bcxzsB/owhWXGsh8g57t6PO1E1ROQDLNlyMekYppZQG4BojIg5WYxjijFJKaQBWh75esTgDm2FDyMFcdDHHlgZgDcAiFXgfaUZVPT/tMAtWok4xnkZzo1w5AKMeBuAZbIUPVlzNj7nINOpQZ2oM9sNK1FmFfP2ChFJKaQCuOSKyDZci1iillAZgVf2zIefBgQ2hDTjtOO/c0wCsAVjEgy+RYtQf56cNZsBKVCrFXWhmlNsG4A/wJArgwIYNcfAtUg/6d1edqfOxG1aijoNFGKazoZRSGoBFJPgO4C40NUoppQFYHf5aNcDz8MKGkBf3oJE5/jQAawAW8WIyWhhleB3i8TOsRK3t+IfuyHLdAFyBStiwJB68gNZGaQCWqnz4Bp2MUkopDcAiEjReTEJzo5RSGoDV4a9TPfwNRS74gOBznGCClwZgDcAi5RiHVsboq/7xOaxEtY3I0R1ZQR2ARfbjTtQ1quqZysE2WIlaXkxBgomslFJKzRh6+03Th95WBvuHqQOvLf/3gP8qOpgPs68s/nHILb4q/3oAs4beYVfnPGTX5T4CYEPuo/6NAZvzHvNvyRv3u4K88XYbtudPiMbhT8SLz5BglFJKA7A6/DWKQTaWwYbYEmSb4KcBWAOwSDFuRz2jP/enwkrU+xGJRgVzABbZihzEmj/SmeqLTbAS1Upwb4T9goRSSqlzu/a/Z3Bqz/KBqT3tH7JSuvl6Jad7DiYzuYtnQGqGU+VfD2AQRnTOtLmde/8ur3MfP//5+y/sml2Iwv/qkbvvppNOK7y11xlFE/te7H2+31/slJNH2U+zr7aMzs53g28q/2HIzWUMyeXzh99TsTLnQYcRORJHYpHpyEKMUUopDcCq+udBfgKvC+6aGI36JvhpANYALOJgM0YiLsr/3P8QesaoVGACmhgVrAFYxMHn6GD+SGeqjwbgANmC4Yg1kZFSSqkhaT3vS+uUVB7qN5nUTklO96TUsp5JnUv6p2SUDkvrVXZul/7OJd0G2TEZOfaaniM9d2aeVfRE30v2vX7yPw58NvBa+8uQ2+yi4fc6y0c84OXOYy93GTtb88bZHe4d/UQcrMRgxBmllNIArA5/fRrhDlTAhpAHL9bCc381AGsAFpmFk6L8z/5J8MJK1CvE+YgxKlgDsEgp7kc9Q0ZnKgVrYSHyNToapZRSGoBrdyBOdDonJvu6Jab6eiR19vdJ7mr7pXTjzuMevpHpfYsu7z64iDuLKyf0vdgyEDv/GfCv8q8G3VAyZ9idlau4k3iHO+4iFtmNMahjlFJKA7Cq/qufR2I9bIjNR09T82kA1gAsUoFX0DyK//x/Gh5YiXoOfkA7o4I5AIusQoYhozPVGitgIXIAN+uroJVSSgOwmznpicmVfGV1OV9v7TktvZ+9uNtA/z975BY92Pu8otdPHuX5dvBNlnHYu3j4vZ61OQ/7uXO4poc/kf24CY1M9SmllAZgXZs0TIffBc9KO7sWv5JVA7AGYJES/A2xUfrn/wRUwkKkAreggVHBHIBFnkYDozPVClUHYJH16G2UUkppAA4bga+Z5i5ip0tiiuXrpm3flK5lPKt4/9iMHO/dmWfbZ7Mur+DO4eKfh9zqZRS2jMLOtrzxwbh7WMSPF9DMVJ9SSmkA1nWph2ddMP568VAInvurAVgDsMhspEXpe8B1KIX9nfiPg40QS4L+1egagEW2YLDRmWqBGbC/Ewf+Y+RE0Pvu87oLWCmlNABHFF4H30lJnT0DUnv48zv3cS7oml1yR68zi/lKafvloOv9s4fdWcHzhn2Mwkcz/Il48QWSTfUppZQGYF2TurgIu2FDyIev0cHUZBqANQBLKYqwGxurWIWFB7EOG7EZe1ECBzbCVOIxNIrC94FrUBpRP9/ATmwMWI8lWFjFLPyEqr7Du3jtGLyN7zEDS7AJxXDC9DxMPo5fyNIALA6KUYit2BiwHAtR1VJsDNiKQpTCRhg/XkKzKD9TzfEZbATwYj+KsBebUfXvVYuwMGA+fjqIaZiC147S6/gIP2MuVmMnPLBhaDNO1jPolVIqKgZg6ZyY5OOZwyVndjnZc3XPfP/9vc8teav/6NJZQ++wK0Y84N+Q+4i/4P8PwyIOpqOXUUqpI0sDsK5Jfyx2ybPRhhj3pwFYA7Ab+VBWZdjdjLn4FK/hMdyAUTgPp2IEMqvojISDyEAmspCHczAG9+Et/Iwt2IeKMB+HC5Abhe8DY0M8cDnwoBwHsB97sBvbsAW/YTo+xTt4DY/iIVyHUfgHzsOpAUOQGdATf0JCwAloXEOvZ0P8CX1xNm7AW1iGIvjC6Dz8+SAfxmsAFj/KUYRdWI0f8TYm4Cb8HWdiJP6MzIAkJKCqjsgMOBkjcS5G4R68hM+wDrtRAh9sGNqOAVF+ppphKmwI+VCJUhRjH/ZgJwqwBrPwI97HO5iEh3AfxuIfuAKn41TkIQuZAeloj4SA1oipgdczFvHogiH4Kx7FFyhAKRxYl3PwPJobpZRSGoCjDV8lzd3C6b7s1B7OKel9S6/qmV8yqd8VzifZV3lmDr2jYk3Ow47GT2j83Yx8xBmllKo+DcC6HvF4Dx4XPH/zGjTQABwMGoCjgA87sAhf43Xcg8swGKnogDaIRyPUCeJrHoMGaIEEdMP5eASfYS28Yfq6vokGUfZecCb218JruxcbsRwz8SM+xbt4Eg/gSvwd+RiCzkhGB7RHG7REPBoGxLn89a2DFkjFJXgTS8PgjDh4APU1AGsARhnW4xe8iwdwOQYgEQlogcZBfr+pj+ZoixQMwXWYglkohBNmd4w+jTpRfKaa4J1a+pndjdVYhF/wJT7Eq5iA2zAWFyEX/ZCCRJyIBLQMaIqGaIAYF7++MWiEtsjCzZiGnfDDuthGDDJKKaU0AAPC84U9jMKVZ3fp71zNKPxM1mVlXw+60Vkw/B4vzxX2b9fzhKPJNoxGHaOUUtWnAVjXoiFuQBlsCHnwphu/Dk8DsAZgF3BwAFuxCB/gLpyHfkhGM5ddj8bIwGV4G6tRDhsm9uA0xEbR+8Fpx/De7KAc+7ADm7AaczEVr2IcbsAlOAXZ6IXOSEAr1InSRy+kYjS+xD6XPwu4q4mmNAA7KMN2zMc7uA456Im2iHXBdYlFewzGVfgC2+CFdbnV6BbFZ6oRnjnG8bwEe1CA9ViGn/AxnsWdGIuzMAL90Q3JaIPGiInSu64H4jEsd/Hfyzx4Qc8CVkopDcByELyuTrfEFCczOd0/NK1XyT975FY8lXWZ82H2lWWLht/r26ExOJKV4m40M0eWUkppANa1GIFVsCE2H32NS9IArAHYBRzsxgy8jGswCAloinqICYPrEoemyMC9mANPmLz+76NlNL0fHGaELMNWLMYv+BRv4Wncjr/hdPRBR7RAMzRGA9RFrFGHujO4LUZjnkuHq1LcGBWDiQZgD5bjPdyCPCSgCeqGwS9VtEI+JmEj/C5/ra9EXQ3A/48fu7ERc/ANPsDzeAQ34GIMRwbaIB5N0Qj1UEfPkT3st7dkYiJ2wLrQCnQxSimlNABXT1L5ACMjKc3DIOxc0DW74sHe55V8mn215Wujf79DWKNwRPDgNcSbI0sppTQA6zp0wvcu+HBsNy5AHQ3AwacBOGx4sA1z8AouRg+0R90IuUZx6IgxmBkG12sHRkbZe8JrAffhKlyIAeiNrkjECWiOBkYF+07GJNyOLS4crn7ECSbS0gBchg34Bg9iGJLROMyvV330wANYCQ+sC32LhCg9U/XwF7yFJ3AX/obTkYUMpKMDWqMJYk3QUoEheBj+14V/vnkxBnWMUkopDcDHRqNwr+T0ssu6Dfbek3mO593+Y0vnD7/Hbsh91CnIG69BNbx48T840Rx5SimlAVhf/fyECz5g9mE84kwUpAFYA3AVPpRgHd7BVRiIJlFyFk7AGCyDx8XX6P0QXBOlIXg4vnbZ3cAVyDPhngZgL/ZjBV7A5chA3Qi+dl3xGLbBceHjBs4ySoX2jMTjBmxx2Rn5Eq2NUkopDcByfLgWfsZgH3cIO3/tPqxkUtbl3s8HXeddPPw+7zaNweFgLrIQY5RSqvo0AOv1j8N52AYbQn78hGQTJWkA1gCMMizG2/g7MtASsVH6DNQ+eBH7YV1oM7L0NZIqBO/TqXgb5bAu4GCyCdc0ABdiFl7FOUhDsyi6fk1wFmbC47JB/jnd5eiSdDfwRVjgohF4K0YYpZRSGoAl+LolpnpGdu7r5RnClc/2u7xs+tDbnJU5D/q25o3T4OoeDtZiuMZfpdRRpAFYr38mFsKG2FrkRPiwogFYA7APRViMF3AeklHHqKrPAfw71sAP6zIPoZ5RqvbPRks84aJfkFiMEzUAhwUf9uI3TEQuTkBclJ+pNDznsr8vLESScUdKv3yUiV/ggw2xSozTV38rpZQGYKlBqZ2SnO5Jqf6TUzK8F3UdWDqx78W+T7KvLl8x4gG/BtiQ24trUc+4P6WU0gDsnjsgXoMXNoTKcRsamshMA7AGYD/W4x2MQjKa6kOsw94NfBpmwrrMbHQwSoXmbLTBM6iADbF9OF0DsKs5WIcpuBQd0QgxxpDOUwzaYCIKYV2gFPkuukZKjyHIxhw4Lnn+fDujlFJKA3Dt0bODeySlebg72H9lj7zSN08e7Zs97E7futyH/TvyJ2iUrT1luBNNjTtSSikNwO5/3ethDIphQ8iLD9DKRFYagDUAl2EDPsHl6I5G5mjSh449MQ2VsC5RhFH6cD7E6U7g51HqgnHxITTQAOwqfuzB1xiD7tVeI52pprgKe2Bd4CnUN0q55+9jvTHPJV9f388opZTSABwaujs4PTHZDkjNKB+TkeN9Nuvyil+H3ubdmPuosy1PY3ANqsSbaGncn1JKaQB2zx0PQ7ASNsTmo6+JjDQAawD2Yhem4RpkotFx3emru7PS8AF8sC7xAZobpUJ3NpLwkQvuyPoB7TUAu4IPu/AKzkW83nuO+hcjH3DJc7bnIcG4K6UR+EzshA2xaxBjlFJKaQAOLemSmOLLTu3hv6BrdjljsOe7wTd51+RwZ7AG22Dy4XOkG6WU0gB85DQAJ+ALFwwq+3AF6prwTwOwBmAHryILbYP6wbtG4C74CQ6sC2xFL6NUaD+M74dVsCG0E/00AIeUH+vwPIah6XGNI/qK9TfggQ2h7cgzSrnrfDTEOJTBhtB/EGeUUkppABZXcXomda68uNsg7wO9zyv7dvBNvtU5D/kL8sZrxD0+c5GBGOOOlFJKA7D7X+/GeMAFX6nqwTMR9NxfDcAagP24xNRIKjB2LaqREfj/2LsH6Lz2bQ3js21Uu9sImuwmqW0F27Zt27Zt27Zt26m7bXxe973HPiec/648vzGeYSad1ZtvrcaXDeSOwAi8t/MQ+avajQHYpYR6R52iRrTYIMJdlalHnf+sSatjAvyegvtYRt2nIsfe4xPyABA0BmA+GVySHVtald2ocvJv+mRw5vEp+yY/rz0ux5jb6L5Qq6qOBgDhYAAO/5N0q6nZAbw38EVVYeFjAA4DAzB/VuSpjdQXKgqgB1ShAb53sZx61Pmxw1eojgzAbVZWvadOUlWqq7UkbqqTWiOA9wHfo/oZwsN9rKV+cLyNL9QMAwCEjwGYyvQfwKNLK1N6THT61FEbJZ6Zun/2E30yeGH9f3lnMC1UO6kC+98BAAMwA/Ag9WoAn6BrUCuqjhY+BuBwMADz50WROlglVOTcHDXK/IFPAa+tvnW8hefabKhiAP5BHagqVJ6hNR91e6Hzo6AXqMEGhHcfPdSdKuv4Cfm9eNQ9ADAA06L3zuA/jMHbVM9MXjZu68Qr0w9JL/hXj4im39VRqrsBQPgYgMP5OndRF6isihxLqkNVkYWPATg8DMDczdLq8QB+L0uobVRHA3xvoqfzp4BnqeEMwG1SgxpkbYG7Gu38ju2UWteAMO9jPfWd431cqLobAGDRHICJKpcvy0wdODSzy5D6X26csGPmrRmHZ/hU8B9KqWtVPwOA8DEAh/M1zlebqe9U5FhG3aMWMzAAMwCj6Y+yX1nNU5FzV6peBvjfxDYq4/iDXWuoDgzArd7nqtzQVj84ebTjXWXV6RYmcB9LqPtV5NRTaikDACz6AzCRfm1kastHJg8dvmbqvkl7pD+tOTbXTj8ZnFV3qVIDgMZhAGYAnqTeU5Fzb6mxBgZgBuDm4Xa6qVMC+BTwR2qgAf43Uer85/yeKt/ihQGYuxqhGhzv6glVYGECrx/YRnn9X/48noYAAAzAFLPKly/JjimtzG1aNfX3i8dumX5p+sHp+e1nCM6p99Q41dHCAQAMwOF/ffup21RaRY79qLZThQYGYAZgNP8TjyNVQwC/r61vYQDvx77C8YciLlDdLF4YgLmrfHWD4119oEosTOA+BqnPnG7jZ7WiAQAYgCmelS1XnJ0ycGh6tyEr/n7bxJ0zH9YcnY35GNygVrewAAADcPhf267qYJXwf+9vrP5zmAHYHwMw95OnznT+4Za0Ol91MMD/JjZS3zrdwoOqj8UPAzB3tbr62emuvmXkQuCfAr7d6TZ+V7sbAIABmGL/eOjc8JKKzMaVUxLnjtks9er0QzJfxO9dwT+oPVVnA4DGYQBmAK5Tn6nIuVdVtYEBuGUxAHND49QcFTn2pOptYQCPgf7A8XHoS1n8MABzV8upF53uKqd2VZ0sTOA+dlU5px/AO90AAAzA1L4eET1t4LD07vpUsN4VnPm45phsDMbghDpSdbPwAAADcPj/EfxsAO/InKtW5T+vGIAZgNFKTzk42/n3udlquAH+99BDXe/4Z/0Yix8GYO6qQB2nMk63dZ7qbmEC9zFKfef0wxF3WbsEAAzAxOOho+rigZlNKqckz9Gngt+acXh2Xt2JuUV0/L1B9bfwAQADcHijyFkqpyLHMuoIVWBgAG4dDMDcUY1aqCKnUmp91dEA//eV7ub0Z//Xam2LJwZgbqtWfaEihx5TS1iYwG0srV5yuo2neb1QOweAAZioqrgsu2L5qNQxI9dNPjV1v/TcuhMXlfE3px5UlRYeAGAADv+9mBurrwIYfx9WyxgYgFsPAzB31F09piLHjlRFBvjfQ73T+0p/UrtYPDEAc1eLq9dV5NAcVWFhArfRRV3rdBtvqKXNAADCAEw0prQyuePguvRNE3ZKf1hzdG5B3Ukhj79vqBGqozUOADAAMwCPVO+qyLn31RQDA3DrYgDmjjqqnZ2feHC36mWA/z1UqU8cbiChjrb4YgDm0/UXqMih79RKFi5wHwerhNPvh0PtzwAADMBE+nWWG1GyQnaLqunJy8dtk35/5lHZL8IbgOepdVUnCwsAMACH/7Xsqa5VaRU59ovahU/EMQC3EQZgbmmE+lJFTn2kSgzwv4W+6hmn9zFeaPHFAMwPGm3i+HfqPSxc4D42c3oP8Jdqsv0rAAAGYKIVli/NrloxJn3KqA2TL047KJT3BH+ndlaFFhYAYAAO/+tYpPZUv6rIsZS6mk/DMQAzAKONf/jlLsdPAX+pVjPA/xY6qdudbuF6VWjxxADMbQ13+kGjtDrXwgVuY5ya43AbP6p6+88AAAzAxBBckptSNiR13Mj1kk9M3Tc13+/R0Gl1qupijQcADMAMwNPVRypy7hUex8UA3MYYgLmlDupA9avjJ7T2sTCAezhHpRzu4B7V0+KJAZi7WkI9qyKH7g34hyvAbSzr9G/QnNrQ/hcAAAZgovLli7MTyqrT+w9bLXn/5D0yDbXHt+UnglPqVrWkhQcAGIDD/xourR5RWRU59rVaV+UZGIDbFgMw9zRezVGRQzl1sepkgP8t7O30wxCPqf4WXwzAfLr+MqdP17+klrRwgaewPKMihzZTHawxAAAMwETVxQPTOwyuTd87affUJzXH5BbWn9ya429OPaDKLTwAwAAc/tevmzopgPE3pY5X+QYG4LbHAMw99VEPq8ipJ9UAA8L4/e8nhxt4TS1r8cUAzG3toX52+r4PtjCBu+iu7lCRQ/uqAmssAAADMJF+TebGlFZmt6yanrh94i7pT2uOzbXS+PuxmqQ6WlgAgAE4/K9dR7Wemq8ix7LqKVVqYABmAIbfe9CPVJFTHzPMBIJbWFl9zwDc4hiAua169YXD9/07NdnCBO6iszpXRQ4dwuPRmw0AGICJhhSXpzeqnJy6YcKO6Y9qjs5+0XKfCG5Q66oOBgCNxwDMAFyt3lQ5FTkPH9N5BBcDsDMGYN4DvJr6TUUO/a7GG/xxC6PVNw430KAGWXwxAHNbxY7vOl2Lv2cj4B/AO0VFDh2migwA0FwMwERl+kTwsJKKzDbVM5K3Ttw5Nbv2hOaOvz+q3VRXA4DwMQCH93Xrqi5WGRU5llB7qkIDA7AwAMP5h2I+VZFT66gOBl/cQYX60uHX/wI1xOKLAZjb6qseUJFDu/GalUBxF/lqX6e7OEt1s5YEAGAAJhpaXJHZvGpa4sYJO2Y+1juCv2j8+JtUp6guBgDhYwAO72tWqLZXP6rIsbS6RfUzMACHgQGY99A9qiKnjlAdDb64g3IG4FbBAMxtdVNnqcihU1RnQ3i4izy1q9NdXKp6WmsAADAAEw1avjSjITh17fjtk59oCP4fHw2dVDeq/gYAYABu2mNOp6pPVOTcK2qkgQE4HAzA3NV5Kq0ih65WnQz+eEztBwzArYIBmKFrRxU5dL3qbm0HYAAGADAAE5XpfSzDSyqyW1ZNT9w9abdMQ+3xuf8yAD+pqnjvLwAwADfx6zVA3R3Ao5+/VxvxODoG4MAwAHNXO7oMM0o9rQoMvriBZdRLDMCtggGY+1pNefz/5ROqtyFMDMA7MwADQOwxABPpHcGZbatnpu6ZtHv605pjs/8w/ObUe2qS6mgAAAbgpj167kiVCOC9v6erIgMDcFgYgLmrseprFTn0vlrKAAbgOGMA5s+Y+Q7f+4/U4gaE+XSqtRmA2wUAYAAm0q/l3JjSyuyeQ1ZKPDl1v/SCupP+PAAvUFuoPAMAMAA37R/Xa6g5KnLuGTXIwAAcJgZgHn/7roocms1j8cEAHHsMwLxj+32H732DGmwIE3exEgNwewMADMBEuQll1ekDhq2eeqr24N8/WvO0fTX+djEAAANw075OFeollVORYw2qVnU0MACHhwGYu+qnblWRQ9+qNQxgAI4rBmDuq696zum+avgO4P/Yu8vwKM+87+NncLf6tuwmZJKgxSIzCaFbp17q7u7urnSpAk1wbwIEgtfp3t2679a9lHqLayCZ63x+x3PMi9xSAzL/a4bv9zg+z3Pf7/Y+r85S8sucV4hiACYiIgZgIDc7J4iefOKqvz82akRs1ri+0tgRERED8J87o5ZSJnHxZhLjoTR1xAAczhiA+Vy1kqHiDWyQsxwRA3A6xwDMdbcLxCfZUjnGhSQiBmAiImIABrK6+O6HDAryH73XF1WUbYpWln8WnT76yuLq8VnFcyc3ckRExAD8++fTVE6VZeIN1ck82ckRA3C4YwDmh/MXSJ3FDUByAzckEANwWscAzGdslNSKT6I1cqkjCkcMwERExAAMdN2zNJ4/7O6g6LFHvSSU1UYrR74ZqxpzcaxqbMffGYKJiBiAGYAHyCfijf1Hoo4YgMMfAzCfrYNlhXgDw6W1I2IATtcYgPmM3S414pOoRm529hExABMREQMwkNtn93i/u64LiqaOSAy//0NF2arotFEzo1VjDiiZP7WFM4iIiAE49GfTUaZLnXhDq+UMaeaIATj8MQDz2cqXJeINVEonR8QAnK4xAPMZu1DWGdwwMczZRsQATEREDMBATu/dgz7XXBQUTRlef/T9tSF4qa6FHqchuLB4zsRmLrQRETEAG7zH8hpZL95QjZRLG0cMwKkRAzCfrV3lA/EGnpddHREDcLrGAMxn7HBZLT7JxkkTZxMRAzARETEAA5FITrD7+acFhRMeToy8f0htUWX5F9EZej/w7Ik7OeeIiBiAGYD3l6/EG3tZejpiAE6RGIAp8e701wyvy89yRAzA6RoDMJ+xmNFrBqqlrUt+RAzARETEAAxEsrODHsccHi8c92Bi2P2TKspqotNGvqR3Ax8XmzW+nSMiso8B2OZMMuV5iYs39L0cLI0dMQCnUAzApGcxQ7yBn6W7I2IATtcYgPmMdZWfxCfZQunokhwRAzARETEAA5lZvvuhBwQF5ffVH3U3dwjeoCH4MQ3BAzUEN3dERGYxABucR2t5OATj7ya5mfGXATgVYwAmPYsHJTB6Z3rUETEAp2sMwHzGsuR98Un2uuzmkhsRAzARETEAA3kDYkH+Q3f4oqkjtnwAFqmLVpYv1vuBb4zNHJfpkh4REQOwwVk0kePlB/GG4vKkdHbEAJyCMQCTnsWVRgPwWjnEETEAp2UMwGT4GXtTOrskRcQATEREDMBAZqbP7dc33u+u64LEcLt1VZTVagh+PTZjzCn6RnC74rmTMxwRpWsMwAzA+fKheGPvScwRA3CKxgBMehbHGA3A6+VMR8QAnK4xAPMZ21HmGz3/PJeciBiAiYiIARjI6d4t3vvy8+JFk4cnRtsGEWgIXqZroR/Vt4HzXYNHRMQAbHAObWSi1Ik3tE4uluaOGIBTNAZg0rMoNbpKv0aucEQMwOkaAzCfse2N3jP/He+YT1LEAExERAzAQCQnx+9+wRlB4cRHvEbaZIjr28Bf6lroK/Vt4N30v2e4lI6IiAE4cQYt5CJZE4L3/k7mL9IMwKkeAzDpWfQ1Gmg2yX2OiAE4XWMA5jPWRoaLT7Ll0tsRNWwMwERExAAMRCIR3+OYw4PCcQ8mxtlkKtsQrRy5KDpjzKBo1ZhmLmUjImIA1n+ODNlPPhdvKJCXpKcjBuAUjwGY9Cy6yhLxSVYn5Y6IAThdYwDmM9ZKHjD6d/WoI2rAGICJiIgBGMjMCroftH88f8Q9iff+Gqko+zY6bdSdGoJzXIpGRMQAnLmrPCNx8YZ+kcOksSMG4BSPAZj0LLLkPfFJFpcZjogBOF1jAOYz1lRuEm+AAZgaLAZgIiJiAAYyM31eSawu/+E7EuOvubqiyvK3otNHDY7NGN3epUxERAzA+s/QVu6WjeIN1ci9vPeXAThdYgAmPYtd5AXxBp52RHbDVLa8yQDMANyg8Vm7RLyBPR1ReD4HjaS5HMYATEREDMBIC7l9evu+t1zpi6aOqD/CWgv0beDvo9NGDteV0JFY9YQMR0QU6hiAE1c/Hy3fiDcUyCLp4ogBOE1iACY9i44yV7yB56SZI2qYf7Zbys4Skb6ylxwkJ8rlMlR+YABmAKa0HIBPcETJH3k7yF+khxTJvnKEnCY3ymMpPwATEREDMJDTs0fQ56oLgqLJwxPDa+gE///bwDNGnxKtGtveERGFOQbgXvKeBOINfSKlkuGIAThNYgCmxA0L08UbeF12cES//89pM2kj28sukiV50kcGyQlyldwtY2SB/Je8IR/IV7Is6WMkAzADMJ/dU8Ti55gnS4Yj2vxfQG4p7WVH+atkS3cplsFyjtwgw2WKPC0vydvymXwrK+xusGIAJiJiAAYaQCQ7Eu911kl1hZMe+f0h1v7bwCv0beDy2MyxXfSN4AxHRGQfA3DiL90JbWS0xMUb2iiXSVNHDMBpFANwIoa10eINvCE7ObLP5s/4RgmNpYm0ks7SR/aQI+R0uVLukpEyS56R/8g3skrWyDqpkU1SJ94eAzADMOk5HCmrGYDJsv/5Z05CE9lOutT7tu4xcqFcKw/IeJkvr8pHslRWy1pZLzVSa/93VQZgIiIGYCAJIl2yfY8jDo4XjLk/MbKmhNpoZfmrejfwEbGZ41q5rRoREQNw4n1H7aS97CCdE7KkZ0JfKU7YW06UU+VeWSHeUK1UyfaOGIDTLAbgRHzGHhRv4H2u1U/rXyxoJztLpnSXfhKTo+U8uU0elenyorwtH8li+V5WyHqDG0AYgBmAUz8G4LO3uQGYgbeVdJLdJCI9JVrv75ZXyZ0yURbIa/KufCLfyE+ySjaJDzEGYCIiBmDAQGaW737IAb6gbEhiWE0xFWWrNAI/HKsam1k8d3IjR0TEAOwTZsoOsqPsLL2kSGJysBwrx8n5cl3CUCmXkTJV5so8eVbeTHhPvktYHuIf8L4qfRwxAKdbDMCUKPHtylrxSfa59HIU6hLflGomraStdJTt5S/SX/aUY+Ti/3Ed5hz5l/xblsgKCcRvGxiAGYBJz+Fwo7+/3MEAnNJjblNpLq2lvXSUHSVbYnKonCRXyxAZJTPkSXlNPpbvt9KYywBMREQMwGD8zYsWBv2H3hoUTR2RmgOwaATeEK0cuUhXQu+rEbiJIyJiAPbyvfxbPpFPZbF8k/CTLE1YJesTasWngWVyPFc/MwCnawzAifiMXSHrGIC33RI/bN9eOkt3icrfZbCcKdfIAzJRnpDX5VP5Wr6XpbK6/jd2wQDMAEx6DiXyPQPw/xEjb2vZUSKyuwyQ/eRouVhulHKZIc/K+/KFfCM/y3JZx8jLAExExAAMNLDc/H51/W67Op4YUlNfZfn30RmjbyquntDZbasREQMwNsgj0sIRA3CaxgCciM/YpUYD8LdS6Boynm0jaVNv3M2TveVUuVoekkpZKC/KW/Kp/Mi/c2wpBmAGYErcGvQtA/A29wqA9vVeAdBXDpFz5HYpl2p5Rl6W9+RLWSrrxYMBmIiIARgIiUjXrkHvK8+PF04alhhQ00RF2RpdCV0dmzW++4CFlY3cthYRMQDjeclzxACcrjEAU6LED2VXGd2ysLfb2jH4bif5Mlgulodklrwu38uyet/W3bQF39gFAzADMDEA84ybS7YMlBPlRhktT8v78ouskDWyIUVuimIAJiIiBmAgkh3xvc46ySfG33QU6NvA7+tK6IuL50xq47aViIgBGItlT2nkiAE4jWMATsRn7Aj5RXySLZd93ObGc2shu0pvOU7ulSflHVkiqyUufisAAzADMDEA8wtGHSQiA+QCGS0vyifyo9SIT3EMwERExAAMRLpkBz0GHxQvHPuAwTBr8G7gGaPLimdPzNEQzBiQ3hExAKNGruKHRlYxADMAG8Rn7HD5OfQDMO9LbC4dJSrnyEh5SZZKHWNvWDEAMwAbxAA8RDLclsSzaywtpbMcILdLtXwsGyTODRIMwOkZEREDMBB023evuvxhdwcGg6zVCLxRV0L/V2zmuP10JXRTl44REQMw6mSO7OyooWMAZgAmBuBVMsj9VjybJvI32V/ulefqfbs3EI+wYgBmACY9hz6yWHySTeYmn83+ZaP20kdOlYnygfwom8SnMwZgIiJiAAYys3xecVHQ/4HbgqKpI2xHWQPRyvIfY1Vjr9I3gXcZ+NycDJdOEREDMP4j+Y4MYwBmADaIz9je8r34JAvkOPc/43m0lL/JkTJK3pJ14lMJGIAZgEnPYTf5SHySVTAA/+mrnXeX62WhfM2tEgzA22BERAzAQG7fPkHfGy/z9uOvoYqylbGqMZXFcyflDnhiOiNwekTEAIzVcro0c2QYAzADsEF8xvrJYvEGTnCJHM+htewht8pbslRqxaMBMAAzABMDMN/23UWOk0nypazjdgkG4G00IiIGYCCnW7d4n6suiBdNHmY/wtqPwEF02qjXYtUTjiyZP7WlS+WIiAEYG6RMWjuyjwGYAdgiruj8igHY7B2LmXKyPCk/8cP3BsQAzABMDMCMvm2lQO6X17lhggGYiIgYgD0Qyc4Oep12fB3jb4JIoCuhf4rNHHtDyYKKDi5VIyIGYLxj/8NYYgBmACYG4G1s+I3I5fKyrGX4bUAMwAzAxADM8Ntc9pRR8jU3TDAAExERAzAg0iXb9zjikKBg1FBG3/9LRdna2IwxE4pnT+ydku8FJiIGYHwlezkyiAGYAZgYgLfJb/xeK+8Jf79vSAzADMDEAMwzaCV7yhj5VuKiMwIDMBERMQADmVm+2wH7BgVlQxh6f1s8On3U+7FZ4w8qmTullUuliIgBGHFZINs7so8BmAGYGIDT74wbyc5ymbwpdeLTFBiAGYCJAdj+7JtLTMpkqQTiwQBMREQMwICI5Ob3i/e/98agaOoIRt7fp/cCj/wiNnPclcVzJrV1qRQRMQBjrZwpTR0ZxADMAEwMwGn9Q/j9ZZas5ofwaY4BmAGYGIDtr3veUS6Xj2SjeCQwABMREQMwIJLbr0+8702XM/7+WRVl66IzRo+LVY/vXDJ/aiOXKhERAzDekwJHyYoBmAGYGIBPlYw0/tZvpgyRnxh+0xwDMAMwMQDbn3cLOVie4hUDYAAmImIABn5VJC/P977k7KBw4iMMups3Am+KThu1oLh6QtSlSkTEAIxNMkbaODKKAZgB2CA+Y7nyuXgD10vzNH3X797yND+EBwMwA7BNDMDb2FlvL5fKEt7zCwZgIiIGYOBXRXJygl6nHcf4u+XiuhL609jMscfq28AtXSpERAzAWCNHOjKKAZgB2CA+Y53kA/EGbpTmaXaeO8jFslgC8WkMDMAMwMQAbH/bRG+Z9dv/TgcGYCIiYgAGsroEPY48NF4w+n4G3K0kWlm+QldC3xmrnrCDS4WIiAEYr0mWIwZggxiADeIz1pEBeKu9d7GzTDAYvWCAAZgBmBiAjc+3mRwgb4sHGICJiBiAgd/Ude896vJH3MNw2xDvBZ4+emxx9fhsR0TEABx2NXKrtHLEAJwaMQATA7D9+NtdHpMa8WkMDMAMwMQAbH+2TeUU+Zgrn8EATETEAAz8tswsnxctDPrfd3PDjaCMwHV6L/DLsaoxpcVzJjVxREQMwGH2nRwgGY4YgJMQAzAZX1n8IQPwFo2/BfKa1JmcI+pkvayWZfKjfCOfy1vyhEyQYXKNnCnnyWcMwAzAxACcgufaWs6Un8SbwCZZJyvlF/lOFstH8k+ZIyPlXrlCjpd7GICJiMhkAAZye+8e9L3+0qBoyoiGHUER15XQ78eqxg4unj2xuSMiCusAjLjMk+0cMQCnaQzAifiM9ZIvGYA3e/ztKouS8g0sRt6l8rX8W56XBTJFRsjNcpEcL/tIf/mL7CTbSTtpI82ksXSW1xiAGYCJATgFv/l7piwR36CwQX6QD+UNeVpmy3i5T66XM2SwFEtX2UV2kE7SVlpJM8mQAxiAiYgo6QMwEMnLC3pfcV68cNKwZI2gqCj7Tt8EvkVXQrdzRERhHYCxXi6xHCeIAZgBOAnxGesjX4k3cJE0SfGze45v/m7WmLtWlsr38qV8JP+WZ6RCHpCb5RwZLAOlv/SUTNlJ2kljtxkxADMAEwNwCp5nczmDb/5u9pi7Wn6SJfKZvCdvyjwZJ/fJ5XKy7CPF0kdypLN0ktabe0MUAzARESV9AAYikYjvedIxvnDiI8kfQRmB1xdXT/hH6VMzOjkiorAOwPhQoo4YgBsiBmBiAD4hhc9tV5klm8RvwwKJS61slJp61zF/Ie/IIqmUUXKXXCtnyWGyp/SSztJKWkgzaSpNpNHm/rCdAZgBmBiA0+gsG8tg+Vr8Ni4utbJJamSDrJef5RN5WR6XifKI3CYXyCkySAolTzpJS2kuzaSJNG6Af3YYgImIyGAABrK6+O6HHxQvKBtiMIAiOm2kH/DE9DUDn5szSv7qiIjCOABjk0yVDo4YgA1iACYG4FCeWUcZKhvFbwNqZaV8J1/Kf+RV+afMkDFyi1wox8ge0ltyJVN2kQ7S2mKUYQBmACYG4DQ4y37yHwm2oZuYlsnX8qm8Iy/KMzJR7pfr5TQZLAXSQyKym+wo7aSFZDiDGICJiMhuAAYys3y3vfeIa/wNkj9+Qu8B9iULKryGXy9xmS/dpbEjIgrbAIy1coo0dsQAbBsDMDEA259XM7lMlqfJNczL5Sf5Wt6Up2SKPCK3yFlyvBwgMektu0l7yXAhjwGYAZgYgNPgHHeShWlwW8RGWV3v+v+P5XmZI+PkTrlaTpUjZF/pL11lZ2nh7GMAJiKi8A/AQG7/vkG/u6+3GH9RUeaL503xAxdVew2+PqFW/ikDpZEjIto2B+C18nM9P4To21UvShdHDMB2MQATA7D9WWVIvnwiQQr+8H2FvCePyyi5Qo6SYsmUXWVH6Sht7L85xQBsHAMwMQDbn2FLuU7Wp+jtEd/Ky1Il98k5coD0lr/KLrK9tJeW0tSZxQBMRERpMAADuX16+743Xu6Lpo6wGEAZf2dP9AOfrT/+ikhcPpbB0tIREYVjAK6Rn+U7+aqez+SDet6ShTIvYZaMkIcShsqVcmE9R8mgevaQwnoKpEoC8cY2yiPS1hEDcDrEAEyJEt+uWSz+dzEAbydVKfQN32XyroyXs6REsqWN+bDLAGwQAzAxAKfgLx0dIt+ITwE1skT+JXfJkdJPdpFmzj4GYCIiSu8BGIjk5ga9LzozXjjpEYMBFLGZY33p0zO9Bt5fE8jXco60cERE9gPwv+Rw2VP61JMtnaRjQgdpK23qaSkt6mkqTerJ+AP/d0fla/Eh8IMc4IgBOE1iAE7EZ2w/+YEB+HfPqYmcnQK3ccTlIxkux8lu0orXGDAAMwATA3DKnd+O8pTEQ367xGpZJLdIsXSS5tLIEQMwERElZwAGIpFI0PPEo+KFEx4yGD8RnTHGlz5VlRh6f9dyuV46OiIi2wG4whmWGI2vl7XijQXytOzkiAE41WMApkSJX/L52ehqyKNT6Jx6yNshv955oZwuOXzbigGYAZgYgFP67JrJ+bIhxLdMfCrlsofsyODLAExERFYDMJDVxfc46tCgYNRQg/ET0Wkj/YAnpifG3T9snTwquzoiso8B2KxsDa4yU4KQXG12tbRwWxIxADMAEwPwctknRc6osTwstSEdfqfLYGnliAE4EQMwMQCn/Ofn7ZC+1/czGSI9pYkjBmAiIjIcgIHMLN91YEmQP+wug/ET0cpyXzJ/qh+4aLbXmLs5I/AE6SwZbtuMiBiAG8me8oP4EPhYShwxAKd4DMCJ+IwdK0sZgH/327+fiA+RTfKKnC3b880rBmC7GICJAbgBbkC6W9aLD5FVMkGKpLUjBmAiIrIfgMH4m1eYH+939/WBwfiJijJfMm/K5oy/9dVKtfSVRo6I7GMAtroG7baQXAVdJ7NlO0cMwCkcA3AiPmMXy1oG4F89n1Zyl9SF6Fu/v8gQyWT4ZQBugBiAiQHY9tx6ymch+9bvq3ISN00wABMRUYgGYCCnR/d4n+suiRdNGW4wgCJWPcGXPludGHK3yCZ5XnqafROYiBiA7c8gIovEh8BaOVEaO2IATtEYgBPxGbtU1olPsh+kJEVGrA/Fh8Qncp60c8QAbB4DMDEAN8ArBy6VeIjG33nSX5o6YgAmIqJwDMBAJCfX977ozKBw0jCD8ROxmWN96dMzEwPuVhHISzJImjgiso8B2OIHIgeG6Crot6WHIwbgFI0BOBGfsVtkk/gk+1x6hfxsGsntskG8sTp5W/bhh/AMwEmIAZgYgG3ObGd5TXwIrJH7ZTdHDMBERBSeARiIRHJ8z+OPDAonPGQwfiI6Y7QvfaoqMdxuVYF8KoOksSMigxiAjc+hiQyTWvHGNsoYvoXFAJyqMQAn4jP2oHijAbhnyM/mL/KyeGOB/EsKJMMRA3ADxABMDMDm55UhJ8lK8cZqZIi0dcQATEREIRqAgaysoPshB9QVlA3hvb8GopUj/YDHKxODbYP5SI6U5o6IDGIANj6LHvKmBOKNrZBDHTEAp2AMwJT4pZoy8Qbek6yQ/yD+QFkn3thH8ndeO8AAnIQYgIkB2O682stECUIw/k6UHR0xABMRUYgGYCAzy3fdY0Bd/vC7TcZfxt9yX7LgMQ20s2VOQ1siZ0szR0TGMQAbXMl5gvwsPgRelL84YgBOsRiASc+ircwQb+AN2SnEZ9NSRos39r0c4YgBOAkxABMDsOl57S5LxBuKyxz5myMGYCIiCtcADOQW5vt+d1zri6aOSPb4iYoyXzxnkh/4bHXDj78igSyW06SVIyLjGIANfkN+nPgQWC9XSwtHDMApFAMw6Vl0kgXiDbwq24X4bLrIByH482WItHbEAJyEGICJAdj0vC6UGvGGvpJiaeSIAZiIiMIzAAM5vXoFfW+6PCiaMtxiAGX8rR5fb/xNql/kJmnjiMgwBmCDqzl7yXsSiDf2lezriAE4hWIAJj2LXeUV8QaelcYhPptTQvAexrmyiyMG4CTEAEwMwKZn1VRmG/+9ZqVcIU0cMQATEVF4BmAgkh2J737eaXGb8RexqrG+9OmZiUHWxEq5Qlo4IjKMAdjg3ZWXyyrxxupkrnRyxACcIjEAU+Jbrh+KN7AwxOfSTIZJXLyRpXJgA4wYxADMAEwMwOE7q67yiXhDs2RnRwzAREQUpgEYjL/ZQY9jDo8Xjn3AYPxEdPpoX/rUjMQQa+oXuULaOSIyiAHY6Fx2lMkSiDe2Vs6RZo4YgFMgBmDSs+ghPxr90sxYxsFfVSsTpJUjBmDzGICJATgJNxsdJeuMf+noIGnkiAGYiIhCMgADWVm+++EH+oLy+wzGT0QrR/oBj0+rN8KaWyUPynaS4YiIATj9B+AM6S+fiQ+B96TAEQNwCsQATHoWRRI3GjgfCvG5RGWN8WsFBjhiAE5CDMDEAGx+Tq3kXvFGApkprRwxABMRUUgGYCAzy+cVR+P5D94eFE1N+viJinJfMm+qH7hodngGYJG1crds74jIKAZgg6ugb5D14o1tlDHS1hEDcMhjACY9i8OMBuAauTbE53KW1Ik3Mk46OGIANokBmBiADW40Wmh8i9ERjhiAiYgoPAMwkFuYX9fvzmvjBuMnKsp88dzJvzP+mo/Aj8oOjogMYgA2OJ+/yDyJize2Wk7gCjUG4LDHAEx6FucbXaG/Xs4K8bmMMXy1wDI5QDIcMQAnIQZgYgA2P6du8qV4I8/ITo4YgImIKBwDMJDTrVvQ59qL4kWThxkMoIjNGudLn5mVGFtDa73cIx0cETEAp/8A3Ej2lm/Eh8Dz0tkRA3CIYwAmPYu7jIbOdTI4pGfSQl4Wb+Q1fhDPAGwbAzAxABvcxrFMvIEauUEaO2IAJiIiBmB7iOTm+t3PO80Xmoy/iFWN9aVPVSVG1tBbKw8bfBOYiBiALc6oqdwhteKN1chdvEuLATjMMQCTnsVUw5sS8kN6JjnyqXgDtTLEEQOwQQzAxABsdk63GL7K5mspcMQATEREDMD2EMmOBD1PODJeOP4hg/ET0emjN2P8NbdRHpGOjogMYgA2+EHTCxKIN/aD7O+IATiEMQBT4uaEF8Ub+Fa6hvRc9pafxRtYI/s5YgA2iAGYGIBNzihDJhu+xuZJaeeIAZiIiBiAjSEzM+h24L51BeX3BckfPxGtLPclCysSo2rKWSP3GHwTmIgYgC0GjaPle/HG4rJQtnPEAByyGIAp8e70D8QbeEcyQ3ouJ8lG8QbelWxHDMAGMQATA7DJGXWS58QbuUWaOmIAJiIiBmBDyMzyeSWxIP+hOyzGX1Rq/J0/1Q9cNDs1B2CRdfKgtHFElIQYgA3Pqq0MCclV0OvlcmnhiAE4XDEA89nKlyXiDTwhO4XwTJrLzeKNTOCbWAzABjEAEwOw3Rlly7viDWyUQZLhiAGYiIgYgO0gN79f0PeWK4OiqSMMBlAUz5noBz5bnRhSU9pyuURaOSJiAE7fAThDcuUd8SHwvvR3xAAcrhiA+WwdIavFG5go7UN4Ju1kpHgDdXINP4hnADaIAZgYgO3OqJ98K97AEtndEQMwERExANtBTvfuQZ9rL44XTR5uMH4iNmu8L31mVmJATQu/yE1J+CYwETEAW4/Ap8ov4o3VSiXf6mIADlkMwLz/92LDdw7eI81CeC47ynzxBpbLEY4YgA1iACYGYLMz2lOsftb7vOzoiAGYiIgYgG0gkpMT73XWSRp/hxmMn4hVjfWlT1UlhtO0skqukuaOiJIQA7DRmXWUMqkTb2yVnCRNHDEAKwZgCsFV+Y+KN7BJLgrxWPGaeAOLuS2CAdg2BmBiADb4hdXB4o1M5/2/DMBERMQAbASRLtm+x7GDg4LRQw3GT0Snj/IDnpyeGEzT0k9yRhJGYCJiALY8t93lA/Eh8KrkOGIAto8BmM/VTvK4eAMr5aiQnkvE8L3I78n2jhiADWIAJgZgk/NpIucZ/jLWA44YgImIiAHYADKzfPeDBxmNv4hWjvQlCysSQ2la+1bOlmaOiJIQA7DR2Z0lG8Qb2yTDpY0jBmAGYLJ99rnylXgD30hRiH9p6GfDqzibOWIANogBmBiATc6nudwu3sAaudgRAzARETEAJx/yigri/YfeEhiMn6go8yXzp/iBi2ZvCwNwIItlsDR1RMQAnJ4D8E4yV+rEG/tJBjliAGYAJvsfQq4Ub+Aj6RzSc9lXlos3MJOrOBmADWIAJgZgu/NpIQ8Zvnf+OEcMwERExACM5Mot6B/vd8c1QdFUxtjkK/PFsyeaj78GPpJDpYkjoiTEAGxwflH5WLyxQBbJzo4YgBmAye7Z32R4M8Ir0iyk53KQrBBv4GFp4ogB2CAGYGIANjmfVjJevIEfZU9HDMBERMQAjOSJdO3qe195flA4aRhjrIHYzLG+9JlZ5oOsgUA+kAGS4YiIATj9BuDmcr1sEm9svVwmzR0xADMAk807B2dIXLyBKdI4pGdzmqwWb+Ce5J0LMQAzABMDcAjOp43MFW/ge4k6YgAmIiIGYCRHJDc36HXGCfHCSY8wxhqIVo3xpU9V2Y+xtl6SftLIEVEiBuA0OsNd5CmJizf2qQx0xADMAEzJf+5/k3fEG7lBGoX0bC40GaxErmcAZgA2iAGYGIDtzqetzBNv4GvJcsQATEREDMBIgi5dgp7HHREvHPsAY6yB6LRRfsCT0+0HWHuBvCY9HRElIQZgo/c7LhZvrE5mSydHDMAMwJTc576n4XtuAzlUMhiA/5fTkzBYEAMwA3C4YgBmAF4o3sBi+asjBmAiImIARgPLzPLd9t3TF5QNYYw1EK0s9yULHtP4mXjvL+pkluzqiIgBOP0G4DZym2wUb2yVnCxNHDEAMwBT8q5/Pl8Cw//ey3fGMQATAzADMDEAh+B8Osg7aTwAEwMwERExADP+5pXEgv733xowxhqoKPMl86b4gYv+x/iLWhkruzkiYgBOv7PcVZ6XQLyxt6WfIwZgBmBKzjNvL5XijbwrWSE+n4vTfwAmBmAGYGIADsn5dJQP0nQAJgZgIiJiAEZun97xvrdcGS+aOoIx1kBx9QQ/8NlqBt//2xp5UFo7ImIATq+zzJDjZKl4YxvlUWntiAGYAZga/plny4fijcyX9iE+n9tlQ7oMwMQAzABMDMAGMQATAzARETEAI9I1L+hz1QXxosnDGWMNxGaN86XPzGTo/W2r5Xpp44iIATj9roJ+UDaJN7ZCDpcMRwzADMDUsM/8NFlh+O7zh6RRiM/nH7IxHQZgYgBmACYGYIMYgIkBmIiIGIARyc31vc440RdOeoQx1kB0xmhf+lQVA+8f84ucL80dETEAp9eZ5shr4kPgednFEQMwAzA13PNuLuMkLt7ASjkz5Gd0lawTb+BcBmAG4FSOAZgYgBmAiQGYiIgYgNEl2/c45vB4wah/MMYaiFaO9AOemMaw++d8L4dJI0dEDMDpc6aN5ERZK97YBrlRWjpiAGYApoa7/vl98UaWSEHIz+hCwz8TbpfGjhiAGz4GYGIAZgBewueEAZiIiBiAsbVlZQXd9t+7rmDkPwLGWIvxt9yXLHiMQXfzfCzF0tgREQNw+pxre5kYkqugl8h+jhiAGYCpYd59fqzUijfysmzHAPyr7mEAZgA2iAGYGIDtzqed/FO8gR9lD0cMwERExACMrSevqCDe7+7rGX8tVJT54rmTfemz1Yy5m6dOnpVejogYgNPrbAvlPfHG4lLNX9AZgBmAqYGuf54k3lCZtGEA/lXDpIkjBmCDGICJAdjkfNrKPMMBeC9HDMBERMQAjK0jt18f3++Oa33RlBGMsRbjb/UEP5Dxd0vVyXzpLBmOiBiA0+Nsm8qZIbkKep2cK80cMQAzANPWe9Z95AvjX3A5RRqH/JzOkzXiDVRJU0cMwA0fAzAxADMAL5cTHDEAExERAzC2XCQnN+h9ydlB0ZThjLEGYjPH+dKnZ26dERQb5UHp6IiIATh9zreTzJY68cbelv6OGIAZgGnrPOcmcrVsFG/kR4mlwFkdKSvFG3hOmjliADaIAZgYgE3Op41UizewWi5yxABMREQMwNjS8Tcn6HnqsXWFEx5mjDUQnTHalz5VtXVHUCyXW6SlIyIG4PQ54z3kM/HGNslEaeuIAZgBmLb8OWfKS+INvSI7pcBZDZLl4g28Kx0dMQAbxABMDMAm59NSRog3UCP3OGIAJiIiBmBsgawuvsexg4OC0UMZYw1Ep430A56YxmDbMFbKKdLUEREDcPq8I/OSkFwFvUaONb4ulQE4PWIA5jN0llj+PbJWRqTIWUVlqXgDn0t3RwzABjEAEwOwyfm0kPvFGwhksmQ4YgAmIiIGYGyGzCzfda89gvwR9zDGWqgs9yXzp/qBi2Yz1jacD+Xv0tgREQNwepzzTrJIfAj8l2S6tIkB2CAGYD4/HeUpCcQbWSUnpsh55clPhtdk7+OIAdggBmBiADY5n6ZyuXgjT3PzBAMwERExAGMzx9+8AbF4/yE3BYyxBirKfMm8KYy/DS+Q16SvIyIG4PQ56z3lB/HGamSotGYAZgBmAKbNeL6N5XhZLd7QJ5KXImeWZTJWiKyTsxwxAJvFAEwMwAZ/Tp8h3sh/pIsjBmAiImIAxp+T06tnvO+tV8WLpgxnjDUQmzXelz5bzUCbHJtkuuzgiIgBOD3OurU8LDXijX0vezEAMwAzANNmPN+/yDzxxiZJxxQ5s13lBcPrOO+Wpo4YgA1iACYGYJMzOki8kWVS6IgBmIiIGIDxx0Xy8nzvy84NGH9txGaO86VPz2SYTa4aGSqdHBExAKfHeWfLc+KNBfKE7OBSOgZggxiA+fbvFbJKvKGNckYK/SB+O5ku3sgc2d4RA7BBDMDEAGxyRiWywvDvGcf+wbMiBmAiImIARiQnx/c69bigcMLDjLEGotNH+9KnZjDI2lgul0tTR0QMwKl/3o3kEFkm3tg6uURaMAAzADMA0x98tj3kQ/HGvpLeKXYDxIPijXwpeY4YgA1iACYGYJMz6ilfijfygDRzxABMREQMwPgdmVlB98MOrCsYNZQx1kC0cqQf8HglQ6ydQJbIIGnkiIgBOD2ugh4lG8Ube1cKGYAZgBmA6Q8813YyXOrEGwpknjRLobNrItcY/8LPIY4YgM1iACYGYIP/LnpDvJHnf+81DcQATEREDMDIyvJd99qjrmDEvQFjrMX4W+5L5j/mBy6azRBr7w3pLxmOiBiAU//cu8mr4o3VyozU+wENA7BBDMBc/Xy6LBdvrFZOScEzPFrWGZ7ZcMlwxABsEAMwMQCb/MLp4+KNfCsDHDEAExERAzB+XV600Pe767qgaOoIBtlkqyjzxXMmafytDscAik1SJTs7ImIATv1zbyqn1D97QyvlWGnMAMwAzABMv/JM+8hbEog3tli6p+AZlsoP4o28Kjs4YgBOQgzAxABsfkYZMl7i4g3UyLW/cl7EAExERAzAyOm9e9D31quCoinDGWOTrszHZo33pc/OCtcIihoZKi0cETEAp8dV0OOlTryxV8M/qDAAW8QATDrXXWVBSMbfuIyR1ik6DH4g3shyGcS3gBmADWIAJgZgm3O6XNaKN/Kk7OiIAZiIiBiApR5EcvPivS88I843f23EZo71pU9XhXMExS9ygjR1RJT6AzDnXyifiDdWIw9LSwZgBmAGYKr3LHeURyQsf1/8WQ5P0bNsIs8Zvzv5voYdz4kBmAGYGIBDdE6HyFLjW4b+7ogBmIiIGIAFCZFIJOh16nHxwnEPMsYaiE4f5Qc8OSPcIyg+koGOiBiA0+Mq6AtktXhjy+QABmAGYAZgSjzH7WWkrBUfEs/K9il8pmXG36T+UHo5SscBeKX0ZwCuhwGYAZgBOCJfGN/a8XDavmaGAXiydHBERMQAjD8hq4vvcdShvnDsA4yxBqLTRvoBCyvDP4AiLv+SbMlwRJTaAzDPoJNUSiDe2D9lZwZgBmAGYOPs3xu4q5TLRvEhUSfnS5MU/zO3TryR9XIbP4xPwwFY5AD7K74ZgIkBOGS/yDVXvKGvpI+jdByAn+OKbyIiBmD8GZlZvmtpcTz/kTsZYy1UlPmSeVP9wEWzU2MExSZ5UDo4Ikr9AZixpVSWiDe2Xi6T5s4+BmCDGIBJ5/hXmSBrxIfIh9Itxc823/jGh0DekRxH6TgAXxCicYoBmBiA7c+ppdwp3lCd3CGtHKXbAPyFRBwRETEA44/JixbG+99zQ2Dz3l/G3+I5k1Jv/MUKuZL3ARMxAKfJVdA3h2Rw+VJKnV0MwAYxAJPOr5kMkGckLj5EauQf0iQNRotXxBuqkzsb5J3v/DJXaymRD8UbmCpNXXJiAKb/x95dAFdxPmwb3xBDgzttAyTBg5UISagbdaHeUuru7u5e3CVYcXeq1B33OlIsAtGzz3fNTOYbJu+UPynkPLvn3PfMb9zYTZacXNldBWB/XJcuQr4H7gI+1dGO9vmNRGPcCmPBLlyiM6FpmqYALIchsX17t8vj97ip4z6wEEAlfeoIk7Vkmv8CqLjYiiw9ClrTFIBD5K67+TCWlWIS6igAKwArAIfN9acmbsYqBGA8ZgNSQuA4V8MQuPpDn5D6/mmKi/Em1qEExoJVaOHdI6UArCkAWzhWHbAJxqISTEScox2tPxzuhFsxF//AWFCsdzxrmqYpAB8GSWzXziTf3s9NGfO+hfgp6VOGm6zFUxRT/W054h1N0/wdgHUuquBU/A1jWR6uQ7QCsAJwyAdg3fWbjuzgnDM9PpJ/x/XIgbEogAU4xtH+6/dNC5yJ9/Azcj0Q9vNwg7cDlQKwpgBsIRbO9cD1KRe3/ufXzOhrvhY64ibMwxYUwVj2E1rqDGmapikA/wtJaJ3gdup3RSBl5DuKsRakTR5iMhd+qIDqfyXor/cBh8g0BWD9RffLKPDIB/rOIXusFYAVgHWtaYXn8QdcGI9ajw4hdOzbYD2MZQG8VaFHQSv6NsDpeBffoNCD3ztLPHYXsAKwpgBs/3g9jGIYyzbhrMM+hvrD4GpIwm2YiD9RCuMhxbgFUTprmqZpCsDlSXxLt/05ZwRShr2pGGtB2qTBJmPueOKh3vsbInbjRujDhKYpAPv9nCTiExjLijAQNULqACsAKwDrfXHH4S58jQMwHlaCtxEVQuegBsbCeMBu3Kg7sg75/szGyMST+ATbUALjUXm4DVUUgBWAFYDLKACnYxeMZQGsQCfnUNMfGyWgD/pjNXLhwnjUN7o2apqmKQBLOcRf0/bELPf49190FWMtmDDIZMzJNr2WhVj8lY1IDYEIrGkKwAo052I7jGV7cRH8fV1VAFYAVsSqg254Bd+iGMYHVqJTCN7Vc6WHIuIfKHssp75XUB3HojdewefYBeMTLtagO6ooACsAKwBDAbghZsN4xDJ0BMdSn/tQD21xI7KxEkUwPlGMIajnaJqmaQrAArRJ7eF2e+ERNzW7f9Djpww0PWeMDs34KwFMgd8fe6ZpCsA6L7EY5qFf0jRXAFYAVgD2ZWhsggswAptQCOMTB/AwYkLw3LTHBg8Fw9/RF9XC+I6rRFyMl/AldqEQxodKMRmJCsAKwArAUACOxAMogPGAEsxF9zD+Gq6NNNyECViPHARgfGgv7lDU1zRNUwAWJHbsEOj6xH1u6jjFXxvSp40wWUumhW4ElQN4FdUdTdMUgP0fCH6EC2NRAZ73RRhQAFYA1nWjFhJxLobie+TA+NAiNA3h4DjIY3di78QraBEGd/nWQjyy8CjmYx3y4cKEgGLMRSIiLB92BWBNAdj+MeuIDTAeEcB3OBvVw+Au34ZojyvwDj7HnyiGCRF/42rUdMJ1mqZpCsCS0KaNSb6tH/H3AwvxU9KnDDNZi6aEfgSVHTgPkY6/p2kKwHok2E3YDWPZ7zjR44dMAVgB+EpEhNGjaqMQiwY4GfdiNNZiP0phfGo3zg3x95j2xg4YDynELPREbIh8n0QiFk1wEu7HSPyIXBTDhQlBAcxEVwvfSwrAmgKw954uNATGQ1z8iWfRHFVC5Okr0aiBNrgEz2MOtqIQpTAhahueRF1EOOE0TdM0BWBJaN3adLz6Ujdl+FsW4qekTRpsMhdMUhwNHyvg9w/omqYArPNTH6PhwlgUwHTUVQCuOAXgoHAxFOfjRKSjKzogHsegLmoj0ofHNAp10QrdcAEew0T8hL9RBBMCCvFeGNwR1AjTPBoNN+I5tEeMD++ubo5k9MZDmILVVr5P7CvBz7gMNRSAFYAVgMM2AEfgNOyD8ZgDWIo+qOfTp0q0RDquxftYjo3YgwBMGMnDMHSHbsoIk2mapgAsLVuZ9ueeFegx9E1XMTb40iYONhnzJiiKhpcSjEF9x9/TNAVgnaNOWOuBCJyPOxGrAFwBCsC27Md2bMWP+AaLMA/ZGIm38TQexnW4BmciEz1wLJqjKRqUqY841CpTHbHlxCCy3N0gMYgtpyZqIQ710RDNkIAsXILb8TrGYhF+wQ6YELYUrcLkKQ+XIgfGgwJYhzdwPGoj0iO/bI9BTdRHC/REX7yGCfgSf6HsLivIXoxCJmpYuDNLAVhTALZ/3OpgNlwYD8rBfPRDK1RDhEf+v66K2miMNjgXd2AQZuNn5MKFkfgANuJBtEC0E8rTNE1TAJY2memB7m89ayP+yoSBJmP2ONNr2QxF0fCzDzc4/p6mKQDrHEXhYeTCWPYDuioAV4ACsJeVoAD7sRd7sAN/409swWasxDIsxVyMwNAyr+HRch7G9bi0TF88hEcP8jjex1CMwgJ8jLX4FX9jF3IsPKLWpp04F5Fhcn1vhI89fn4LsRmj0Redg/k0iHJ3vp+Ky/AQ+mMhVuMv7P2fd/dKCTbhDZxo4T2NCsCaArD9P6Dpiz0wHuViD77FS+iNlsEKiGXRuTHaoSd64wY8i3H4CluxE7kIwMi/ysNy3IIE3REcktM0TQFYklKON91eecJNze5vIYAq/vacMZr4O10xNHytQVf4+f0jmqYArPPUGOMRgLGoGGMQpwBccQrAIoeUg8cRE2bX92uR66OAuAWfYwgexPnoiiTE41g0QsODNEV8OW3QHp1wBs7H7XgQ72Ac5mEFVuJX7EMARo6Ii51YgDuRjPpBCiwKwJoCsP0/PJoO1yfXqjz8gjl4C9fgRLRFS8SjGRoepBGOQfxBWqF9mUycg8txD57GQEzDcnyN9diG/TByxIqxEiNwNuJRS+8J9v00TVMAlsR27dwuj9zlpo77QDHWgvSpI0zWkqmKoOEtgDFo5GiapgDs77/Yz8AfMJbtxflH8RdgCsAKwCLFGIUmYRoylvr0btIC5GIPfsMP+BpzMOMgi/DDQX7CX9hTJge5OIACFCv0BoWLA/gTk/EoeiMR0YhAREgFYAVgBWAF4Eich90+vF4VIx/7sAMr8QOWYyZmlJmNr/DDQVZjN/ZgH3KRhwMoRElQoriUYi9+wEDcgJ6ojyoKwr6apmkKwJLQtq2bfEvfQMqY9xVjLUj7cJjJWjTFKIAKcvAgohx/T9MUgPUo6CdQBGPZZ2itAFwBCsCHIrIE8YgIw2t7FVyIHTAiFgWwGxuxAsPxOPqgocOYArCmAOz/41cTk1AKI2JRAf7Cz5iPN3Ezeupx0d6epmkKwNKqtdvx2ssCKSPfVoy1IG3SYJO5YLLCpwDAb8iAnz+waZoCsM5XUyxGAMaiQryL6grAFaEALFJOAN+jS5hf26tjOFwYjxHZiQsdxhSANQXg0DiGaVgH40EiC737ShBN0zQFYGnZ0rTrfZrpMfh1xVgL0iYOMhlzxvPe3xmKngIAAWSjsaNpmgKwv+8UOxu/w1i2AycpAFeEArBIOatxKiL1mP/47tgM4zEivyMtpAKwArACsAJwNTyOAhiPEZnteHKapmkKwBLf0rQ9+QT3+HeedxVjLZgw0GTMHqf4K/8mD49Df0moaQrAfj5nVfE8SmAsW4R6CsCHTQFYBHCxEeei7BUdesw/7sBuGA8R+Q3dHcYUgDUF4NA5jvUwGy6Mh4jMcrw4TdM0BWBJ6taltNuLjwZSs/tbCKCKv+nTR5mspdMVOg9FNqOHo2maArC/z1sCvoMLY1EebkesAvBhUQAWAX7E5f8n/ura3gCjEIARUQBWANYUgCv5WJ6CP2E8QqQUYxyvTdM0TQFYEtq2dbs8dIfiryXpU0eYrCVTFTjlcExHPcff0zQFYD0u9HJsg7FsPdIUgA+DArBIKb5G2r8+9lnX9rb4ShHYQ2Q9modkAFYAVgBWAI7BndgJ4wEixXjX8dI0TdMUgCWhTRuTfEtfkzLmPcVYC9I+HGqyFk1R2JTDlYe7Eev4d5qmAKxzF4e3UQJjUQkmIU4B+BAUgEUKMQ/dEeEcaorAvbEVxgNE1qK+w5gCsKYAHHrHszbeRDGMiAKwpmmaArAAQKtWbsfLL3J7DHtTMdaCtImDTeb8SYqaFSXrken4f5qmAKw7xX6EC2PR3kM8zlUBWAFYJBeD0PKwfnmu63ssbsRuGBHLVoV0AFYAVgBWAI5AC8xACYyIRYV43vHKNE3TFIAVf9v1Pr20x5DXXRvxU/F3kMmYO970WjZDQbOipBQzUNfx9zRNAVjnsB/2wlj2NToqAJejABzeJID1uB01nYpOEfgB5ML4jrjIx0osxF4Yn1qOOg5jCsCaAnDoHtd2mItSGN+RUuzEEvyIAIwP7cddjhemaZqmACxts3oGur/2lOKvDRMGmp6zxhJ/pytm/leSg2sR7fh3mqYArHPYAGMQgLGoAG+imgKwArACsKAIH+NkVHX+y3R9r4cPcADGN+QAVuARdMBxeAH7YHxoLuJCPgArACsAKwBXQQ98AxfGN+RPTMIlaIIMfIUSBeD/OE3TNAVgSerR3XR75QmTmt3fRgBV/J0+yvRaqvgrR2wlujv+nqYpAOs8dsYqGMt24VxEKAADCsBhSFxsxmM4zjnS6freEK94/k5gKcRWjMX5aF7uPFbHA9jmw7AyRwFYAdjCFIDtHd9UrPD8ncCSg2/xDLqjRrnHenfAJBTC+EgernU0TdM0BWCbEtq1dbvcf5ur+GtH+tThJmvxVMVLORqKMRJxjn+naQrAOo+RuAslMJYtRGMFYEABOMxIPubgBMQ4R2u6xtfBs557jLC4KMR3eBZpqFkuEJWPwFdio88i8Gi7j3BXANYUgC3cCZyKBZ67VkkA/2AubsKxiPkf73YehnwYn9iHsx1N0zRNAdiWhMSkQKcbry5NGf2eYqwFaZOHmsyFHypcytGUg0vg5w9zmqYArHPZGPNQCmPRfjyEqgrACsBhQ/LwJa5Cw0p5CoCu8bVxG36HCyPW7/adhMsQj6jDPI9ROBEf++iurPdQ3bEwBWBNAdjaMY5AEqbgAIxYtQ/f4CWkoj4iKvAkkQew1Uf/1t6OpmmapgBsRctWpuMVFwdSRrytGGtB2qTBJnP+RAXLyiBfoZXj72maArDOZxY2wFi2FVkKwArAEtJc5OMb9EVTRwvGXVnn4XuUwASNFGIb5uF2JCPqCM7lcXgZ//gg6L9r6f3+CsCaArD9Y90Iz2BnUK9VEkA+1mIgLkA9RBzB06JOxifwegPYg16Opmk2pikAK/62O+0k9/j+LyvG2jBhkMmYk216LZuhWFkZpADPoKrj32maArDOZ3U8jSIYi0oxEXEKwArAEpIK8TnuRyIIYUGarvNR6IEpQbmDVP7BF3gFJ6MJoo7SuayFfvjK40H/KcQ6dqYArCkA2z/eNXAjViMAU2mkBFsxDXegDeIQcZReGZSIN7Ddw0H/H7R3gjpN0zQFYImPN217ZQS6v/mMqxhrwYSBpuessYq/lU3+ximOv6dpCsA6p02wCAEYi3JxA2IUgBWAJSSU4m9Mw1VobvVRz7rW18NDWItSGDkqirENy/EUeqERIirxru5j8SJ+92gIvhvRjr0pAGsKwPaPeSSSMRY5Ry0eios8bMFE9EVnVKvEcxmLM/Ahcj0agNs6mqZpWjADsCQmdwp0e+7hQOq4/hYCqKRPG2Gylkyr7PgnEsBU1HQ0zb9TANY5jcBF2AZj2TdorwCsAOxrEsA6DMbZqIdIxwvT9b4asjDjiIKYuNiLZXgDp6MhYoN8h93JGItcBWAFYE0B2KOfMRrgHvyku4GPSCk2YRLuRlfEITKIr5RoiHvwHYphPOI3JDqapmlasAKwJHboYDrff6ubOu4DC/FT0qcON1mLpwQrAIrk4QZEO5rm3ykA67zWwAsogrGoCENQXQFYAdhXJB+bMBH9kARimObhu4EvwUf63qtQ8F2HabgZx6MhIi3HlTichfHY7pHAck256KUArCkA61UEbfAKNqIU5pCkCH/jG7yLC5CEGh64szset+Jr5MNY9j2ODcoB0DRNUwCWhKQkk3zbdW7K6PcsxE9JmzzEZC4KevwV+QHJjqb5fwrA+uXYChjLduECVFEAVgD2LCnFfmzBWFyHtojWY559dWdWfVyPRchDAEbiS7Af27EAL+IixCMaER48l1VxKt7DJhTBhbHgbKfcFIA1BWCt7PrZBe9gI4pgJN5FEXKxFmNwF7JQF1U8+v9OC1yHhdhtMex/G5wArGmapgAs8S3dDhefF0gZ8baF+ClpkwabjHkTbMQ/kUK8jaqOpvl7CsCKAZdjL4xly9BCAThsAvD52IwcTwcoKcYfWIFhuBJtUUfR1/fvaWyO6zAL2+DChJkD2IzPMRBXIxlNEOuj/8drojOexsfYDVcB2EMBWFMA1vmoia54CT/iAEyYCeAfrMJsPI+z0Bp1UMUn57IKmuIMDMM6C+fz88r/3KhpmqYALC1bmXann1zaY9BrroX4KRMHmYy5402vZTNsBUCRbTgFof4BT9MH9s54AI8H2QU6+kH7hczVeNyy+9DWY8fmJAvH4VGkh8HXXR2k4wxcinvxEoZjNr7Er/gLO7EXeShACYwcVS4KsAdb8RHewlVIQb2QDr56HUAvPIcV2I1imBBSjFxsw0qMx2O4AMmoHUJ/1FUHp+JxfIrtOFDJQbgAp3rsWDTCQ3g8yG5HPU8cBF3bauEWG59f9P/l/4yH8bgU47ElBJ9G4aIAu/EnPsUHuBEnojWiQ+xR330wDKuwOwg/q09HQ0fTNE2rzAAsbTLS3O6vPummZve3EECl58wxtuOviItshMOHfE13CsVaENwPxno8W6wHRHrvlxo6DkH8GqyGONRHE8QjBWehL+7D83gX4zADi/AlfsZmbDvsR0tLAbbgS0zEc7gSHdAYNXQXU1g9DaIajkEfvIcvsQuuT4Pv3/gas/AObscJaIE6iEVECJ/PWDTBSXgS0/EL9lfSaxx6evEYWBCj+Oepr4EYfX7xdAiugy64F5OxCoUwPpSLzfgY4/AMLkVXNEItRIb4+YxDAi7HIHxSie+pn4IGjqZpmlZZAViSunZxuz3/sKX4K+nTRpqspdO9EABF9uFWK3cBa5qmaZqCVV00Q0u0Rzf0xMm4EDfjfryO9/EhZuJb/IJ12ITfsA07kIN8FMH4VCH2YTu2Yi0+wRi8gCtwAjqgOWLKHWJNf/jVDD3QF0PwJbbgHxTAWBJAPnbhD6zH15iAV3EzTkYXtEANndH/f6d3K5yEOzEcX2EDth3hHXg7j/DJFZqm6RpVHQk4C49gGtbgD+SiFMaSYuRgG7ZgJZZjOB7H5UhHezRCtM5nfCQaoxvOw0uYhZ/wO3Yf4c/ZE1Hf0TRN0yojAEtC27Zu53tuCqSO+8BC/JT0KcNM1uIpXgqAIt8h3tE0TdM0zWuROBJRiClTFdVQA3E4Du2RgtPRG9fiZjyIF/EyhmAMsrEIy/Ep1mAjtmAfCg9ShOJySiqguJwiFKIAO7ERq/AJFiAbg/ES7sM1OBNd0AzVURXRurNXq+BdPbGojU44H3fjXUzEJ1iH7Sgo93Vf0a/xwjI52Ii1+AzzMBbv42ncgovRE/GoiaqIqdAdVnqySy0k4nTchBcwHNPxKdZjBwqBf72W/YquOrKaph2ln92iUA3NkIF+eArDMAdfYwvyUXgE/+8c/HPVDmzEj/gIUzAMr+Ah9MVpSEYDVEcsog7rZyqd02hUQz2kow8ewJvIxlL8gC3IKX9ey59bvK0/8NI0TVMArhQJCYlup5uuCaSMfMdC/JS0yUNM5sLJXot/IqV4LqTvAtY0TdM03W1cE3FojKZohtZIRBKS0bXM8TgXfcq5G48dhrtwOfoc5GR0LdMBiWiFZmiEOFTT40e1ID62vTaaIQEd0BWnok+Z2/HYv3gYfdHnIJnois5IRGs0R0PU0p3qQbnWVUc9NC93XjPQp8wVuAePlblFd2Jpmhaku4Qb4FgkoQtScB764HI8iMf+xb3lfrY6C8eX+7kqHk1RF9UVd4Pyup04NEE8kpCM7jgTfcpcX+5c/j/27oKrrizB+/BJve+4u88EuIQAISQBrnC5tLuUa7u7e3dWuaYsISxC3AgucSFhfJaNu7u7l3LPnt3u3RHCQZ5nrd+n+G95tpvWAAbgua+2LjTfcFWa3/2IMTaDisP9oevE4EIdAKU/i7XFViQAAAAAAAAG4AXeyprQ+JxnVNu33pPF+KnBvlA+NhC6Z6YMjQs1zca2xr4zAQAAAAAAMAAv7BrKpWrbQ7el2Qygxt/Ow/uNv1oM/WPs6gQAAAAAAGDhMgDXr1mTrr/tg2nhYK8xNoNK47tD5eyEcVGLoWrsaOy7k4UHAAAAAADAAFzf3Jy2vufNaeFAjzE2g0qjO0PlzJhhUYup/47dEvv/ycIBAAAAAABgAM7l6tO1b3pVNb9vszE2g4oj20PX6RGDohZjvxCrTRYIAAAAAAAAA3BNTWi68kXVjp0PGWMzqDi0LZSPH4pDmn9/tSj779iHYv8vAQAAAAAAMABnP/42Pv/Zob333izGTw32hfKxgdA9s6jHX+kPYk1JtgAAAAAAAAzADcV82nb/xrQw0JvBAKrOyX2h+9zkYh//pGpsY4a3gAEAAAAAAAzA9S1rqutv/UA1m/FXpYndoXJ2fKkMgNIfxdoTAAAAAACA+WcAzjU2htZ3vyktHOjJYPxUcXRHqJwZW0rjn/R07OHYtyYAAAAAAADzxwCcq8uFltffkub3PJrB+KniUH/oOjW8FAdA6W9iz0gAAAAAAAAMwPM1/talzde8rJrf9bAxNqPxt3x8cKmOf1I1NhD75uTyAwAAAAAAMAA3PueZs+2b70wzGD812Bc6jx4M3TOTS3kAlP46Vo6tSC4fAAAAAAAAA3BDMR/aHrotLQz0ZjGAGn+n9obuc0t+/JXS2N7Y9yWXBwAAAAAAgAG4vqkxXf/x92Y0/qo0vjtUpseXywAo/WPs5cncAwAAAAAAMADXNzZW1779ddX8/p4Mxk8VR3eEypmx5TT+SdXYVOy7krkDAAAAAABgAM7V1aUtr7tlNr93cwbjp4rD/aHr1PByHACl/4y9NHZFMgcAAAAAAAAMwLW1oellLwwd/ZuyGD81tC2Ujx0K3TNTy3UAlAbn4hYwAAAAAACAAXhlTWh83rPS9i13ZzF+arAvlI8eXO7jr/RPsWtjK5KLBwAAAAAAYABe1dE223b/xrQw0JvBAKrSxJ5QOTe53Mc/KY2Nxb47uTgAAAAAAAAG4PqWNdV1H3tPNZvxV6Xx3aEyPf7pAUzSf8demgAAAAAAAFw4A3CucXVoffebQn5/Twbjp4ojO0LlzNjnxy9Jaexw7FsSAAAAAACAC2AArqlN17zy+jS/59EMxk8Vh/tD18mhLx/AJP1drOt8/wIGAAAAAAAwANfWpU0vfcFsx46H0vkfP1Uc2hbKxw+F7pmpLx+/JKWxHef5FzAAAAAAAIABePUzK9W2h27LaPxV5+H9X3v8lfTXsWclXwMAAAAAAIABeGVNaCh0hLb7N4bCQO98D58a7AuliT2hcm7SwCd97Z6O7Y19Q/KVAQAAAAAAGIDrm5vTdR95Z2r8zabS+K5QmR4z7knn15/H1idfDgAAAAAAwACca2iotr7zDbP5/VuMsRlUHNkeKqdHjXrS+VeN3Rv7luQLAAAAAAAAGIBr68KaV99Yze8z/mZRcbg/dJ0cMuhJF97vx1qTzwAAAAAAADAA19SGxhc/L+3Ydr8xNosGt4XysUOhe2bKmCddeI/Fbo/9/yQBAAAAAAAwAIfVz+6utm++KzXGZtBgX+g8vN/4e2lJvxnLJcsdAAAAAABgAF61bm11wz0fSwsDvcbYDCqN7w6VsxMGvEtLmo29LrYiWa4AAAAAAAADcH1LS1j3wbenhYPG3ywqje0Klekx493cJP107PuS5QgAAAAAADAA51Y3pK3vflOa37/FGJtBxZHtoev0qNFu7pL+PXbD8rsFDAAAAAAAGIBratM1N1xVze951BibQcXh/lA+MWiwm9ukNDYQ+55k2QAAAAAAAAzAcfxteukLZjv6Nxljs2hwWygfGwjdM1MGu7lP+qfYs5PlAgAAAAAAMACv7i6nbQ/dlhYGjLFZ1Dm1L3SfmzTUXZ6kp2O9sSuSJQ0AAAAAADAAr1wZVrVvSDfc+/E4/vYaYzOoNLEnVM5OGOkub9IfxZqSpQwAAAAAADAA1zc3V9d98O3VwsGtxtgMKo3tDJXpMePc5U96Kvbu2DcmSxEAAAAAAGAAztXXh7Vve12a37fZGJtBxeHtoevUiGFOmr9+JvYTyVIDAAAAAAAYgHN1udB80zVpfs+jmYyfxt/+0HViyCAnzW//EXttsqQAAAAAAAAG4Jqa0PjC51bbt96bGmMzaLAvlI8eDN0zUwY5aX6rxkZi354sFQAAAAAAgAF4daWz2r75rozGX+Nv59Q+46+UXf8U64ytSBY7AAAAAADAAFy/tiVsuPMjoTDQa4zNoNL47lCZHjfCSdmVxjbGviFZzAAAAAAAAANwfcuatPX9b00LB7caYzOoOLozjr9jBjgp+3419pPJYgUAAAAAABiAc/Wr0rVvf301v7/HGJtBxeH+0HV6xPAmLYz+O/a22Ipk0QEAAAAAAAzAtXWh+dqXV/O7HjbGZlBxqD+Ujx/y76+0cEpjh2PflywqAAAAAACAAbimNjS97EWho+9+Y2wWDfaF8tEB46+08Pq3WDlZTAAAAAAAAANwQ6lQbX/kjrQw0JvBAGr87ZzcGyrnJo1t0sKrGrsnWSwAAAAAAAADcP261tkNt3+oaozNptLE7lCZHje0SQu3X4/9WLLQAQAAAAAABuD65qbQ+r63poUDPcbYDCqO7ojj75iBTVrY/Vfs+tgVyUIFAAAAAAAYgHN1udDy5len+b2bjbEZVBzuD10nh41r0sIvje2OfXeyEAEAAAAAAAbgXC6XNl/38mp+9yPG2AwqDvWH8onB0D0zZVxbHEl/FWtPAAAAAAAAFuAAnDa+4Dmz7T13p8bYDBrsC+UjB4y/iyvpsdjHEgAAAAAAgAU1AK+sCQ1dpbT9kTvSwkCvMTaD8bc0uTd0n5s0qC2upDT2s7EfTAAAAAAAABbKALyqdW26/rYPGn8zqjS+O1Smx41pizPpX2PPiq1IAAAAAAAAsh6A65saq+ve/7Zq4UCPMTaDiqM7QteZUSPa4k66J/bNCQAAAAAAQJYDcK6uLm154ytnjb/ZVBzuD10nh41niz/p12IrEwAAAAAAgMwG4Nq60HTli9OO7ZuMsVk0uC2Ujx8K3TNTxrPFn/QvsRsSAAAAAACATAbglTWh8UXPS9u33mOIzaLBvtB55IDxd+kkVWMHYt+aAAAAAAAAzPcAvKq9bbZt061pYaDXGJtBpYk9oXJ2wmi2tJL+OFafAAAAAAAAzOcAvGr9uur6je+rGn+zqTS+K1Smx41lSy9pNnZzbEUCAAAAAAAwHwNwfVNTWPehd4T8gR5jbAYVR3aEypkxQ9nSTZqI/f8EAAAAAADgcg/Audq6tOW1N6f5/VuMsRlUHO4P5RNDBrKlnfTHscYEAAAAAADgcg7Aubq6tPnql87mdz1sjM2g4tC2UD5+KHTPTBnIlnbS47E3xq5IAAAAAAAALtcA3Pi8Z1Xbt9yVGmOzqfPwfuPv8kk6EPueBAAAAAAAYM4H4JU1oaGYT9s23RoKA73G2HmvL5Qm94TK2Qmj2PJJ+vNYSwIAAAAAADDXA/Cq1rXV9R9/T2r8zabS2K5QmR43iC2vpMdi70gAAAAAAADmcgDONTRUW9/7lmp+/xZjbAYVR7aHrtMjxrDll1SNTca+KQEAAAAAAJiLATiXy4WW194cx98eY2wGFYf7Q9eJIUPY8k36s1hrAgAAAAAAcMkDcG1daLrqJWnHtgeMsVk02BfKxwZC98yUEWz5Jj0Zuyl2RQIAAAAAAHApA3Dj855V7ei9NzXGZjP+dh7eb/yVFGI7Y9+ZXCwAAAAAAMAAvKptfbXtgY1pYaDXGJtBpfHdoXJ2wvAlKcR+J5ZLLgYAAAAAAGAAXrW+Naz72HuMvxlVGtsVKtPjRq/PJunfY69OLhQAAAAAAGAAzq1enba+/61p4UCPMTaDiiPbQ9fpUYPXFyZpNrYn9o0JAAAAAADA+Q7Aubq6dM0t11bzex41xmZQcag/lI8fMnZJ+kr9SuwnEwAAAAAAgPMagGtqQ/O1L0s7tm8yxmbRYF8oHxsI3TNThi5JX6n/jT0vtiL5egAAAAAAAAPw6md0pe09dxtiMxp/O6f2he5zk0aur5WkT8T+fwIAAAAAAPDVPGPVuttW5zsea7vvE6kxNptKE3tC5ey4cUvS1+tnY9+RAAAAAAAAfDVd11x7/4aN73+8cLDXGJtBxdGdoTJt/D2vJP1FrD0BAAAAAAD4akp7ezYXDm59yhg7/xWH+0PXqRGj1vkm6bHYO/0DDAAAAAAAfFXFsV2bC4f6DMDzXHGoP5RPDBq0JF1oB2PfmQAAAAAAABiAF0iDfaHz6MHQPTNlzJJ0of1OrDYBAAAAAAAwAC+Q8XdqX+g+N2nIknQxPRZ7cQIAAAAAAGAAzr7S+O5QmR43Ykm62GZjmxIAAAAAAAADcLYVR3fE8XfMgCXpUvu52LcmAAAAAAAABuBsKo5sD12nRgxXkuaiv4xtSAAAAAAAAAzAGTS0LZSPHwrdM1OGK0lz0eOxW2IrEgAAAAAAAAPwPDbYFzqPHjT+SprrHol9ewIAAAAAAGAAnq/6QmlyT6icmzRWSZrrfin2owkAAAAAAIABeH4qje8OlelxQ5Wky9E/xLqSrwcAAAAA4P/YuwfQa884jsP3bCOMueWajvPSsmebcc5Y1mvrz6PXPFnzsjXb1r3fbB49T+911Sfb9b0xPMAArMrCytzcu2ik0riSPoruT+MFAAAAAAAYgFWZW54bu2bHOfxI0tfRpujwBAAAAAAAMJ4BWJXZZbm+Yya3Bj0D1biT9GR0dgIAAAAAADAAj6daf4Pxd1JJeiOqJAAAAAAAAAPwiJtZmqvddbl1oGuUmlSSvoluiA5LowMAAAAAABiAVW2vzs197UmPP5K0NDo2jQYAAAAAAGAAVmV+RW7uXZjW+CPJP8BnpuEBAAAAAAAGYFXmlufGrtlpDT+S9GJUT0MCAAAAAAAMwJpZluvbt+TWoDet4UeS3o9uTUMAAAAAAAAMwJpZmmv9DdMefyXp62hpdHgCAAAAAAAwAP+/qp21ubm/Y3ySVIQG0RkJAAAAAADAAPzfqy6uzs19baOTpKL0cnRBAgAAAAAAMAD/tyrzK3Jj74LBSVKR+ia6PAEAAAAAABiA/32VueW5vnPG2CSpiD2YAAAAAAAADMD/stllub5jS24NeoYmSUWsEx2S/gkAAAAAAGAA1tJc662P8bdrZJJU1J6JTkx/DwAAAAAAMACr2l2bm/s7BiZJRe7F6KL01wAAAAAAAAOwqourcnNf27gkqeh9El2Z/hwAAAAAAGAAVmVuRW7smTcsSSpD30SPRUem3wMAAAAAAAzAxt/lub5zxqgklSnNRKcmAAAAAADgVwzAmlma69s359agZ1CSVKaej85PAAAAAADALwzAxt9ab32Mv11jkqSy9VZUSQAAAAAAwA8MwKp21ubm/rYhSVIZ+zC6JgEAAAAAAMEA7N/fhVW5uc/4K6m0fR49noCDGgAAAABgAG7FAHxnDKB3H+zFv793x3giSWXtruiyBAAAAAAAAAAAAAAAAAAAAAAAAAAAAAAAAAAAAAAAAAAAAAAAAAAAAAAAAAAAAAAAAAAAAAAAAAAAAAAAAAAAAAAAAAAAAAAAAAAAAAAAAAAAAAAAAAAAAAAAAAAAAAAAAAAAAAAAAAAAAAAAAAAAAAAAAAAAAAAAAAAAAAAAAAAAAAAAAAAAAAAAAAAAAAAAAAAAAAAAAAAAAAAAAAAAAAAAAAAAAAAAAAAAAAAAAAAAAAAAAAAAAAAAAAAAAAAAAAAAAAAAAAAAAAAAAAAAAAAAAAAAAAAAAAAAAAAAAAAAAAAAAAAAAAAAAAAAAAAAAAAAAAAAAAAAAAAAAAAAAAAAAAAAAAAAAAAAAAAAAAAAAAAAAAAAAAAAAAAAAAAAAAAAAAAAAAAAAAAAAAAAAAAAAAAAAAAAAAAAAAAAAAAAAAAAAAAAAAAAAAAAAAAAAAAAAAAAAAAAAAAAAAAAAAAAAAAAAAAAAAAAAAAAAAAAAAAAAAAAAAAAAAAAAAAAAAAAAAAAAAAAAAAAAAAAAAAAAAAAAAAAAAAAAAAAAAAAAAAAAAAAAAAAAAAAAAAAAAAAAAAAAAAAAAAAAAAAAAAAAAAAAAAAAAAAAAAAAAAAAAAAAAAAAAAAAAAAAAAAAAAAAAAAAAAAAAAAAAAAAAAAAAAAAAAAAAAAAAAAAAAAAAAAAAAAAAAAAAAAAAAAAAAAAAAAAAAAAAAAAAAAAAAAAAAAAAAAAAAAAAAAAAAAAAAAAAAAAAAAAAAAAAAAAAAAAAAAAAAAAAAAAAAAAAAAAAAAAAAAAAAAAAAAAAAAAAAAAAAAAAAAAAAAAAAAAAAAAAAAAAAAAAAAAAAAAAAAAAAAAAAAAAAAAAAAAAAAAAAAAAAAAAAAAAAAAAAAAAAAAAAAAAAAAAAAAAAAAAAAAAAAAAAAAAAAAAAAAAAAAAAAAAAAAAAAAAAAAAAAAAAAAAAAAAAAAAAAAAAAAAAAAAAAAAAAAAAAAAAAAAAAAAAAAAAAAAAAAAAAAAAAAAAAAAAAAAAAAAAAAAAAAAAAAACU2rftwYEMAAAAwCB/63t8FQAAAAAAAAAAAAAAAAAAAAAAAAAAAAAAAAAAAAAAAAAAAAAAAAAAAAAAAAAAAAAAAAAAAAAAAAAAAAAAAAAAAAAAAAAAAAAAAAAAAAAAAAAAAAAAAAAAAAAAAAAAAAAAAAAAAAAAAAAAAAAAAAAAAAAAAAAAAAAAAAAAAAAAAAAAAAAAAAAAAAAAAAAAAAAAAAAAAAAAAAAAAAAAAAAAAAAAAAAAAAAAAAAAAAAAAAAAAAAAAAAAAAAAAAAAAAAAAAAAAAAAAAAAAAAAAAAAAAAAAAAAAAAAAAAAAAAAAAAAAAAAAAAAAAAAAAAAAAAAAAAAAAAAAAAAAAAAAAAAAAAAAAAAAAAAAAAAAAAAAAAAAAAAAAAAAAAAAAAAAAAAAAAAAAAAAAAAAAAAAAAAAAAAAAAAAAAAAAAAAAAAAAAAAAAAAAAAAAAAAAAAAAAAAAAAAAAAAAAAAAAAAAAAAAAAAAAAAAAAAAAAAAAAAAAAAAAAAAAAAAAAAAAAAAAAAAAAAAAAAAAAAAAAAAAAAAAAAAAAAAAAAAAAAAAAAAAAAAAAAAAAAAAAAAAAAAAAAAAAAAAAAAAAAAAAAAAAAAAAAAAAAAAAAAAAAAAAAAAAAAAAAAAAAAAAAAAAAAAAAAAAAAAAAAAAAAAAAAAAAAAAAAAAAAAAAAAAAAAAAAAAAAAAAAAAAAAAAAAAAAAAAAAAAAAAAAAAAAAAAAAAAAAAAAAAAAAAAAAAAAAAAAAAAAAAAAAAAAAAAAAAAAAAAAAAAAAAAAAAAAAAAAAAAAAAAAAAAAAAAAAAAAAAAAAAAAAAAAAAAAAAAAAAAAAAAAAAAAAAAAAAAAAAAAAAAAAAAAAAAAAAAAAAAAAAAAAAAAAAAAAAAAAAAAAAAAAAAAAAAAAAAAAAAAAAAAAAAAAAAAAAAAAAAAAAAAAAAAAAAPAWw3rtoFC0gJ0AAAAASUVORK5CYII=;" vertex="1" parent="1">
          <mxGeometry x="1460" y="390.5" width="260" height="119" as="geometry"/>
        </mxCell>
        <mxCell id="oFQstUxSCO1s48QNKXJ--39" value="" style="shape=image;verticalLabelPosition=bottom;labelBackgroundColor=#ffffff;verticalAlign=top;aspect=fixed;imageAspect=0;image=data:image/png,iVBORw0KGgoAAAANSUhEUgAAB4AAAANsCAYAAAC6a7UsAACRbUlEQVR42uzBgQAAAADDoPtTH2TVsgAAAAAAAAAAAAAAAAAAAAAAAAAAAAAAAAAAAAAAAAAAAAAAAAAAAAAAAAAAAAAAAAAAAAAAAAAAAAAAAAAAAAAAAAAAAAAAAAAAAAAAAAAAAAAAAAAAAAAAAAAAAAAAAAAAAAAAAAAAAAAAAAAAAAAAAAAAAAAAAAAAAAAAAAAAAAAAAAAAAAAAAAAAAAAAAAAAAAAAAAAAAAAAAAAAAAAAAAAAAAAAAAAAAAAAAAAAAAAAAAAAAAAAAAAAAAAAAAAAAAAAAAAAAAAAAAAAAAAAAAAAAAAAAAAAAAAAAAAAAAAAAAAAAAAAAAAAAAAAAAAAAAAAAAAAAAAAAAAAAAAAAAAAAAAAAAAAAAAAAAAAAAAAAAAAAAAAAAAAAAAAAAAAAAAAAAAAAAAAAAAAAAAAAAAAAAAAAAAAAAAAAAAAAAAAAAAAAAAAAAAAAAAAAAAAAAAAAAAAAAAAAAAAAAAAAAAAAAAAAAAAAAAAAAAAAAAAAAAAAAAAAAAAAAAAAAAAAAAAAAAAAAAAAAAAAAAAAAAAAAAAAAAAAAAAAAAAAAAAAAAAAAAAAAAAAAAAAAAAAAAAAAAAAAAAAAAAAAAAAAAAAAAAAAAAAAAAAAAAAAAAAAAAAAAAAAAAAAAAAAAAAAAAAAAAAAAAAAAAAAAAAAAAAAAAAAAAAAAAAAAAAAAAAAAAAAAAAAAAAAAAAAAAAAAAAAAAAAAAAAAAAAAAAAAAAAAAAAAAAAAAAAAAAAAAAAAAAAAAAAAAAAAAAAAAAAAAAAAAAAAAAAAAAAAAAAAAAAAAAAAAAAAAAAAAAAAAAAAAAAAAAAAAAAAAAAAAAAAAAAAAAAAAAAAAAAAAAAAAAAAAAAAAAAAAAAAAAAAAAAAAAAAAAAAAAAAAAAAAAAAAAAAAAAAAAAAAAAAAAAAAAAAAAAAAAAAAAAAAAAAAAAAAAAAAAAAAAAAAAAAAAAAAAAAAAAAAAAAAAAAAAAAAAAAAAAAAAAAAAAAAAAAAAAAAAAAAAAAAAAAAAAAAAAAAAAAAAAAAAAAAAAAAAAAAAAAAAAAAAAAAAAAAAAAAAAAAAAAAAAAAAAAAAAAAAAAAAAAAAAAAAAAAAAAAAAAAAAAAAAAAAAAAAAAAAAAAAAAAAAAAAAAAAAAAAAAAAAAAAAAAAAAAAAAAAAAAAAAAAAAAAAAAAAAAAAAAAAAAAAAAAAAAAAAAAAAAAAAAAAAAAAAAAAAAAAAAAAAAAAAAAAAAAAAAAAAAAAAAAAAAAAAAAAAAAAAAAAAAAAAAAAAAAAAAgLNnDzi7GFwYRc+H3zZq27YR1bZtx6lt27Zt27Zt622fWTTn3rWSPYoNAAAAAAAAAAAAAAAAAAAAAAAAAAAAAAAAAAAAAAAAAAAAAAAAAAAAAAAAAAAAAAAAAAAAAAAAAAAAAAAAAAAAAAAAAAAAAAAAAAAAAAAAAAAAAAAAAAAAAAAAAAAAAAAAAAAAAAAAAAAAAAAAAAAAAAAAAAAAAAAAAAAAAAAAAAAAvwQAAAAAAAAAAAAAAAAAAAAAAAAAAAAAAAAAAAAAAAAAAAAAAAAAAAAAAAAAAAAAAAAAAAAAAAAAAAAAAAAAAAAAAAAAAAAAAAAAAAAAAAAAAAAAAAAAAAAAAAAAAAAAAAAAAAAAAAAAAAAAAAAAAAAAAAAAAAAAAAAAAAAAAAAAAAAAAAAAAAAAAAAAAAAAAAAAAAAAAAAAAAAAAAAAAAAAAAAAAAAAAAAAAAAAAAAAAAAAAAAAAAAAAAAAAAAAAAAAAAAAAAAAAAAAAAAAAAAAAAAAAAAAAAAAAAAAAAAAAAAAAAAAAAAAAAAAAAAAAAAAAAAAAAAAAAAAAAAAAAAAAAAAAAAAAAAAAAAAAAAAAAAAAAAAAAAAAAAAAAAAAAAAAAAAAAAAAAAAAAAAAAAAAAAAAODdJfb/dfrTGJEk6Y9ppAAAAAAAgLF2AC+ZTkvnSpJad07aLf2tgLEWAAAAAGAAb5m+TD9Jklr3dlo3jVZbAAAAAACAASxJ+jRtk35XbQEAAAAAAAawJOmHdGz6U7UFAAAAAAAYwJKk79NlafxqDQAAAAAAMIAlSbenGdJQtQQAAAAAABjAkqRBejktnIarLQAAAAAAwACWJL2e1jB/ewMAAAAAAANYkvR52jn9udoCAAAAAAAMYEnSt+mw9McCAAAAAAAwgCWpbYN0XZqgAAAAAAAADGBJat3daYY0VAAAAAAAAAawJLVskF5Mi6ThAgAAAAAAMIAlqW3vpI3TrwoAAAAAAMAAlqS2fZF2SH8oAAAAAAAAA1iS2vZ9Ojn9rQAAAAAAAAxgSa0zfy9MkxQAAAAAAIABLEmtuy9NnYYKAAAAAADAAJaktr2ZFk/DBQAAAAAAYABLUtveThuk0QIAAAAAADCAJaltX6Xd0l8KAAAAAADAAJaktn2TTkp/LwAAAAAAAANYklp3ZZq8AAAAAAAADGBJatsgPZRmSEMFAAAAAABgAEtqm/n7UlqyAAAAAAAADGBJat0HabP0mwIAAAAAADCAJaltX6dd0u8LAAAAAADAAJaktn2Xzkr/LgAAAAAAAANYapv0Q7oyTV4AAAAAAAAGsCS1bZAeTTOmoQIAAAAAADCAJaltr6bl0kgBAAAAAAAYwJLUtvfT+unXBQAAAAAAYABLUtu+SfukPxQAAAAAAIABLElt+zadkf5dAAAAAAAABrAktW2QrkpTpKECAAAAAAAwgCWp7fx9Is2RhgsAAAAAAMAAlqS2vZSWLgAAAAAAAANYklr3adoi/b4AAAAAAAAMYElq29dpT/MXAAAAAAAwgCWpdz+ki9P/CwAAAAAAwACWpLYN0vVpigIAAAAAADCAJan1/H0izZaGCgAAAAAAwACWpLa9klZJowUAAAAAAGAAS1LbPkobpd8UAAAAAACAASxJbfsmHZL+UAAAAAAAAAawJLXtu3RG+n8BAAAAAAAYwJLUtkG6MU2RhgoAAAAAAMAAlqS28/eFtID5CwAAAAAAGMCS1LuX04rmLwAAAAAAYABLUu8+S9unPxYAAAAAAIABLElt+yIdYP4CAAAAAAAGsCT17sd0fpqgAAAAAAAADGBJat0taZI0VAAAAAAAAAawJLVskJ5J8xYAAAAAAIABLEmtezOtk0YLAAAAAADAAJaktn2etk6/KwAAAAAAAANYktr2bTo2/bUAAAAAAAAMYElq2/fpnDRhAQAAAAAAGMCS1LZBujNNXgAAAAAAAAawJLXuhbRoGioAAAAAAAADWJLa9npaMY0UAAAAAACAASxJbfsy7ZJ+XwAAAAAAAAawJLWev0ekv1RbAAAAAAAABrAkDdJFacJqDQAAAAAAwACWZP7em6ZJQ9UWAAAAAACAASzJ/H06LVatAQAAAAAAGMCS9F5aM/262gIAAAAAADCAJenLtGP6bbUFAAAAAABgAEvSt+nk9I9qCwAAAAAAwACWpB/ShWnCagsAAAAAAMAAlqQf031pqjRUYyLgZ/bsATj+w4vi6Iv/tm3btm3btm3bRm3btm3bZrK/3lG1qTM7fek5M5+xFl9eAAAAAAAMwJJuIh2UXpnGC2gLAAAAAAADsCSdkN6epgsAAAAAAKAtA7AkXZB+kmYKAAAAAACgNQOwJOPvP9IdCwAAAAAAoC0DsCQN0lrpAdUaAAAAAACAAViS8XeP9Pg0Vm0BAAAAAAAYgCXpgPTyulaAB973fjPpDumOI+5WtbAA55WZWlQAAAAADMCSdGr6QLpZXVtgqHlZWj1tNOK+XsBiPa+8MK054nPKhun5BQAAAMCiGYAl6az0res8/oKh5oPpjLRkxC1XwGI9r7wznT3ic8pcensBAAAAsCgGYEm6OP033aUAAzBgAAYAAABoywAsSYO0YbpXAQZgwAAMAAAA0JoBWJLxd8/02AIMwIABGAAAAIDWA7AkHZzelCYLMAADBuC2AAAAAAzAknRKel+arusOMADjvz+Vbj7ibpYmDcAG4CsCAAAAMABL0rnpF+kWdf0ABmD891+cfjDivpeebQA2AF8GAAAAwAAsSRelf6S71fUHGIDx3/9pWjLiLkpfNQAbgAEAAAAiDMCSNEjrpXvXEMAADAZgA3AnAAAAAAZgScbffdPTaj6AARgMwAbgNgAAAAAMwJJ0WHp5Gqv5AAZgMAAbgFsAAAAAMABL0lnpU+lmBRiAW8MAbAA2AAMAAAAYgCUZf3+WblmAAbgtDMAGYAMwAAAAgAFYkubSUumeBRiAwQDcgAF4fgAAAAAGYEkapM3S/dJYAQZgMAA3YACeHwAAAIABWJLxd/f01AIMwGAAbsQAPAwAAADAACxJR6Y3pMkCDMBgAG7CADwMAAAAwAAsSWekD6epAgzAYABuwgA8DAAAAMAALEnnpd+mWxdgAAYDcEMGYAAAAIAIA7AkXZz+m+5RgAEYDMBtGYABAAAADMCSNJs2Tw8owAAMBuDWDMAAAAAABmBJ2ju9MI0VYAAGA3BbBmAAAAAAA7AkHZFeliYLMACDAbgtAzAAAACAAViSzk1fSVMFGIDBANyWARgAAADAACxJ56Rfp1sXYAAGA3BbBmAAAAAAA7AkDdKy6d4FGIDBANyWARgAAADAACxJc2mr9JA0VoABGAzALRmAAQAAAAzAkjRIu6VnF2AABgNwawZgAAAAAAOwJB2X3pCmCjAAgwG4LQMwAAAAgAFYks5MX0jTBUQYgMEA3JABGAAAAMAALEkXpD+lO9QwwAAMBuAmDMAAAAAABmBJmksrp7vVMMAADAbgRgzAAAAAAAZgScbfbdODaxhgAAYDcCMGYAAAAAADsCTtk16axmsYYAAGA3ATBmAAAAAAA7AkHZNemyZrfoABGAzADRiAAQAAAAzAknRW+laaLmB0DMBgADYAAwAAALDAA7AknZ9+kW5XwGgZgMEAbAAGAAAAYAEHYEkapNXS3QoYPQMwGIANwAAAAAAs0AAsSXNp5/SYWniAARgMwCNkAAYAAAAwAEvSvukFaawWHmAABgPwiBiAAQAAAAzAknRKemeaLqABAzAYgOdnAAYAAAAwAEvSqenr6eYF9GEAxn//oekVI+5l6QF1I2UABgAAADAAS9JF6U/pTgU0ZACOAAzAAAAAAAZgSZpNa6a7FtCWARgwAAMAAAAYgCVpLm2fHl5AawZgwAAMAAAAYACWpP3Sy9JEAW0ZgAEDMAAAAIABWJJOSm/tPf4CBmDAAAwAAABgAJakc9MP0y0LaMsADBiAAQAAAAzAknRh+kO6UwFtGYABAzAAAACAAViSZtPa6Z4FtGUABgzAAAAAAAZgSRqkndKTC2jNAAwYgAEAAAAMwJJ0YHp2Gi+gLQMwYAAGAAAAMABL0hnpg2mygLYMwIABGAAAAMAALEmnp++kmxfQlgEYMAADAAAAGIAlaTb9Nd25gNYMwIABGAAAAMAALMn4u0G6bxoroCUDMGAABgAAADAAG74kDdIO6QkFtGYABgzAAAAAAAZg45ekw9PL02QBbRmAAQMwAAAAgAHYACzptPSBNF5ATwZgwAAMAAAAgAE4STon/TjdpoC2DMCAARgAAAAAA7Cki9M/0p0KaM0ADBiAAQAAADAAS8bf9dO9CzAAG4ABAzAAAABAawZgSTunZ6axAgzABmDAAAwAAADQlgFY0sHpeWmiAAOwARgwAAMAAAC0ZQCWdGb6TJoswABsAAYMwAAAAABtGYAlnZ1+kG7lDAgYgAEDMAAAAEBfBmBJg/S/dOcCMAADBmAAAACAtgzAkmbTpunBaawADMCAARgAAACgJQOwpEHaOT2lAAzAgAEYAAAAoDUDsKRj0qvTZAEYgAEDMAAAAEBbBmBJJ6WPp6kCMAADBmAAAACAtgzAks5PP0y3KwADMGAABgAAAGjLACxpkJZJty0AAzBgAAYAAABoywAsaTZtke5XAAZgwAAMAAAA0JoBWNKe6QVpvAAMwIABGAAAAKAlA7CkQToyvSJNFIABGDAAAwAAALRlAJZ0ZvpymikAAzBgAAYAAABoywAs6bz0/XSbAjAAAwZgAAAAgLYMwJIuTsulOxeAARgwAAMAAAC0ZQCWNJc2Tw8vAAMwYAAGAAAAaMsALGmQdk9PTmMFYAAGDMAAAAAAbRmAJZ2Q3pAmCsAADBiAF9t3OZYuYe8ugKO6Fz2O/5PgGryhXIgSJFAChFsIToS6e3sNue/W3V2ROtSFet+91fdoqXvx4u4anBBCdOX833c625nMPCDIJnt29/ed+Yxcv3vyZ5n95expjrbVaIkYo1Rk/9nSBG3Q9gg1OapzoZTOWBxaoG01GhilIv88xKAl2h6h1ogzSimllAbgIBCR3bgZ9Y1SSmkAVkqRBmDXf5DYCK3xJ3RGJk7DaNyCJzAZH2EavsAvmF2N6fgC0zAVL+IZ3I2rcDb6Ix0d0QZNEGuUqpmf9/poglZoh45IQldkYATOwGW4HjfgYUwOmILPMa2KHzELs4/QT1XOxQd4AU/hZozBGeiHNPwJrdFQo3GEpUG3KdohGd2Rg0txMybgeXyIafgK0zG7Gt9hWsD7mIxxuAlX4DT0QgpORAvUNzWb0s96IzRDG7RHJ6SiGzJxBs7GP3E9bsGTmIzn8N+YVsWXmIHZR2gmvsK0gDcxCY/iWlyGfGQgGQmIR12jlFJKaQAWkSoq8ThaGCKllNIArJTSAOyWoReIQwIG4ELciKfwAWZgIwpRjFKUwwMvHNjj4IUHFSjDARRhG+biE0zCjTgPvdECsRq/VLU/20As6iIBPTAIZ+OvuLHKmPtvfI45WIKdKMR+FKME5QGV8Ab4YIPIgRcelKMUxdiHDZiFDzER1+I0nITGiHH7uVCqyrlshwG4BLfhRXyGpdiF/SgJ4nuOH15UohwlKMZerMbPeBuPYjRGIhX1da7UMbzvtEAn9EUOLsC/cDuexCv4GN9jPtZiL/ahGAdQivKqZyDADxtEvipno6zK2SjEMnyDN3EPRmEYOqGuzoZSSqnoHYBFxIcP0M4opZQGYKVUSNMAHPhQMh5pGIjRmIwfsAwFKIYD6zJ+7McmzMdHuAN5SEfTqPwQUme4AVqiI7qgL07BGDyMV/EN5mIZNmAbilAOG+Z82IuNmIP3cT0GIRmNXXAulM5pPbRHb1yAcZiGpShAiQvfdyqxB6vxK17CP5CFDroTMqpH3iZoh1SchAG4EDfgSfwbv2IRVmIzdqEYXtgwV4EdWImfMRGXoxcS9NXSSimlomMAFhE/vkWaOURKKaUBWAVGm9Yu0NDFr1FjvSYagI/xQ8r6aIGuuAKPYyrWoAI2AvixHh/hPgxBG32FZ8R80F4PjRGPduiNs3AlxuNtfIF52IwK2BQpxzK8j1uRhXjUMao2f4broBVa17LGIT63DdAaf8bVeBUzUAQHNoyVYDZewN+QhqYR9ZgCndkGaIqWSMVwXIpbMRkf4EesRCH8sCmyB7/iGVyAFDTS2VBKKaUBWCQyLcNgxBmllNIArA5+TVviNSzHihCah1MQ69LX6UasqGVLMNqEXRqAAx9cpuJU3IsvsRaF8MFGsAoU4Afcg0FoZVQ43SV4IrpjGC7A7XgJX2IZNh3VnVTioBQbMBX/Qq9aGwj1M52O+VhRy24Kwf/XukjGmXgEP2ATiuHARhg/9mEF3sS5SA7LX7LQ3bzJ6I2R+CcexvuYibXYhr0oO6KfZfFhN5biWZyLjhqClVJKaQAWiRzbcS5ijFJKaQA+eLqeDXE9ymBDyIs30dzFr9VjsLXMg9uM69MAHPjQvS364BZ8gCUoh41yu/E9bkZ3NDEq1GeuPuJxIrrhVFyHSfhfzMaaGhuNxI+N+Bh/Raca/Spb/byfhBLYWjbO1HBVnnHaFVfiPSyK4veecizCcxiEVvr6dVecwVg0Rlt0RBYuxd14C19jMbagAlaCrgy/YSIGI15nI3xTSikNwCJSjNvR0CillAbgQ6frOQKrYUNsIfoYl6YBWANwNV8N3h83YBoKUAo/rABwUIqVeBz9NHjV+uCbhKG4FPdiCmaiAIUogQdWav3uxem4Bim6O0sD8FEMakm4DG9gFQ7ovQeAB1vwHk5HS6Nq+9y1QHechn9hIqZiMXahCGW1/jMrldiC13F6+D1qRimllAZgEanAOBzuLiqllNIArGuZjJ9d8MHLLlyCOOPeNABrAK76oXsbZOM2/IAC+GCPiPixGf9BPloYFayz1AQd0A2n4wZMwXQsx05UwrqOVGApHkSqvsJWA/AhvmmiI07FFCxDKawc1l58jwt012ONPDKgJZKRhcswHh9jHta69pnT4mAvPsLpaGVcn1JKKQ3AIuLBx2hnlFJKA/Dh01c/j4fjgiFoIhoYl6YBWANwYPRtiJNwMz7HPo2+Qfvw8V0MQj19MH9M5+cEXIG78CZmYBs88IXd3VXiwRzcjHa6Izi6B+Aqz0ftj/sw65jumhQH+/E+co/r7506T3XQF1fiaXyKpSiGF34NvmF5Nj7AMDQyrkwppZQGYBFx8BMyjVJKaQA+fPrg5hwUuGD8/RnJxoVpANYAzD8fh444H29hDcphJaj8WIeHkK4R+KjPTz72wAsrEaMEU5GnD+SjbwAODL8n4nS8jc1BeTaq+LEJDyLtmN5vdJ6a4g2UauiNyGfTj0ei+86GUkopDcAisgz9EWeUUkoD8KHTNczEQtgQW4Nc46I0AGsADtztG48BeApzNfrWGh/m46/6KsKjOj9DUQgrEWkXnkJi5N8NrAE48G0T3XE7ZqAMVoLOi99w3jH9goWeKf8mrEQkP6bjEjQxSimlNAC7gojsxeUaf6tJKaUBWNevGd5ywZ1i5bjDLR+6aQDWABy426oVzsYb2BiSZ6WKg114ESmIMaq68zMYe2AlYpXjfzAwMkdgDcCBr8DPwv1YWit3V4qDTbgVrY06mjM1GVYilh+7cK9+IU8ppTQAi0jo7cVtaGiUUkoDsDr8b+xfiWIX3OX3EVqaEKcBWAMwGiAdt+IH7IeVkPNhBs7QsxqrPT8DsBNWIpof6/EXNDNhnwbgwC8etcRAvI5NIXm2r5ThfaQg1qgjOVOTYCOelOND9IFuNlFKKQ3AIhICXjyDeKOUUhqAVfV3iS2HDbEl+LMJfRqANQA/ErAEFXBgxTUcbMY1aGzUoc5PN6yGlaiwDXehqVFhOQAHht9GyMV72AEfrISMD9PQDzGmunSmHoEHNuKJBzMxQCOwUkppAK5dIuLFJ+iAGKOUUhqA1aGvW3t85YIPGPfhUtTRAFwNDcC1oQheWHG1fXgU7Y062PnpilWwEjUO4CnEGxU2A3Bg+G2GfPwH2+HAiiv4MA+Dq70TWGfqZpTCSlRwsAAXoa5RSimlAbjGiYgf36ObUUopDcDq8NesER6F3wUfrE06hq9z1QCsAVikAm+jE2KMqnp+0rAMVqJKOSYhwShXD8CB4bcxzsB/owhWXGsh8g57t6PO1E1ROQDLNlyMekYppZQG4BojIg5WYxjijFJKaQBWh75esTgDm2FDyMFcdDHHlgZgDcAiFXgfaUZVPT/tMAtWok4xnkZzo1w5AKMeBuAZbIUPVlzNj7nINOpQZ2oM9sNK1FmFfP2ChFJKaQCuOSKyDZci1iillAZgVf2zIefBgQ2hDTjtOO/c0wCsAVjEgy+RYtQf56cNZsBKVCrFXWhmlNsG4A/wJArgwIYNcfAtUg/6d1edqfOxG1aijoNFGKazoZRSGoBFJPgO4C40NUoppQFYHf5aNcDz8MKGkBf3oJE5/jQAawAW8WIyWhhleB3i8TOsRK3t+IfuyHLdAFyBStiwJB68gNZGaQCWqnz4Bp2MUkopDcAiEjReTEJzo5RSGoDV4a9TPfwNRS74gOBznGCClwZgDcAi5RiHVsboq/7xOaxEtY3I0R1ZQR2ARfbjTtQ1quqZysE2WIlaXkxBgomslFJKzRh6+03Th95WBvuHqQOvLf/3gP8qOpgPs68s/nHILb4q/3oAs4beYVfnPGTX5T4CYEPuo/6NAZvzHvNvyRv3u4K88XYbtudPiMbhT8SLz5BglFJKA7A6/DWKQTaWwYbYEmSb4KcBWAOwSDFuRz2jP/enwkrU+xGJRgVzABbZihzEmj/SmeqLTbAS1Upwb4T9goRSSqlzu/a/Z3Bqz/KBqT3tH7JSuvl6Jad7DiYzuYtnQGqGU+VfD2AQRnTOtLmde/8ur3MfP//5+y/sml2Iwv/qkbvvppNOK7y11xlFE/te7H2+31/slJNH2U+zr7aMzs53g28q/2HIzWUMyeXzh99TsTLnQYcRORJHYpHpyEKMUUopDcCq+udBfgKvC+6aGI36JvhpANYALOJgM0YiLsr/3P8QesaoVGACmhgVrAFYxMHn6GD+SGeqjwbgANmC4Yg1kZFSSqkhaT3vS+uUVB7qN5nUTklO96TUsp5JnUv6p2SUDkvrVXZul/7OJd0G2TEZOfaaniM9d2aeVfRE30v2vX7yPw58NvBa+8uQ2+yi4fc6y0c84OXOYy93GTtb88bZHe4d/UQcrMRgxBmllNIArA5/fRrhDlTAhpAHL9bCc381AGsAFpmFk6L8z/5J8MJK1CvE+YgxKlgDsEgp7kc9Q0ZnKgVrYSHyNToapZRSGoBrdyBOdDonJvu6Jab6eiR19vdJ7mr7pXTjzuMevpHpfYsu7z64iDuLKyf0vdgyEDv/GfCv8q8G3VAyZ9idlau4k3iHO+4iFtmNMahjlFJKA7Cq/qufR2I9bIjNR09T82kA1gAsUoFX0DyK//x/Gh5YiXoOfkA7o4I5AIusQoYhozPVGitgIXIAN+uroJVSSgOwmznpicmVfGV1OV9v7TktvZ+9uNtA/z975BY92Pu8otdPHuX5dvBNlnHYu3j4vZ61OQ/7uXO4poc/kf24CY1M9SmllAZgXZs0TIffBc9KO7sWv5JVA7AGYJES/A2xUfrn/wRUwkKkAreggVHBHIBFnkYDozPVClUHYJH16G2UUkppAA4bga+Z5i5ip0tiiuXrpm3flK5lPKt4/9iMHO/dmWfbZ7Mur+DO4eKfh9zqZRS2jMLOtrzxwbh7WMSPF9DMVJ9SSmkA1nWph2ddMP568VAInvurAVgDsMhspEXpe8B1KIX9nfiPg40QS4L+1egagEW2YLDRmWqBGbC/Ewf+Y+RE0Pvu87oLWCmlNABHFF4H30lJnT0DUnv48zv3cS7oml1yR68zi/lKafvloOv9s4fdWcHzhn2Mwkcz/Il48QWSTfUppZQGYF2TurgIu2FDyIev0cHUZBqANQBLKYqwGxurWIWFB7EOG7EZe1ECBzbCVOIxNIrC94FrUBpRP9/ATmwMWI8lWFjFLPyEqr7Du3jtGLyN7zEDS7AJxXDC9DxMPo5fyNIALA6KUYit2BiwHAtR1VJsDNiKQpTCRhg/XkKzKD9TzfEZbATwYj+KsBebUfXvVYuwMGA+fjqIaZiC147S6/gIP2MuVmMnPLBhaDNO1jPolVIqKgZg6ZyY5OOZwyVndjnZc3XPfP/9vc8teav/6NJZQ++wK0Y84N+Q+4i/4P8PwyIOpqOXUUqpI0sDsK5Jfyx2ybPRhhj3pwFYA7Ab+VBWZdjdjLn4FK/hMdyAUTgPp2IEMqvojISDyEAmspCHczAG9+Et/Iwt2IeKMB+HC5Abhe8DY0M8cDnwoBwHsB97sBvbsAW/YTo+xTt4DY/iIVyHUfgHzsOpAUOQGdATf0JCwAloXEOvZ0P8CX1xNm7AW1iGIvjC6Dz8+SAfxmsAFj/KUYRdWI0f8TYm4Cb8HWdiJP6MzIAkJKCqjsgMOBkjcS5G4R68hM+wDrtRAh9sGNqOAVF+ppphKmwI+VCJUhRjH/ZgJwqwBrPwI97HO5iEh3AfxuIfuAKn41TkIQuZAeloj4SA1oipgdczFvHogiH4Kx7FFyhAKRxYl3PwPJobpZRSGoCjDV8lzd3C6b7s1B7OKel9S6/qmV8yqd8VzifZV3lmDr2jYk3Ow47GT2j83Yx8xBmllKo+DcC6HvF4Dx4XPH/zGjTQABwMGoCjgA87sAhf43Xcg8swGKnogDaIRyPUCeJrHoMGaIEEdMP5eASfYS28Yfq6vokGUfZecCb218JruxcbsRwz8SM+xbt4Eg/gSvwd+RiCzkhGB7RHG7REPBoGxLn89a2DFkjFJXgTS8PgjDh4APU1AGsARhnW4xe8iwdwOQYgEQlogcZBfr+pj+ZoixQMwXWYglkohBNmd4w+jTpRfKaa4J1a+pndjdVYhF/wJT7Eq5iA2zAWFyEX/ZCCRJyIBLQMaIqGaIAYF7++MWiEtsjCzZiGnfDDuthGDDJKKaU0AAPC84U9jMKVZ3fp71zNKPxM1mVlXw+60Vkw/B4vzxX2b9fzhKPJNoxGHaOUUtWnAVjXoiFuQBlsCHnwphu/Dk8DsAZgF3BwAFuxCB/gLpyHfkhGM5ddj8bIwGV4G6tRDhsm9uA0xEbR+8Fpx/De7KAc+7ADm7AaczEVr2IcbsAlOAXZ6IXOSEAr1InSRy+kYjS+xD6XPwu4q4mmNAA7KMN2zMc7uA456Im2iHXBdYlFewzGVfgC2+CFdbnV6BbFZ6oRnjnG8bwEe1CA9ViGn/AxnsWdGIuzMAL90Q3JaIPGiInSu64H4jEsd/Hfyzx4Qc8CVkopDcByELyuTrfEFCczOd0/NK1XyT975FY8lXWZ82H2lWWLht/r26ExOJKV4m40M0eWUkppANa1GIFVsCE2H32NS9IArAHYBRzsxgy8jGswCAloinqICYPrEoemyMC9mANPmLz+76NlNL0fHGaELMNWLMYv+BRv4Wncjr/hdPRBR7RAMzRGA9RFrFGHujO4LUZjnkuHq1LcGBWDiQZgD5bjPdyCPCSgCeqGwS9VtEI+JmEj/C5/ra9EXQ3A/48fu7ERc/ANPsDzeAQ34GIMRwbaIB5N0Qj1UEfPkT3st7dkYiJ2wLrQCnQxSimlNABXT1L5ACMjKc3DIOxc0DW74sHe55V8mn215Wujf79DWKNwRPDgNcSbI0sppTQA6zp0wvcu+HBsNy5AHQ3AwacBOGx4sA1z8AouRg+0R90IuUZx6IgxmBkG12sHRkbZe8JrAffhKlyIAeiNrkjECWiOBkYF+07GJNyOLS4crn7ECSbS0gBchg34Bg9iGJLROMyvV330wANYCQ+sC32LhCg9U/XwF7yFJ3AX/obTkYUMpKMDWqMJYk3QUoEheBj+14V/vnkxBnWMUkopDcDHRqNwr+T0ssu6Dfbek3mO593+Y0vnD7/Hbsh91CnIG69BNbx48T840Rx5SimlAVhf/fyECz5g9mE84kwUpAFYA3AVPpRgHd7BVRiIJlFyFk7AGCyDx8XX6P0QXBOlIXg4vnbZ3cAVyDPhngZgL/ZjBV7A5chA3Qi+dl3xGLbBceHjBs4ySoX2jMTjBmxx2Rn5Eq2NUkopDcByfLgWfsZgH3cIO3/tPqxkUtbl3s8HXeddPPw+7zaNweFgLrIQY5RSqvo0AOv1j8N52AYbQn78hGQTJWkA1gCMMizG2/g7MtASsVH6DNQ+eBH7YV1oM7L0NZIqBO/TqXgb5bAu4GCyCdc0ABdiFl7FOUhDsyi6fk1wFmbC47JB/jnd5eiSdDfwRVjgohF4K0YYpZRSGoAl+LolpnpGdu7r5RnClc/2u7xs+tDbnJU5D/q25o3T4OoeDtZiuMZfpdRRpAFYr38mFsKG2FrkRPiwogFYA7APRViMF3AeklHHqKrPAfw71sAP6zIPoZ5RqvbPRks84aJfkFiMEzUAhwUf9uI3TEQuTkBclJ+pNDznsr8vLESScUdKv3yUiV/ggw2xSozTV38rpZQGYKlBqZ2SnO5Jqf6TUzK8F3UdWDqx78W+T7KvLl8x4gG/BtiQ24trUc+4P6WU0gDsnjsgXoMXNoTKcRsamshMA7AGYD/W4x2MQjKa6kOsw94NfBpmwrrMbHQwSoXmbLTBM6iADbF9OF0DsKs5WIcpuBQd0QgxxpDOUwzaYCIKYV2gFPkuukZKjyHIxhw4Lnn+fDujlFJKA3Dt0bODeySlebg72H9lj7zSN08e7Zs97E7futyH/TvyJ2iUrT1luBNNjTtSSikNwO5/3ethDIphQ8iLD9DKRFYagDUAl2EDPsHl6I5G5mjSh449MQ2VsC5RhFH6cD7E6U7g51HqgnHxITTQAOwqfuzB1xiD7tVeI52pprgKe2Bd4CnUN0q55+9jvTHPJV9f388opZTSABwaujs4PTHZDkjNKB+TkeN9Nuvyil+H3ubdmPuosy1PY3ANqsSbaGncn1JKaQB2zx0PQ7ASNsTmo6+JjDQAawD2Yhem4RpkotFx3emru7PS8AF8sC7xAZobpUJ3NpLwkQvuyPoB7TUAu4IPu/AKzkW83nuO+hcjH3DJc7bnIcG4K6UR+EzshA2xaxBjlFJKaQAOLemSmOLLTu3hv6BrdjljsOe7wTd51+RwZ7AG22Dy4XOkG6WU0gB85DQAJ+ALFwwq+3AF6prwTwOwBmAHryILbYP6wbtG4C74CQ6sC2xFL6NUaD+M74dVsCG0E/00AIeUH+vwPIah6XGNI/qK9TfggQ2h7cgzSrnrfDTEOJTBhtB/EGeUUkppABZXcXomda68uNsg7wO9zyv7dvBNvtU5D/kL8sZrxD0+c5GBGOOOlFJKA7D7X+/GeMAFX6nqwTMR9NxfDcAagP24xNRIKjB2LaqREfj/2LsH6Lz2bQ3js21Uu9sImuwmqW0F27Zt27Zt27Zt26m7bXxe973HPiec/648vzGeYSad1ZtvrcaXDeSOwAi8t/MQ+avajQHYpYR6R52iRrTYIMJdlalHnf+sSatjAvyegvtYRt2nIsfe4xPyABA0BmA+GVySHVtald2ocvJv+mRw5vEp+yY/rz0ux5jb6L5Qq6qOBgDhYAAO/5N0q6nZAbw38EVVYeFjAA4DAzB/VuSpjdQXKgqgB1ShAb53sZx61Pmxw1eojgzAbVZWvadOUlWqq7UkbqqTWiOA9wHfo/oZwsN9rKV+cLyNL9QMAwCEjwGYyvQfwKNLK1N6THT61FEbJZ6Zun/2E30yeGH9f3lnMC1UO6kC+98BAAMwA/Ag9WoAn6BrUCuqjhY+BuBwMADz50WROlglVOTcHDXK/IFPAa+tvnW8hefabKhiAP5BHagqVJ6hNR91e6Hzo6AXqMEGhHcfPdSdKuv4Cfm9eNQ9ADAA06L3zuA/jMHbVM9MXjZu68Qr0w9JL/hXj4im39VRqrsBQPgYgMP5OndRF6isihxLqkNVkYWPATg8DMDczdLq8QB+L0uobVRHA3xvoqfzp4BnqeEMwG1SgxpkbYG7Gu38ju2UWteAMO9jPfWd431cqLobAGDRHICJKpcvy0wdODSzy5D6X26csGPmrRmHZ/hU8B9KqWtVPwOA8DEAh/M1zlebqe9U5FhG3aMWMzAAMwCj6Y+yX1nNU5FzV6peBvjfxDYq4/iDXWuoDgzArd7nqtzQVj84ebTjXWXV6RYmcB9LqPtV5NRTaikDACz6AzCRfm1kastHJg8dvmbqvkl7pD+tOTbXTj8ZnFV3qVIDgMZhAGYAnqTeU5Fzb6mxBgZgBuDm4Xa6qVMC+BTwR2qgAf43Uer85/yeKt/ihQGYuxqhGhzv6glVYGECrx/YRnn9X/48noYAAAzAFLPKly/JjimtzG1aNfX3i8dumX5p+sHp+e1nCM6p99Q41dHCAQAMwOF/ffup21RaRY79qLZThQYGYAZgNP8TjyNVQwC/r61vYQDvx77C8YciLlDdLF4YgLmrfHWD4119oEosTOA+BqnPnG7jZ7WiAQAYgCmelS1XnJ0ycGh6tyEr/n7bxJ0zH9YcnY35GNygVrewAAADcPhf267qYJXwf+9vrP5zmAHYHwMw95OnznT+4Za0Ol91MMD/JjZS3zrdwoOqj8UPAzB3tbr62emuvmXkQuCfAr7d6TZ+V7sbAIABmGL/eOjc8JKKzMaVUxLnjtks9er0QzJfxO9dwT+oPVVnA4DGYQBmAK5Tn6nIuVdVtYEBuGUxAHND49QcFTn2pOptYQCPgf7A8XHoS1n8MABzV8upF53uKqd2VZ0sTOA+dlU5px/AO90AAAzA1L4eET1t4LD07vpUsN4VnPm45phsDMbghDpSdbPwAAADcPj/EfxsAO/InKtW5T+vGIAZgNFKTzk42/n3udlquAH+99BDXe/4Z/0Yix8GYO6qQB2nMk63dZ7qbmEC9zFKfef0wxF3WbsEAAzAxOOho+rigZlNKqckz9Gngt+acXh2Xt2JuUV0/L1B9bfwAQADcHijyFkqpyLHMuoIVWBgAG4dDMDcUY1aqCKnUmp91dEA//eV7ub0Z//Xam2LJwZgbqtWfaEihx5TS1iYwG0srV5yuo2neb1QOweAAZioqrgsu2L5qNQxI9dNPjV1v/TcuhMXlfE3px5UlRYeAGAADv+9mBurrwIYfx9WyxgYgFsPAzB31F09piLHjlRFBvjfQ73T+0p/UrtYPDEAc1eLq9dV5NAcVWFhArfRRV3rdBtvqKXNAADCAEw0prQyuePguvRNE3ZKf1hzdG5B3Ukhj79vqBGqozUOADAAMwCPVO+qyLn31RQDA3DrYgDmjjqqnZ2feHC36mWA/z1UqU8cbiChjrb4YgDm0/UXqMih79RKFi5wHwerhNPvh0PtzwAADMBE+nWWG1GyQnaLqunJy8dtk35/5lHZL8IbgOepdVUnCwsAMACH/7Xsqa5VaRU59ovahU/EMQC3EQZgbmmE+lJFTn2kSgzwv4W+6hmn9zFeaPHFAMwPGm3i+HfqPSxc4D42c3oP8Jdqsv0rAAAGYKIVli/NrloxJn3KqA2TL047KJT3BH+ndlaFFhYAYAAO/+tYpPZUv6rIsZS6mk/DMQAzAKONf/jlLsdPAX+pVjPA/xY6qdudbuF6VWjxxADMbQ13+kGjtDrXwgVuY5ya43AbP6p6+88AAAzAxBBckptSNiR13Mj1kk9M3Tc13+/R0Gl1qupijQcADMAMwNPVRypy7hUex8UA3MYYgLmlDupA9avjJ7T2sTCAezhHpRzu4B7V0+KJAZi7WkI9qyKH7g34hyvAbSzr9G/QnNrQ/hcAAAZgovLli7MTyqrT+w9bLXn/5D0yDbXHt+UnglPqVrWkhQcAGIDD/xourR5RWRU59rVaV+UZGIDbFgMw9zRezVGRQzl1sepkgP8t7O30wxCPqf4WXwzAfLr+MqdP17+klrRwgaewPKMihzZTHawxAAAMwETVxQPTOwyuTd87affUJzXH5BbWn9ya429OPaDKLTwAwAAc/tevmzopgPE3pY5X+QYG4LbHAMw99VEPq8ipJ9UAA8L4/e8nhxt4TS1r8cUAzG3toX52+r4PtjCBu+iu7lCRQ/uqAmssAAADMJF+TebGlFZmt6yanrh94i7pT2uOzbXS+PuxmqQ6WlgAgAE4/K9dR7Wemq8ix7LqKVVqYABmAIbfe9CPVJFTHzPMBIJbWFl9zwDc4hiAua169YXD9/07NdnCBO6iszpXRQ4dwuPRmw0AGICJhhSXpzeqnJy6YcKO6Y9qjs5+0XKfCG5Q66oOBgCNxwDMAFyt3lQ5FTkPH9N5BBcDsDMGYN4DvJr6TUUO/a7GG/xxC6PVNw430KAGWXwxAHNbxY7vOl2Lv2cj4B/AO0VFDh2migwA0FwMwERl+kTwsJKKzDbVM5K3Ttw5Nbv2hOaOvz+q3VRXA4DwMQCH93Xrqi5WGRU5llB7qkIDA7AwAMP5h2I+VZFT66gOBl/cQYX60uHX/wI1xOKLAZjb6qseUJFDu/GalUBxF/lqX6e7OEt1s5YEAGAAJhpaXJHZvGpa4sYJO2Y+1juCv2j8+JtUp6guBgDhYwAO72tWqLZXP6rIsbS6RfUzMACHgQGY99A9qiKnjlAdDb64g3IG4FbBAMxtdVNnqcihU1RnQ3i4izy1q9NdXKp6WmsAADAAEw1avjSjITh17fjtk59oCP4fHw2dVDeq/gYAYABu2mNOp6pPVOTcK2qkgQE4HAzA3NV5Kq0ih65WnQz+eEztBwzArYIBmKFrRxU5dL3qbm0HYAAGADAAE5XpfSzDSyqyW1ZNT9w9abdMQ+3xuf8yAD+pqnjvLwAwADfx6zVA3R3Ao5+/VxvxODoG4MAwAHNXO7oMM0o9rQoMvriBZdRLDMCtggGY+1pNefz/5ROqtyFMDMA7MwADQOwxABPpHcGZbatnpu6ZtHv605pjs/8w/ObUe2qS6mgAAAbgpj167kiVCOC9v6erIgMDcFgYgLmrseprFTn0vlrKAAbgOGMA5s+Y+Q7f+4/U4gaE+XSqtRmA2wUAYAAm0q/l3JjSyuyeQ1ZKPDl1v/SCupP+PAAvUFuoPAMAMAA37R/Xa6g5KnLuGTXIwAAcJgZgHn/7roocms1j8cEAHHsMwLxj+32H732DGmwIE3exEgNwewMADMBEuQll1ekDhq2eeqr24N8/WvO0fTX+djEAAANw075OFeollVORYw2qVnU0MACHhwGYu+qnblWRQ9+qNQxgAI4rBmDuq696zum+avgO4P/Yu8vwKM+87+NncLf6tuwmZJKgxSIzCaFbp17q7u7urnSpAk1wbwIEgtfp3t2679a9lHqLayCZ63x+x3PMi9xSAzL/a4bv9zg+z3Pf7/Y+r85S8sucV4hiACYiIgZgIDc7J4iefOKqvz82akRs1ri+0tgRERED8J87o5ZSJnHxZhLjoTR1xAAczhiA+Vy1kqHiDWyQsxwRA3A6xwDMdbcLxCfZUjnGhSQiBmAiImIABrK6+O6HDAryH73XF1WUbYpWln8WnT76yuLq8VnFcyc3ckRExAD8++fTVE6VZeIN1ck82ckRA3C4YwDmh/MXSJ3FDUByAzckEANwWscAzGdslNSKT6I1cqkjCkcMwERExAAMdN2zNJ4/7O6g6LFHvSSU1UYrR74ZqxpzcaxqbMffGYKJiBiAGYAHyCfijf1Hoo4YgMMfAzCfrYNlhXgDw6W1I2IATtcYgPmM3S414pOoRm529hExABMREQMwkNtn93i/u64LiqaOSAy//0NF2arotFEzo1VjDiiZP7WFM4iIiAE49GfTUaZLnXhDq+UMaeaIATj8MQDz2cqXJeINVEonR8QAnK4xAPMZu1DWGdwwMczZRsQATEREDMBATu/dgz7XXBQUTRlef/T9tSF4qa6FHqchuLB4zsRmLrQRETEAG7zH8hpZL95QjZRLG0cMwKkRAzCfrV3lA/EGnpddHREDcLrGAMxn7HBZLT7JxkkTZxMRAzARETEAA5FITrD7+acFhRMeToy8f0htUWX5F9EZej/w7Ik7OeeIiBiAGYD3l6/EG3tZejpiAE6RGIAp8e701wyvy89yRAzA6RoDMJ+xmNFrBqqlrUt+RAzARETEAAxEsrODHsccHi8c92Bi2P2TKspqotNGvqR3Ax8XmzW+nSMiso8B2OZMMuV5iYs39L0cLI0dMQCnUAzApGcxQ7yBn6W7I2IATtcYgPmMdZWfxCfZQunokhwRAzARETEAA5lZvvuhBwQF5ffVH3U3dwjeoCH4MQ3BAzUEN3dERGYxABucR2t5OATj7ya5mfGXATgVYwAmPYsHJTB6Z3rUETEAp2sMwHzGsuR98Un2uuzmkhsRAzARETEAA3kDYkH+Q3f4oqkjtnwAFqmLVpYv1vuBb4zNHJfpkh4REQOwwVk0kePlB/GG4vKkdHbEAJyCMQCTnsWVRgPwWjnEETEAp2UMwGT4GXtTOrskRcQATEREDMBAZqbP7dc33u+u64LEcLt1VZTVagh+PTZjzCn6RnC74rmTMxwRpWsMwAzA+fKheGPvScwRA3CKxgBMehbHGA3A6+VMR8QAnK4xAPMZ21HmGz3/PJeciBiAiYiIARjI6d4t3vvy8+JFk4cnRtsGEWgIXqZroR/Vt4HzXYNHRMQAbHAObWSi1Ik3tE4uluaOGIBTNAZg0rMoNbpKv0aucEQMwOkaAzCfse2N3jP/He+YT1LEAExERAzAQCQnx+9+wRlB4cRHvEbaZIjr28Bf6lroK/Vt4N30v2e4lI6IiAE4cQYt5CJZE4L3/k7mL9IMwKkeAzDpWfQ1Gmg2yX2OiAE4XWMA5jPWRoaLT7Ll0tsRNWwMwERExAAMRCIR3+OYw4PCcQ8mxtlkKtsQrRy5KDpjzKBo1ZhmLmUjImIA1n+ODNlPPhdvKJCXpKcjBuAUjwGY9Cy6yhLxSVYn5Y6IAThdYwDmM9ZKHjD6d/WoI2rAGICJiIgBGMjMCroftH88f8Q9iff+Gqko+zY6bdSdGoJzXIpGRMQAnLmrPCNx8YZ+kcOksSMG4BSPAZj0LLLkPfFJFpcZjogBOF1jAOYz1lRuEm+AAZgaLAZgIiJiAAYyM31eSawu/+E7EuOvubqiyvK3otNHDY7NGN3epUxERAzA+s/QVu6WjeIN1ci9vPeXAThdYgAmPYtd5AXxBp52RHbDVLa8yQDMANyg8Vm7RLyBPR1ReD4HjaS5HMYATEREDMBIC7l9evu+t1zpi6aOqD/CWgv0beDvo9NGDteV0JFY9YQMR0QU6hiAE1c/Hy3fiDcUyCLp4ogBOE1iACY9i44yV7yB56SZI2qYf7Zbys4Skb6ylxwkJ8rlMlR+YABmAKa0HIBPcETJH3k7yF+khxTJvnKEnCY3ymMpPwATEREDMJDTs0fQ56oLgqLJwxPDa+gE///bwDNGnxKtGtveERGFOQbgXvKeBOINfSKlkuGIAThNYgCmxA0L08UbeF12cES//89pM2kj28sukiV50kcGyQlyldwtY2SB/Je8IR/IV7Is6WMkAzADMJ/dU8Ti55gnS4Yj2vxfQG4p7WVH+atkS3cplsFyjtwgw2WKPC0vydvymXwrK+xusGIAJiJiAAYaQCQ7Eu911kl1hZMe+f0h1v7bwCv0beDy2MyxXfSN4AxHRGQfA3DiL90JbWS0xMUb2iiXSVNHDMBpFANwIoa10eINvCE7ObLP5s/4RgmNpYm0ks7SR/aQI+R0uVLukpEyS56R/8g3skrWyDqpkU1SJ94eAzADMOk5HCmrGYDJsv/5Z05CE9lOutT7tu4xcqFcKw/IeJkvr8pHslRWy1pZLzVSa/93VQZgIiIGYCAJIl2yfY8jDo4XjLk/MbKmhNpoZfmrejfwEbGZ41q5rRoREQNw4n1H7aS97CCdE7KkZ0JfKU7YW06UU+VeWSHeUK1UyfaOGIDTLAbgRHzGHhRv4H2u1U/rXyxoJztLpnSXfhKTo+U8uU0elenyorwtH8li+V5WyHqDG0AYgBmAUz8G4LO3uQGYgbeVdJLdJCI9JVrv75ZXyZ0yURbIa/KufCLfyE+ySjaJDzEGYCIiBmDAQGaW737IAb6gbEhiWE0xFWWrNAI/HKsam1k8d3IjR0TEAOwTZsoOsqPsLL2kSGJysBwrx8n5cl3CUCmXkTJV5so8eVbeTHhPvktYHuIf8L4qfRwxAKdbDMCUKPHtylrxSfa59HIU6hLflGomraStdJTt5S/SX/aUY+Ti/3Ed5hz5l/xblsgKCcRvGxiAGYBJz+Fwo7+/3MEAnNJjblNpLq2lvXSUHSVbYnKonCRXyxAZJTPkSXlNPpbvt9KYywBMREQMwGD8zYsWBv2H3hoUTR2RmgOwaATeEK0cuUhXQu+rEbiJIyJiAPbyvfxbPpFPZbF8k/CTLE1YJesTasWngWVyPFc/MwCnawzAifiMXSHrGIC33RI/bN9eOkt3icrfZbCcKdfIAzJRnpDX5VP5Wr6XpbK6/jd2wQDMAEx6DiXyPQPw/xEjb2vZUSKyuwyQ/eRouVhulHKZIc/K+/KFfCM/y3JZx8jLAExExAAMNLDc/H51/W67Op4YUlNfZfn30RmjbyquntDZbasREQMwNsgj0sIRA3CaxgCciM/YpUYD8LdS6Boynm0jaVNv3M2TveVUuVoekkpZKC/KW/Kp/Mi/c2wpBmAGYErcGvQtA/A29wqA9vVeAdBXDpFz5HYpl2p5Rl6W9+RLWSrrxYMBmIiIARgIiUjXrkHvK8+PF04alhhQ00RF2RpdCV0dmzW++4CFlY3cthYRMQDjeclzxACcrjEAU6LED2VXGd2ysLfb2jH4bif5Mlgulodklrwu38uyet/W3bQF39gFAzADMDEA84ybS7YMlBPlRhktT8v78ouskDWyIUVuimIAJiIiBmAgkh3xvc46ySfG33QU6NvA7+tK6IuL50xq47aViIgBGItlT2nkiAE4jWMATsRn7Aj5RXySLZd93ObGc2shu0pvOU7ulSflHVkiqyUufisAAzADMDEA8wtGHSQiA+QCGS0vyifyo9SIT3EMwERExAAMRLpkBz0GHxQvHPuAwTBr8G7gGaPLimdPzNEQzBiQ3hExAKNGruKHRlYxADMAG8Rn7HD5OfQDMO9LbC4dJSrnyEh5SZZKHWNvWDEAMwAbxAA8RDLclsSzaywtpbMcILdLtXwsGyTODRIMwOkZEREDMBB023evuvxhdwcGg6zVCLxRV0L/V2zmuP10JXRTl44REQMw6mSO7OyooWMAZgAmBuBVMsj9VjybJvI32V/ulefqfbs3EI+wYgBmACY9hz6yWHySTeYmn83+ZaP20kdOlYnygfwom8SnMwZgIiJiAAYys3xecVHQ/4HbgqKpI2xHWQPRyvIfY1Vjr9I3gXcZ+NycDJdOEREDMP4j+Y4MYwBmADaIz9je8r34JAvkOPc/43m0lL/JkTJK3pJ14lMJGIAZgEnPYTf5SHySVTAA/+mrnXeX62WhfM2tEgzA22BERAzAQG7fPkHfGy/z9uOvoYqylbGqMZXFcyflDnhiOiNwekTEAIzVcro0c2QYAzADsEF8xvrJYvEGTnCJHM+htewht8pbslRqxaMBMAAzABMDMN/23UWOk0nypazjdgkG4G00IiIGYCCnW7d4n6suiBdNHmY/wtqPwEF02qjXYtUTjiyZP7WlS+WIiAEYG6RMWjuyjwGYAdgiruj8igHY7B2LmXKyPCk/8cP3BsQAzABMDMCMvm2lQO6X17lhggGYiIgYgD0Qyc4Oep12fB3jb4JIoCuhf4rNHHtDyYKKDi5VIyIGYLxj/8NYYgBmACYG4G1s+I3I5fKyrGX4bUAMwAzAxADM8Ntc9pRR8jU3TDAAExERAzAg0iXb9zjikKBg1FBG3/9LRdna2IwxE4pnT+ydku8FJiIGYHwlezkyiAGYAZgYgLfJb/xeK+8Jf79vSAzADMDEAMwzaCV7yhj5VuKiMwIDMBERMQADmVm+2wH7BgVlQxh6f1s8On3U+7FZ4w8qmTullUuliIgBGHFZINs7so8BmAGYGIDT74wbyc5ymbwpdeLTFBiAGYCJAdj+7JtLTMpkqQTiwQBMREQMwICI5Ob3i/e/98agaOoIRt7fp/cCj/wiNnPclcVzJrV1qRQRMQBjrZwpTR0ZxADMAEwMwGn9Q/j9ZZas5ofwaY4BmAGYGIDtr3veUS6Xj2SjeCQwABMREQMwIJLbr0+8702XM/7+WRVl66IzRo+LVY/vXDJ/aiOXKhERAzDekwJHyYoBmAGYGIBPlYw0/tZvpgyRnxh+0xwDMAMwMQDbn3cLOVie4hUDYAAmImIABn5VJC/P977k7KBw4iMMups3Am+KThu1oLh6QtSlSkTEAIxNMkbaODKKAZgB2CA+Y7nyuXgD10vzNH3X797yND+EBwMwA7BNDMDb2FlvL5fKEt7zCwZgIiIGYOBXRXJygl6nHcf4u+XiuhL609jMscfq28AtXSpERAzAWCNHOjKKAZgB2CA+Y53kA/EGbpTmaXaeO8jFslgC8WkMDMAMwMQAbH/bRG+Z9dv/TgcGYCIiYgAGsroEPY48NF4w+n4G3K0kWlm+QldC3xmrnrCDS4WIiAEYr0mWIwZggxiADeIz1pEBeKu9d7GzTDAYvWCAAZgBmBiAjc+3mRwgb4sHGICJiBiAgd/Ude896vJH3MNw2xDvBZ4+emxx9fhsR0TEABx2NXKrtHLEAJwaMQATA7D9+NtdHpMa8WkMDMAMwMQAbH+2TeUU+Zgrn8EATETEAAz8tswsnxctDPrfd3PDjaCMwHV6L/DLsaoxpcVzJjVxREQMwGH2nRwgGY4YgJMQAzAZX1n8IQPwFo2/BfKa1JmcI+pkvayWZfKjfCOfy1vyhEyQYXKNnCnnyWcMwAzAxACcgufaWs6Un8SbwCZZJyvlF/lOFstH8k+ZIyPlXrlCjpd7GICJiMhkAAZye+8e9L3+0qBoyoiGHUER15XQ78eqxg4unj2xuSMiCusAjLjMk+0cMQCnaQzAifiM9ZIvGYA3e/ztKouS8g0sRt6l8rX8W56XBTJFRsjNcpEcL/tIf/mL7CTbSTtpI82ksXSW1xiAGYCJATgFv/l7piwR36CwQX6QD+UNeVpmy3i5T66XM2SwFEtX2UV2kE7SVlpJM8mQAxiAiYgo6QMwEMnLC3pfcV68cNKwZI2gqCj7Tt8EvkVXQrdzRERhHYCxXi6xHCeIAZgBOAnxGesjX4k3cJE0SfGze45v/m7WmLtWlsr38qV8JP+WZ6RCHpCb5RwZLAOlv/SUTNlJ2kljtxkxADMAEwNwCp5nczmDb/5u9pi7Wn6SJfKZvCdvyjwZJ/fJ5XKy7CPF0kdypLN0ktabe0MUAzARESV9AAYikYjvedIxvnDiI8kfQRmB1xdXT/hH6VMzOjkiorAOwPhQoo4YgBsiBmBiAD4hhc9tV5klm8RvwwKJS61slJp61zF/Ie/IIqmUUXKXXCtnyWGyp/SSztJKWkgzaSpNpNHm/rCdAZgBmBiA0+gsG8tg+Vr8Ni4utbJJamSDrJef5RN5WR6XifKI3CYXyCkySAolTzpJS2kuzaSJNG6Af3YYgImIyGAABrK6+O6HHxQvKBtiMIAiOm2kH/DE9DUDn5szSv7qiIjCOABjk0yVDo4YgA1iACYG4FCeWUcZKhvFbwNqZaV8J1/Kf+RV+afMkDFyi1wox8ge0ltyJVN2kQ7S2mKUYQBmACYG4DQ4y37yHwm2oZuYlsnX8qm8Iy/KMzJR7pfr5TQZLAXSQyKym+wo7aSFZDiDGICJiMhuAAYys3y3vfeIa/wNkj9+Qu8B9iULKryGXy9xmS/dpbEjIgrbAIy1coo0dsQAbBsDMDEA259XM7lMlqfJNczL5Sf5Wt6Up2SKPCK3yFlyvBwgMektu0l7yXAhjwGYAZgYgNPgHHeShWlwW8RGWV3v+v+P5XmZI+PkTrlaTpUjZF/pL11lZ2nh7GMAJiKi8A/AQG7/vkG/u6+3GH9RUeaL503xAxdVew2+PqFW/ikDpZEjIto2B+C18nM9P4To21UvShdHDMB2MQATA7D9WWVIvnwiQQr+8H2FvCePyyi5Qo6SYsmUXWVH6Sht7L85xQBsHAMwMQDbn2FLuU7Wp+jtEd/Ky1Il98k5coD0lr/KLrK9tJeW0tSZxQBMRERpMAADuX16+743Xu6Lpo6wGEAZf2dP9AOfrT/+ikhcPpbB0tIREYVjAK6Rn+U7+aqez+SDet6ShTIvYZaMkIcShsqVcmE9R8mgevaQwnoKpEoC8cY2yiPS1hEDcDrEAEyJEt+uWSz+dzEAbydVKfQN32XyroyXs6REsqWN+bDLAGwQAzAxAKfgLx0dIt+ITwE1skT+JXfJkdJPdpFmzj4GYCIiSu8BGIjk5ga9LzozXjjpEYMBFLGZY33p0zO9Bt5fE8jXco60cERE9gPwv+Rw2VP61JMtnaRjQgdpK23qaSkt6mkqTerJ+AP/d0fla/Eh8IMc4IgBOE1iAE7EZ2w/+YEB+HfPqYmcnQK3ccTlIxkux8lu0orXGDAAMwATA3DKnd+O8pTEQ367xGpZJLdIsXSS5tLIEQMwERElZwAGIpFI0PPEo+KFEx4yGD8RnTHGlz5VlRh6f9dyuV46OiIi2wG4whmWGI2vl7XijQXytOzkiAE41WMApkSJX/L52ehqyKNT6Jx6yNshv955oZwuOXzbigGYAZgYgFP67JrJ+bIhxLdMfCrlsofsyODLAExERFYDMJDVxfc46tCgYNRQg/ET0Wkj/YAnpifG3T9snTwquzoiso8B2KxsDa4yU4KQXG12tbRwWxIxADMAEwPwctknRc6osTwstSEdfqfLYGnliAE4EQMwMQCn/Ofn7ZC+1/czGSI9pYkjBmAiIjIcgIHMLN91YEmQP+wug/ET0cpyXzJ/qh+4aLbXmLs5I/AE6SwZbtuMiBiAG8me8oP4EPhYShwxAKd4DMCJ+IwdK0sZgH/327+fiA+RTfKKnC3b880rBmC7GICJAbgBbkC6W9aLD5FVMkGKpLUjBmAiIrIfgMH4m1eYH+939/WBwfiJijJfMm/K5oy/9dVKtfSVRo6I7GMAtroG7baQXAVdJ7NlO0cMwCkcA3AiPmMXy1oG4F89n1Zyl9SF6Fu/v8gQyWT4ZQBugBiAiQHY9tx6ymch+9bvq3ISN00wABMRUYgGYCCnR/d4n+suiRdNGW4wgCJWPcGXPludGHK3yCZ5XnqafROYiBiA7c8gIovEh8BaOVEaO2IATtEYgBPxGbtU1olPsh+kJEVGrA/Fh8Qncp60c8QAbB4DMDEAN8ArBy6VeIjG33nSX5o6YgAmIqJwDMBAJCfX977ozKBw0jCD8ROxmWN96dMzEwPuVhHISzJImjgiso8B2OIHIgeG6Crot6WHIwbgFI0BOBGfsVtkk/gk+1x6hfxsGsntskG8sTp5W/bhh/AMwEmIAZgYgG3ObGd5TXwIrJH7ZTdHDMBERBSeARiIRHJ8z+OPDAonPGQwfiI6Y7QvfaoqMdxuVYF8KoOksSMigxiAjc+hiQyTWvHGNsoYvoXFAJyqMQAn4jP2oHijAbhnyM/mL/KyeGOB/EsKJMMRA3ADxABMDMDm55UhJ8lK8cZqZIi0dcQATEREIRqAgaysoPshB9QVlA3hvb8GopUj/YDHKxODbYP5SI6U5o6IDGIANj6LHvKmBOKNrZBDHTEAp2AMwJT4pZoy8Qbek6yQ/yD+QFkn3thH8ndeO8AAnIQYgIkB2O682stECUIw/k6UHR0xABMRUYgGYCAzy3fdY0Bd/vC7TcZfxt9yX7LgMQ20s2VOQ1siZ0szR0TGMQAbXMl5gvwsPgRelL84YgBOsRiASc+ircwQb+AN2SnEZ9NSRos39r0c4YgBOAkxABMDsOl57S5LxBuKyxz5myMGYCIiCtcADOQW5vt+d1zri6aOSPb4iYoyXzxnkh/4bHXDj78igSyW06SVIyLjGIANfkN+nPgQWC9XSwtHDMApFAMw6Vl0kgXiDbwq24X4bLrIByH482WItHbEAJyEGICJAdj0vC6UGvGGvpJiaeSIAZiIiMIzAAM5vXoFfW+6PCiaMtxiAGX8rR5fb/xNql/kJmnjiMgwBmCDqzl7yXsSiDf2lezriAE4hWIAJj2LXeUV8QaelcYhPptTQvAexrmyiyMG4CTEAEwMwKZn1VRmG/+9ZqVcIU0cMQATEVF4BmAgkh2J737eaXGb8RexqrG+9OmZiUHWxEq5Qlo4IjKMAdjg3ZWXyyrxxupkrnRyxACcIjEAU+Jbrh+KN7AwxOfSTIZJXLyRpXJgA4wYxADMAEwMwOE7q67yiXhDs2RnRwzAREQUpgEYjL/ZQY9jDo8Xjn3AYPxEdPpoX/rUjMQQa+oXuULaOSIyiAHY6Fx2lMkSiDe2Vs6RZo4YgFMgBmDSs+ghPxr90sxYxsFfVSsTpJUjBmDzGICJATgJNxsdJeuMf+noIGnkiAGYiIhCMgADWVm+++EH+oLy+wzGT0QrR/oBj0+rN8KaWyUPynaS4YiIATj9B+AM6S+fiQ+B96TAEQNwCsQATHoWRRI3GjgfCvG5RGWN8WsFBjhiAE5CDMDEAGx+Tq3kXvFGApkprRwxABMRUUgGYCAzy+cVR+P5D94eFE1N+viJinJfMm+qH7hodngGYJG1crds74jIKAZgg6ugb5D14o1tlDHS1hEDcMhjACY9i8OMBuAauTbE53KW1Ik3Mk46OGIANokBmBiADW40Wmh8i9ERjhiAiYgoPAMwkFuYX9fvzmvjBuMnKsp88dzJvzP+mo/Aj8oOjogMYgA2OJ+/yDyJize2Wk7gCjUG4LDHAEx6FucbXaG/Xs4K8bmMMXy1wDI5QDIcMQAnIQZgYgA2P6du8qV4I8/ITo4YgImIKBwDMJDTrVvQ59qL4kWThxkMoIjNGudLn5mVGFtDa73cIx0cETEAp/8A3Ej2lm/Eh8Dz0tkRA3CIYwAmPYu7jIbOdTI4pGfSQl4Wb+Q1fhDPAGwbAzAxABvcxrFMvIEauUEaO2IAJiIiBmB7iOTm+t3PO80Xmoy/iFWN9aVPVSVG1tBbKw8bfBOYiBiALc6oqdwhteKN1chdvEuLATjMMQCTnsVUw5sS8kN6JjnyqXgDtTLEEQOwQQzAxABsdk63GL7K5mspcMQATEREDMD2EMmOBD1PODJeOP4hg/ET0emjN2P8NbdRHpGOjogMYgA2+EHTCxKIN/aD7O+IATiEMQBT4uaEF8Ub+Fa6hvRc9pafxRtYI/s5YgA2iAGYGIBNzihDJhu+xuZJaeeIAZiIiBiAjSEzM+h24L51BeX3BckfPxGtLPclCysSo2rKWSP3GHwTmIgYgC0GjaPle/HG4rJQtnPEAByyGIAp8e70D8QbeEcyQ3ouJ8lG8QbelWxHDMAGMQATA7DJGXWS58QbuUWaOmIAJiIiBmBDyMzyeSWxIP+hOyzGX1Rq/J0/1Q9cNDs1B2CRdfKgtHFElIQYgA3Pqq0MCclV0OvlcmnhiAE4XDEA89nKlyXiDTwhO4XwTJrLzeKNTOCbWAzABjEAEwOw3Rlly7viDWyUQZLhiAGYiIgYgO0gN79f0PeWK4OiqSMMBlAUz5noBz5bnRhSU9pyuURaOSJiAE7fAThDcuUd8SHwvvR3xAAcrhiA+WwdIavFG5go7UN4Ju1kpHgDdXINP4hnADaIAZgYgO3OqJ98K97AEtndEQMwERExANtBTvfuQZ9rL44XTR5uMH4iNmu8L31mVmJATQu/yE1J+CYwETEAW4/Ap8ov4o3VSiXf6mIADlkMwLz/92LDdw7eI81CeC47ynzxBpbLEY4YgA1iACYGYLMz2lOsftb7vOzoiAGYiIgYgG0gkpMT73XWSRp/hxmMn4hVjfWlT1UlhtO0skqukuaOiJIQA7DRmXWUMqkTb2yVnCRNHDEAKwZgCsFV+Y+KN7BJLgrxWPGaeAOLuS2CAdg2BmBiADb4hdXB4o1M5/2/DMBERMQAbASRLtm+x7GDg4LRQw3GT0Snj/IDnpyeGEzT0k9yRhJGYCJiALY8t93lA/Eh8KrkOGIAto8BmM/VTvK4eAMr5aiQnkvE8L3I78n2jhiADWIAJgZgk/NpIucZ/jLWA44YgImIiAHYADKzfPeDBxmNv4hWjvQlCysSQ2la+1bOlmaOiJIQA7DR2Z0lG8Qb2yTDpY0jBmAGYLJ99rnylXgD30hRiH9p6GfDqzibOWIANogBmBiATc6nudwu3sAaudgRAzARETEAJx/yigri/YfeEhiMn6go8yXzp/iBi2ZvCwNwIItlsDR1RMQAnJ4D8E4yV+rEG/tJBjliAGYAJvsfQq4Ub+Aj6RzSc9lXlos3MJOrOBmADWIAJgZgu/NpIQ8Zvnf+OEcMwERExACM5Mot6B/vd8c1QdFUxtjkK/PFsyeaj78GPpJDpYkjoiTEAGxwflH5WLyxQBbJzo4YgBmAye7Z32R4M8Ir0iyk53KQrBBv4GFp4ogB2CAGYGIANjmfVjJevIEfZU9HDMBERMQAjOSJdO3qe195flA4aRhjrIHYzLG+9JlZ5oOsgUA+kAGS4YiIATj9BuDmcr1sEm9svVwmzR0xADMAk807B2dIXLyBKdI4pGdzmqwWb+Ce5J0LMQAzABMDcAjOp43MFW/ge4k6YgAmIiIGYCRHJDc36HXGCfHCSY8wxhqIVo3xpU9V2Y+xtl6SftLIEVEiBuA0OsNd5CmJizf2qQx0xADMAEzJf+5/k3fEG7lBGoX0bC40GaxErmcAZgA2iAGYGIDtzqetzBNv4GvJcsQATEREDMBIgi5dgp7HHREvHPsAY6yB6LRRfsCT0+0HWHuBvCY9HRElIQZgo/c7LhZvrE5mSydHDMAMwJTc576n4XtuAzlUMhiA/5fTkzBYEAMwA3C4YgBmAF4o3sBi+asjBmAiImIARgPLzPLd9t3TF5QNYYw1EK0s9yULHtP4mXjvL+pkluzqiIgBOP0G4DZym2wUb2yVnCxNHDEAMwBT8q5/Pl8Cw//ey3fGMQATAzADMDEAh+B8Osg7aTwAEwMwERExADP+5pXEgv733xowxhqoKPMl86b4gYv+x/iLWhkruzkiYgBOv7PcVZ6XQLyxt6WfIwZgBmBKzjNvL5XijbwrWSE+n4vTfwAmBmAGYGIADsn5dJQP0nQAJgZgIiJiAEZun97xvrdcGS+aOoIx1kBx9QQ/8NlqBt//2xp5UFo7ImIATq+zzJDjZKl4YxvlUWntiAGYAZga/plny4fijcyX9iE+n9tlQ7oMwMQAzABMDMAGMQATAzARETEAI9I1L+hz1QXxosnDGWMNxGaN86XPzGTo/W2r5Xpp44iIATj9roJ+UDaJN7ZCDpcMRwzADMDUsM/8NFlh+O7zh6RRiM/nH7IxHQZgYgBmACYGYIMYgIkBmIiIGIARyc31vc440RdOeoQx1kB0xmhf+lQVA+8f84ucL80dETEAp9eZ5shr4kPgednFEQMwAzA13PNuLuMkLt7ASjkz5Gd0lawTb+BcBmAG4FSOAZgYgBmAiQGYiIgYgNEl2/c45vB4wah/MMYaiFaO9AOemMaw++d8L4dJI0dEDMDpc6aN5ERZK97YBrlRWjpiAGYApoa7/vl98UaWSEHIz+hCwz8TbpfGjhiAGz4GYGIAZgBewueEAZiIiBiAsbVlZQXd9t+7rmDkPwLGWIvxt9yXLHiMQXfzfCzF0tgREQNw+pxre5kYkqugl8h+jhiAGYCpYd59fqzUijfysmzHAPyr7mEAZgA2iAGYGIDtzqed/FO8gR9lD0cMwERExACMrSevqCDe7+7rGX8tVJT54rmTfemz1Yy5m6dOnpVejogYgNPrbAvlPfHG4lLNX9AZgBmAqYGuf54k3lCZtGEA/lXDpIkjBmCDGICJAdjkfNrKPMMBeC9HDMBERMQAjK0jt18f3++Oa33RlBGMsRbjb/UEP5Dxd0vVyXzpLBmOiBiA0+Nsm8qZIbkKep2cK80cMQAzANPWe9Z95AvjX3A5RRqH/JzOkzXiDVRJU0cMwA0fAzAxADMAL5cTHDEAExERAzC2XCQnN+h9ydlB0ZThjLEGYjPH+dKnZ26dERQb5UHp6IiIATh9zreTzJY68cbelv6OGIAZgGnrPOcmcrVsFG/kR4mlwFkdKSvFG3hOmjliADaIAZgYgE3Op41UizewWi5yxABMREQMwNjS8Tcn6HnqsXWFEx5mjDUQnTHalz5VtXVHUCyXW6SlIyIG4PQ54z3kM/HGNslEaeuIAZgBmLb8OWfKS+INvSI7pcBZDZLl4g28Kx0dMQAbxABMDMAm59NSRog3UCP3OGIAJiIiBmBsgawuvsexg4OC0UMZYw1Ep430A56YxmDbMFbKKdLUEREDcPq8I/OSkFwFvUaONb4ulQE4PWIA5jN0llj+PbJWRqTIWUVlqXgDn0t3RwzABjEAEwOwyfm0kPvFGwhksmQ4YgAmIiIGYGyGzCzfda89gvwR9zDGWqgs9yXzp/qBi2Yz1jacD+Xv0tgREQNwepzzTrJIfAj8l2S6tIkB2CAGYD4/HeUpCcQbWSUnpsh55clPhtdk7+OIAdggBmBiADY5n6ZyuXgjT3PzBAMwERExAGMzx9+8AbF4/yE3BYyxBirKfMm8KYy/DS+Q16SvIyIG4PQ56z3lB/HGamSotGYAZgBmAKbNeL6N5XhZLd7QJ5KXImeWZTJWiKyTsxwxAJvFAEwMwAZ/Tp8h3sh/pIsjBmAiImIAxp+T06tnvO+tV8WLpgxnjDUQmzXelz5bzUCbHJtkuuzgiIgBOD3OurU8LDXijX0vezEAMwAzANNmPN+/yDzxxiZJxxQ5s13lBcPrOO+Wpo4YgA1iACYGYJMzOki8kWVS6IgBmIiIGIDxx0Xy8nzvy84NGH9txGaO86VPz2SYTa4aGSqdHBExAKfHeWfLc+KNBfKE7OBSOgZggxiA+fbvFbJKvKGNckYK/SB+O5ku3sgc2d4RA7BBDMDEAGxyRiWywvDvGcf+wbMiBmAiImIARiQnx/c69bigcMLDjLEGotNH+9KnZjDI2lgul0tTR0QMwKl/3o3kEFkm3tg6uURaMAAzADMA0x98tj3kQ/HGvpLeKXYDxIPijXwpeY4YgA1iACYGYJMz6ilfijfygDRzxABMREQMwPgdmVlB98MOrCsYNZQx1kC0cqQf8HglQ6ydQJbIIGnkiIgBOD2ugh4lG8Ube1cKGYAZgBmA6Q8813YyXOrEGwpknjRLobNrItcY/8LPIY4YgM1iACYGYIP/LnpDvJHnf+81DcQATEREDMDIyvJd99qjrmDEvQFjrMX4W+5L5j/mBy6azRBr7w3pLxmOiBiAU//cu8mr4o3VyozU+wENA7BBDMBc/Xy6LBdvrFZOScEzPFrWGZ7ZcMlwxABsEAMwMQCb/MLp4+KNfCsDHDEAExERAzB+XV600Pe767qgaOoIBtlkqyjzxXMmafytDscAik1SJTs7ImIATv1zbyqn1D97QyvlWGnMAMwAzABMv/JM+8hbEog3tli6p+AZlsoP4o28Kjs4YgBOQgzAxABsfkYZMl7i4g3UyLW/cl7EAExERAzAyOm9e9D31quCoinDGWOTrszHZo33pc/OCtcIihoZKi0cETEAp8dV0OOlTryxV8M/qDAAW8QATDrXXWVBSMbfuIyR1ik6DH4g3shyGcS3gBmADWIAJgZgm3O6XNaKN/Kk7OiIAZiIiBiApR5EcvPivS88I843f23EZo71pU9XhXMExS9ygjR1RJT6AzDnXyifiDdWIw9LSwZgBmAGYKr3LHeURyQsf1/8WQ5P0bNsIs8Zvzv5voYdz4kBmAGYGIBDdE6HyFLjW4b+7ogBmIiIGIAFCZFIJOh16nHxwnEPMsYaiE4f5Qc8OSPcIyg+koGOiBiA0+Mq6AtktXhjy+QABmAGYAZgSjzH7WWkrBUfEs/K9il8pmXG36T+UHo5SscBeKX0ZwCuhwGYAZgBOCJfGN/a8XDavmaGAXiydHBERMQAjD8hq4vvcdShvnDsA4yxBqLTRvoBCyvDP4AiLv+SbMlwRJTaAzDPoJNUSiDe2D9lZwZgBmAGYOPs3xu4q5TLRvEhUSfnS5MU/zO3TryR9XIbP4xPwwFY5AD7K74ZgIkBOGS/yDVXvKGvpI+jdByAn+OKbyIiBmD8GZlZvmtpcTz/kTsZYy1UlPmSeVP9wEWzU2MExSZ5UDo4Ikr9AZixpVSWiDe2Xi6T5s4+BmCDGIBJ5/hXmSBrxIfIh9Itxc823/jGh0DekRxH6TgAXxCicYoBmBiA7c+ppdwp3lCd3CGtHKXbAPyFRBwRETEA44/JixbG+99zQ2Dz3l/G3+I5k1Jv/MUKuZL3ARMxAKfJVdA3h2Rw+VJKnV0MwAYxAJPOr5kMkGckLj5EauQf0iQNRotXxBuqkzsb5J3v/DJXaymRD8UbmCpNXXJiAKb/x95dAFdxPmwb3xBDgzttAyTBg5UISagbdaHeUuru7u5e3CVYcXeq1B33OlIsAtGzz3fNTOYbJu+UPynkPLvn3PfMb9zYTZacXNldBWB/XJcuQr4H7gI+1dGO9vmNRGPcCmPBLlyiM6FpmqYALIchsX17t8vj97ip4z6wEEAlfeoIk7Vkmv8CqLjYiiw9ClrTFIBD5K67+TCWlWIS6igAKwArAIfN9acmbsYqBGA8ZgNSQuA4V8MQuPpDn5D6/mmKi/Em1qEExoJVaOHdI6UArCkAWzhWHbAJxqISTEScox2tPxzuhFsxF//AWFCsdzxrmqYpAB8GSWzXziTf3s9NGfO+hfgp6VOGm6zFUxRT/W054h1N0/wdgHUuquBU/A1jWR6uQ7QCsAJwyAdg3fWbjuzgnDM9PpJ/x/XIgbEogAU4xtH+6/dNC5yJ9/Azcj0Q9vNwg7cDlQKwpgBsIRbO9cD1KRe3/ufXzOhrvhY64ibMwxYUwVj2E1rqDGmapikA/wtJaJ3gdup3RSBl5DuKsRakTR5iMhd+qIDqfyXor/cBh8g0BWD9RffLKPDIB/rOIXusFYAVgHWtaYXn8QdcGI9ajw4hdOzbYD2MZQG8VaFHQSv6NsDpeBffoNCD3ztLPHYXsAKwpgBs/3g9jGIYyzbhrMM+hvrD4GpIwm2YiD9RCuMhxbgFUTprmqZpCsDlSXxLt/05ZwRShr2pGGtB2qTBJmPueOKh3vsbInbjRujDhKYpAPv9nCTiExjLijAQNULqACsAKwDrfXHH4S58jQMwHlaCtxEVQuegBsbCeMBu3Kg7sg75/szGyMST+ATbUALjUXm4DVUUgBWAFYDLKACnYxeMZQGsQCfnUNMfGyWgD/pjNXLhwnjUN7o2apqmKQBLOcRf0/bELPf49190FWMtmDDIZMzJNr2WhVj8lY1IDYEIrGkKwAo052I7jGV7cRH8fV1VAFYAVsSqg254Bd+iGMYHVqJTCN7Vc6WHIuIfKHssp75XUB3HojdewefYBeMTLtagO6ooACsAKwBDAbghZsN4xDJ0BMdSn/tQD21xI7KxEkUwPlGMIajnaJqmaQrAArRJ7eF2e+ERNzW7f9Djpww0PWeMDs34KwFMgd8fe6ZpCsA6L7EY5qFf0jRXAFYAVgD2ZWhsggswAptQCOMTB/AwYkLw3LTHBg8Fw9/RF9XC+I6rRFyMl/AldqEQxodKMRmJCsAKwArAUACOxAMogPGAEsxF9zD+Gq6NNNyECViPHARgfGgv7lDU1zRNUwAWJHbsEOj6xH1u6jjFXxvSp40wWUumhW4ElQN4FdUdTdMUgP0fCH6EC2NRAZ73RRhQAFYA1nWjFhJxLobie+TA+NAiNA3h4DjIY3di78QraBEGd/nWQjyy8CjmYx3y4cKEgGLMRSIiLB92BWBNAdj+MeuIDTAeEcB3OBvVw+Au34ZojyvwDj7HnyiGCRF/42rUdMJ1mqZpCsCS0KaNSb6tH/H3AwvxU9KnDDNZi6aEfgSVHTgPkY6/p2kKwHok2E3YDWPZ7zjR44dMAVgB+EpEhNGjaqMQiwY4GfdiNNZiP0phfGo3zg3x95j2xg4YDynELPREbIh8n0QiFk1wEu7HSPyIXBTDhQlBAcxEVwvfSwrAmgKw954uNATGQ1z8iWfRHFVC5Okr0aiBNrgEz2MOtqIQpTAhahueRF1EOOE0TdM0BWBJaN3adLz6Ujdl+FsW4qekTRpsMhdMUhwNHyvg9w/omqYArPNTH6PhwlgUwHTUVQCuOAXgoHAxFOfjRKSjKzogHsegLmoj0ofHNAp10QrdcAEew0T8hL9RBBMCCvFeGNwR1AjTPBoNN+I5tEeMD++ubo5k9MZDmILVVr5P7CvBz7gMNRSAFYAVgMM2AEfgNOyD8ZgDWIo+qOfTp0q0RDquxftYjo3YgwBMGMnDMHSHbsoIk2mapgAsLVuZ9ueeFegx9E1XMTb40iYONhnzJiiKhpcSjEF9x9/TNAVgnaNOWOuBCJyPOxGrAFwBCsC27Md2bMWP+AaLMA/ZGIm38TQexnW4BmciEz1wLJqjKRqUqY841CpTHbHlxCCy3N0gMYgtpyZqIQ710RDNkIAsXILb8TrGYhF+wQ6YELYUrcLkKQ+XIgfGgwJYhzdwPGoj0iO/bI9BTdRHC/REX7yGCfgSf6HsLivIXoxCJmpYuDNLAVhTALZ/3OpgNlwYD8rBfPRDK1RDhEf+v66K2miMNjgXd2AQZuNn5MKFkfgANuJBtEC0E8rTNE1TAJY2memB7m89ayP+yoSBJmP2ONNr2QxF0fCzDzc4/p6mKQDrHEXhYeTCWPYDuioAV4ACsJeVoAD7sRd7sAN/409swWasxDIsxVyMwNAyr+HRch7G9bi0TF88hEcP8jjex1CMwgJ8jLX4FX9jF3IsPKLWpp04F5Fhcn1vhI89fn4LsRmj0Redg/k0iHJ3vp+Ky/AQ+mMhVuMv7P2fd/dKCTbhDZxo4T2NCsCaArD9P6Dpiz0wHuViD77FS+iNlsEKiGXRuTHaoSd64wY8i3H4CluxE7kIwMi/ysNy3IIE3REcktM0TQFYklKON91eecJNze5vIYAq/vacMZr4O10xNHytQVf4+f0jmqYArPPUGOMRgLGoGGMQpwBccQrAIoeUg8cRE2bX92uR66OAuAWfYwgexPnoiiTE41g0QsODNEV8OW3QHp1wBs7H7XgQ72Ac5mEFVuJX7EMARo6Ii51YgDuRjPpBCiwKwJoCsP0/PJoO1yfXqjz8gjl4C9fgRLRFS8SjGRoepBGOQfxBWqF9mUycg8txD57GQEzDcnyN9diG/TByxIqxEiNwNuJRS+8J9v00TVMAlsR27dwuj9zlpo77QDHWgvSpI0zWkqmKoOEtgDFo5GiapgDs77/Yz8AfMJbtxflH8RdgCsAKwCLFGIUmYRoylvr0btIC5GIPfsMP+BpzMOMgi/DDQX7CX9hTJge5OIACFCv0BoWLA/gTk/EoeiMR0YhAREgFYAVgBWAF4Eich90+vF4VIx/7sAMr8QOWYyZmlJmNr/DDQVZjN/ZgH3KRhwMoRElQoriUYi9+wEDcgJ6ojyoKwr6apmkKwJLQtq2bfEvfQMqY9xVjLUj7cJjJWjTFKIAKcvAgohx/T9MUgPUo6CdQBGPZZ2itAFwBCsCHIrIE8YgIw2t7FVyIHTAiFgWwGxuxAsPxOPqgocOYArCmAOz/41cTk1AKI2JRAf7Cz5iPN3Ezeupx0d6epmkKwNKqtdvx2ssCKSPfVoy1IG3SYJO5YLLCpwDAb8iAnz+waZoCsM5XUyxGAMaiQryL6grAFaEALFJOAN+jS5hf26tjOFwYjxHZiQsdxhSANQXg0DiGaVgH40EiC737ShBN0zQFYGnZ0rTrfZrpMfh1xVgL0iYOMhlzxvPe3xmKngIAAWSjsaNpmgKwv+8UOxu/w1i2AycpAFeEArBIOatxKiL1mP/47tgM4zEivyMtpAKwArACsAJwNTyOAhiPEZnteHKapmkKwBLf0rQ9+QT3+HeedxVjLZgw0GTMHqf4K/8mD49Df0moaQrAfj5nVfE8SmAsW4R6CsCHTQFYBHCxEeei7BUdesw/7sBuGA8R+Q3dHcYUgDUF4NA5jvUwGy6Mh4jMcrw4TdM0BWBJ6taltNuLjwZSs/tbCKCKv+nTR5mspdMVOg9FNqOHo2maArC/z1sCvoMLY1EebkesAvBhUQAWAX7E5f8n/ura3gCjEIARUQBWANYUgCv5WJ6CP2E8QqQUYxyvTdM0TQFYEtq2dbs8dIfiryXpU0eYrCVTFTjlcExHPcff0zQFYD0u9HJsg7FsPdIUgA+DArBIKb5G2r8+9lnX9rb4ShHYQ2Q9modkAFYAVgBWAI7BndgJ4wEixXjX8dI0TdMUgCWhTRuTfEtfkzLmPcVYC9I+HGqyFk1R2JTDlYe7Eev4d5qmAKxzF4e3UQJjUQkmIU4B+BAUgEUKMQ/dEeEcaorAvbEVxgNE1qK+w5gCsKYAHHrHszbeRDGMiAKwpmmaArAAQKtWbsfLL3J7DHtTMdaCtImDTeb8SYqaFSXrken4f5qmAKw7xX6EC2PR3kM8zlUBWAFYJBeD0PKwfnmu63ssbsRuGBHLVoV0AFYAVgBWAI5AC8xACYyIRYV43vHKNE3TFIAVf9v1Pr20x5DXXRvxU/F3kMmYO970WjZDQbOipBQzUNfx9zRNAVjnsB/2wlj2NToqAJejABzeJID1uB01nYpOEfgB5ML4jrjIx0osxF4Yn1qOOg5jCsCaAnDoHtd2mItSGN+RUuzEEvyIAIwP7cddjhemaZqmACxts3oGur/2lOKvDRMGmp6zxhJ/pytm/leSg2sR7fh3mqYArHPYAGMQgLGoAG+imgKwArACsKAIH+NkVHX+y3R9r4cPcADGN+QAVuARdMBxeAH7YHxoLuJCPgArACsAKwBXQQ98AxfGN+RPTMIlaIIMfIUSBeD/OE3TNAVgSerR3XR75QmTmt3fRgBV/J0+yvRaqvgrR2wlujv+nqYpAOs8dsYqGMt24VxEKAADCsBhSFxsxmM4zjnS6freEK94/k5gKcRWjMX5aF7uPFbHA9jmw7AyRwFYAdjCFIDtHd9UrPD8ncCSg2/xDLqjRrnHenfAJBTC+EgernU0TdM0BWCbEtq1dbvcf5ur+GtH+tThJmvxVMVLORqKMRJxjn+naQrAOo+RuAslMJYtRGMFYEABOMxIPubgBMQ4R2u6xtfBs557jLC4KMR3eBZpqFkuEJWPwFdio88i8Gi7j3BXANYUgC3cCZyKBZ67VkkA/2AubsKxiPkf73YehnwYn9iHsx1N0zRNAdiWhMSkQKcbry5NGf2eYqwFaZOHmsyFHypcytGUg0vg5w9zmqYArHPZGPNQCmPRfjyEqgrACsBhQ/LwJa5Cw0p5CoCu8bVxG36HCyPW7/adhMsQj6jDPI9ROBEf++iurPdQ3bEwBWBNAdjaMY5AEqbgAIxYtQ/f4CWkoj4iKvAkkQew1Uf/1t6OpmmapgBsRctWpuMVFwdSRrytGGtB2qTBJnP+RAXLyiBfoZXj72maArDOZxY2wFi2FVkKwArAEtJc5OMb9EVTRwvGXVnn4XuUwASNFGIb5uF2JCPqCM7lcXgZ//gg6L9r6f3+CsCaArD9Y90Iz2BnUK9VEkA+1mIgLkA9RBzB06JOxifwegPYg16Opmk2pikAK/62O+0k9/j+LyvG2jBhkMmYk216LZuhWFkZpADPoKrj32maArDOZ3U8jSIYi0oxEXEKwArAEpIK8TnuRyIIYUGarvNR6IEpQbmDVP7BF3gFJ6MJoo7SuayFfvjK40H/KcQ6dqYArCkA2z/eNXAjViMAU2mkBFsxDXegDeIQcZReGZSIN7Ddw0H/H7R3gjpN0zQFYImPN217ZQS6v/mMqxhrwYSBpuessYq/lU3+ximOv6dpCsA6p02wCAEYi3JxA2IUgBWAJSSU4m9Mw1VobvVRz7rW18NDWItSGDkqirENy/EUeqERIirxru5j8SJ+92gIvhvRjr0pAGsKwPaPeSSSMRY5Ry0eios8bMFE9EVnVKvEcxmLM/Ahcj0agNs6mqZpWjADsCQmdwp0e+7hQOq4/hYCqKRPG2Gylkyr7PgnEsBU1HQ0zb9TANY5jcBF2AZj2TdorwCsAOxrEsA6DMbZqIdIxwvT9b4asjDjiIKYuNiLZXgDp6MhYoN8h93JGItcBWAFYE0B2KOfMRrgHvyku4GPSCk2YRLuRlfEITKIr5RoiHvwHYphPOI3JDqapmlasAKwJHboYDrff6ubOu4DC/FT0qcON1mLpwQrAIrk4QZEO5rm3ykA67zWwAsogrGoCENQXQFYAdhXJB+bMBH9kARimObhu4EvwUf63qtQ8F2HabgZx6MhIi3HlTichfHY7pHAck256KUArCkA61UEbfAKNqIU5pCkCH/jG7yLC5CEGh64szset+Jr5MNY9j2ODcoB0DRNUwCWhKQkk3zbdW7K6PcsxE9JmzzEZC4KevwV+QHJjqb5fwrA+uXYChjLduECVFEAVgD2LCnFfmzBWFyHtojWY559dWdWfVyPRchDAEbiS7Af27EAL+IixCMaER48l1VxKt7DJhTBhbHgbKfcFIA1BWCt7PrZBe9gI4pgJN5FEXKxFmNwF7JQF1U8+v9OC1yHhdhtMex/G5wArGmapgAs8S3dDhefF0gZ8baF+ClpkwabjHkTbMQ/kUK8jaqOpvl7CsCKAZdjL4xly9BCAThsAvD52IwcTwcoKcYfWIFhuBJtUUfR1/fvaWyO6zAL2+DChJkD2IzPMRBXIxlNEOuj/8drojOexsfYDVcB2EMBWFMA1vmoia54CT/iAEyYCeAfrMJsPI+z0Bp1UMUn57IKmuIMDMM6C+fz88r/3KhpmqYALC1bmXann1zaY9BrroX4KRMHmYy5402vZTNsBUCRbTgFof4BT9MH9s54AI8H2QU6+kH7hczVeNyy+9DWY8fmJAvH4VGkh8HXXR2k4wxcinvxEoZjNr7Er/gLO7EXeShACYwcVS4KsAdb8RHewlVIQb2QDr56HUAvPIcV2I1imBBSjFxsw0qMx2O4AMmoHUJ/1FUHp+JxfIrtOFDJQbgAp3rsWDTCQ3g8yG5HPU8cBF3bauEWG59f9P/l/4yH8bgU47ElBJ9G4aIAu/EnPsUHuBEnojWiQ+xR330wDKuwOwg/q09HQ0fTNE2rzAAsbTLS3O6vPummZve3EECl58wxtuOviItshMOHfE13CsVaENwPxno8W6wHRHrvlxo6DkH8GqyGONRHE8QjBWehL+7D83gX4zADi/AlfsZmbDvsR0tLAbbgS0zEc7gSHdAYNXQXU1g9DaIajkEfvIcvsQuuT4Pv3/gas/AObscJaIE6iEVECJ/PWDTBSXgS0/EL9lfSaxx6evEYWBCj+Oepr4EYfX7xdAiugy64F5OxCoUwPpSLzfgY4/AMLkVXNEItRIb4+YxDAi7HIHxSie+pn4IGjqZpmlZZAViSunZxuz3/sKX4K+nTRpqspdO9EABF9uFWK3cBa5qmaZqCVV00Q0u0Rzf0xMm4EDfjfryO9/EhZuJb/IJ12ITfsA07kIN8FMH4VCH2YTu2Yi0+wRi8gCtwAjqgOWLKHWJNf/jVDD3QF0PwJbbgHxTAWBJAPnbhD6zH15iAV3EzTkYXtEANndH/f6d3K5yEOzEcX2EDth3hHXg7j/DJFZqm6RpVHQk4C49gGtbgD+SiFMaSYuRgG7ZgJZZjOB7H5UhHezRCtM5nfCQaoxvOw0uYhZ/wO3Yf4c/ZE1Hf0TRN0yojAEtC27Zu53tuCqSO+8BC/JT0KcNM1uIpXgqAIt8h3tE0TdM0zWuROBJRiClTFdVQA3E4Du2RgtPRG9fiZjyIF/EyhmAMsrEIy/Ep1mAjtmAfCg9ShOJySiqguJwiFKIAO7ERq/AJFiAbg/ES7sM1OBNd0AzVURXRurNXq+BdPbGojU44H3fjXUzEJ1iH7Sgo93Vf0a/xwjI52Ii1+AzzMBbv42ncgovRE/GoiaqIqdAdVnqySy0k4nTchBcwHNPxKdZjBwqBf72W/YquOrKaph2ln92iUA3NkIF+eArDMAdfYwvyUXgE/+8c/HPVDmzEj/gIUzAMr+Ah9MVpSEYDVEcsog7rZyqd02hUQz2kow8ewJvIxlL8gC3IKX9ey59bvK0/8NI0TVMArhQJCYlup5uuCaSMfMdC/JS0yUNM5sLJXot/IqV4LqTvAtY0TdM03W1cE3FojKZohtZIRBKS0bXM8TgXfcq5G48dhrtwOfoc5GR0LdMBiWiFZmiEOFTT40e1ID62vTaaIQEd0BWnok+Z2/HYv3gYfdHnIJnois5IRGs0R0PU0p3qQbnWVUc9NC93XjPQp8wVuAePlblFd2Jpmhaku4Qb4FgkoQtScB764HI8iMf+xb3lfrY6C8eX+7kqHk1RF9UVd4Pyup04NEE8kpCM7jgTfcpcX+5c/j/27oKrrizB+/BJve+4u88EuIQAISQBrnC5tLuUa7u7e3dWuaYsISxC3AgucSFhfJaNu7u7l3LPnt3u3RHCQZ5nrd+n+G95tpvWAAbgua+2LjTfcFWa3/2IMTaDisP9oevE4EIdAKU/i7XFViQAAAAAAAAG4AXeyprQ+JxnVNu33pPF+KnBvlA+NhC6Z6YMjQs1zca2xr4zAQAAAAAAMAAv7BrKpWrbQ7el2Qygxt/Ow/uNv1oM/WPs6gQAAAAAAGDhMgDXr1mTrr/tg2nhYK8xNoNK47tD5eyEcVGLoWrsaOy7k4UHAAAAAADAAFzf3Jy2vufNaeFAjzE2g0qjO0PlzJhhUYup/47dEvv/ycIBAAAAAABgAM7l6tO1b3pVNb9vszE2g4oj20PX6RGDohZjvxCrTRYIAAAAAAAAA3BNTWi68kXVjp0PGWMzqDi0LZSPH4pDmn9/tSj779iHYv8vAQAAAAAAMABnP/42Pv/Zob333izGTw32hfKxgdA9s6jHX+kPYk1JtgAAAAAAAAzADcV82nb/xrQw0JvBAKrOyX2h+9zkYh//pGpsY4a3gAEAAAAAAAzA9S1rqutv/UA1m/FXpYndoXJ2fKkMgNIfxdoTAAAAAACA+WcAzjU2htZ3vyktHOjJYPxUcXRHqJwZW0rjn/R07OHYtyYAAAAAAADzxwCcq8uFltffkub3PJrB+KniUH/oOjW8FAdA6W9iz0gAAAAAAAAMwPM1/talzde8rJrf9bAxNqPxt3x8cKmOf1I1NhD75uTyAwAAAAAAMAA3PueZs+2b70wzGD812Bc6jx4M3TOTS3kAlP46Vo6tSC4fAAAAAAAAA3BDMR/aHrotLQz0ZjGAGn+n9obuc0t+/JXS2N7Y9yWXBwAAAAAAgAG4vqkxXf/x92Y0/qo0vjtUpseXywAo/WPs5cncAwAAAAAAMADXNzZW1779ddX8/p4Mxk8VR3eEypmx5TT+SdXYVOy7krkDAAAAAABgAM7V1aUtr7tlNr93cwbjp4rD/aHr1PByHACl/4y9NHZFMgcAAAAAAAAMwLW1oellLwwd/ZuyGD81tC2Ujx0K3TNTy3UAlAbn4hYwAAAAAACAAXhlTWh83rPS9i13ZzF+arAvlI8eXO7jr/RPsWtjK5KLBwAAAAAAYABe1dE223b/xrQw0JvBAKrSxJ5QOTe53Mc/KY2Nxb47uTgAAAAAAAAG4PqWNdV1H3tPNZvxV6Xx3aEyPf7pAUzSf8demgAAAAAAAFw4A3CucXVoffebQn5/Twbjp4ojO0LlzNjnxy9Jaexw7FsSAAAAAACAC2AArqlN17zy+jS/59EMxk8Vh/tD18mhLx/AJP1drOt8/wIGAAAAAAAwANfWpU0vfcFsx46H0vkfP1Uc2hbKxw+F7pmpLx+/JKWxHef5FzAAAAAAAIABePUzK9W2h27LaPxV5+H9X3v8lfTXsWclXwMAAAAAAIABeGVNaCh0hLb7N4bCQO98D58a7AuliT2hcm7SwCd97Z6O7Y19Q/KVAQAAAAAAGIDrm5vTdR95Z2r8zabS+K5QmR4z7knn15/H1idfDgAAAAAAwACca2iotr7zDbP5/VuMsRlUHNkeKqdHjXrS+VeN3Rv7luQLAAAAAAAAGIBr68KaV99Yze8z/mZRcbg/dJ0cMuhJF97vx1qTzwAAAAAAADAA19SGxhc/L+3Ydr8xNosGt4XysUOhe2bKmCddeI/Fbo/9/yQBAAAAAAAwAIfVz+6utm++KzXGZtBgX+g8vN/4e2lJvxnLJcsdAAAAAABgAF61bm11wz0fSwsDvcbYDCqN7w6VsxMGvEtLmo29LrYiWa4AAAAAAAADcH1LS1j3wbenhYPG3ywqje0Klekx493cJP107PuS5QgAAAAAADAA51Y3pK3vflOa37/FGJtBxZHtoev0qNFu7pL+PXbD8rsFDAAAAAAAGIBratM1N1xVze951BibQcXh/lA+MWiwm9ukNDYQ+55k2QAAAAAAAAzAcfxteukLZjv6Nxljs2hwWygfGwjdM1MGu7lP+qfYs5PlAgAAAAAAMACv7i6nbQ/dlhYGjLFZ1Dm1L3SfmzTUXZ6kp2O9sSuSJQ0AAAAAADAAr1wZVrVvSDfc+/E4/vYaYzOoNLEnVM5OGOkub9IfxZqSpQwAAAAAADAA1zc3V9d98O3VwsGtxtgMKo3tDJXpMePc5U96Kvbu2DcmSxEAAAAAAGAAztXXh7Vve12a37fZGJtBxeHtoevUiGFOmr9+JvYTyVIDAAAAAAAYgHN1udB80zVpfs+jmYyfxt/+0HViyCAnzW//EXttsqQAAAAAAAAG4Jqa0PjC51bbt96bGmMzaLAvlI8eDN0zUwY5aX6rxkZi354sFQAAAAAAgAF4daWz2r75rozGX+Nv59Q+46+UXf8U64ytSBY7AAAAAADAAFy/tiVsuPMjoTDQa4zNoNL47lCZHjfCSdmVxjbGviFZzAAAAAAAAANwfcuatPX9b00LB7caYzOoOLozjr9jBjgp+3419pPJYgUAAAAAABiAc/Wr0rVvf301v7/HGJtBxeH+0HV6xPAmLYz+O/a22Ipk0QEAAAAAAAzAtXWh+dqXV/O7HjbGZlBxqD+Ujx/y76+0cEpjh2PflywqAAAAAACAAbimNjS97EWho+9+Y2wWDfaF8tEB46+08Pq3WDlZTAAAAAAAAANwQ6lQbX/kjrQw0JvBAGr87ZzcGyrnJo1t0sKrGrsnWSwAAAAAAAADcP261tkNt3+oaozNptLE7lCZHje0SQu3X4/9WLLQAQAAAAAABuD65qbQ+r63poUDPcbYDCqO7ojj75iBTVrY/Vfs+tgVyUIFAAAAAAAYgHN1udDy5len+b2bjbEZVBzuD10nh41r0sIvje2OfXeyEAEAAAAAAAbgXC6XNl/38mp+9yPG2AwqDvWH8onB0D0zZVxbHEl/FWtPAAAAAAAAFuAAnDa+4Dmz7T13p8bYDBrsC+UjB4y/iyvpsdjHEgAAAAAAgAU1AK+sCQ1dpbT9kTvSwkCvMTaD8bc0uTd0n5s0qC2upDT2s7EfTAAAAAAAABbKALyqdW26/rYPGn8zqjS+O1Smx41pizPpX2PPiq1IAAAAAAAAsh6A65saq+ve/7Zq4UCPMTaDiqM7QteZUSPa4k66J/bNCQAAAAAAQJYDcK6uLm154ytnjb/ZVBzuD10nh41niz/p12IrEwAAAAAAgMwG4Nq60HTli9OO7ZuMsVk0uC2Ujx8K3TNTxrPFn/QvsRsSAAAAAACATAbglTWh8UXPS9u33mOIzaLBvtB55IDxd+kkVWMHYt+aAAAAAAAAzPcAvKq9bbZt061pYaDXGJtBpYk9oXJ2wmi2tJL+OFafAAAAAAAAzOcAvGr9uur6je+rGn+zqTS+K1Smx41lSy9pNnZzbEUCAAAAAAAwHwNwfVNTWPehd4T8gR5jbAYVR3aEypkxQ9nSTZqI/f8EAAAAAADgcg/Audq6tOW1N6f5/VuMsRlUHO4P5RNDBrKlnfTHscYEAAAAAADgcg7Aubq6tPnql87mdz1sjM2g4tC2UD5+KHTPTBnIlnbS47E3xq5IAAAAAAAALtcA3Pi8Z1Xbt9yVGmOzqfPwfuPv8kk6EPueBAAAAAAAYM4H4JU1oaGYT9s23RoKA73G2HmvL5Qm94TK2Qmj2PJJ+vNYSwIAAAAAADDXA/Cq1rXV9R9/T2r8zabS2K5QmR43iC2vpMdi70gAAAAAAADmcgDONTRUW9/7lmp+/xZjbAYVR7aHrtMjxrDll1SNTca+KQEAAAAAAJiLATiXy4WW194cx98eY2wGFYf7Q9eJIUPY8k36s1hrAgAAAAAAcMkDcG1daLrqJWnHtgeMsVk02BfKxwZC98yUEWz5Jj0Zuyl2RQIAAAAAAHApA3Dj855V7ei9NzXGZjP+dh7eb/yVFGI7Y9+ZXCwAAAAAAMAAvKptfbXtgY1pYaDXGJtBpfHdoXJ2wvAlKcR+J5ZLLgYAAAAAAGAAXrW+Naz72HuMvxlVGtsVKtPjRq/PJunfY69OLhQAAAAAAGAAzq1enba+/61p4UCPMTaDiiPbQ9fpUYPXFyZpNrYn9o0JAAAAAADA+Q7Aubq6dM0t11bzex41xmZQcag/lI8fMnZJ+kr9SuwnEwAAAAAAgPMagGtqQ/O1L0s7tm8yxmbRYF8oHxsI3TNThi5JX6n/jT0vtiL5egAAAAAAAAPw6md0pe09dxtiMxp/O6f2he5zk0aur5WkT8T+fwIAAAAAAPDVPGPVuttW5zsea7vvE6kxNptKE3tC5ey4cUvS1+tnY9+RAAAAAAAAfDVd11x7/4aN73+8cLDXGJtBxdGdoTJt/D2vJP1FrD0BAAAAAAD4akp7ezYXDm59yhg7/xWH+0PXqRGj1vkm6bHYO/0DDAAAAAAAfFXFsV2bC4f6DMDzXHGoP5RPDBq0JF1oB2PfmQAAAAAAABiAF0iDfaHz6MHQPTNlzJJ0of1OrDYBAAAAAAAwAC+Q8XdqX+g+N2nIknQxPRZ7cQIAAAAAAGAAzr7S+O5QmR43Ykm62GZjmxIAAAAAAAADcLYVR3fE8XfMgCXpUvu52LcmAAAAAAAABuBsKo5sD12nRgxXkuaiv4xtSAAAAAAAAAzAGTS0LZSPHwrdM1OGK0lz0eOxW2IrEgAAAAAAAAPwPDbYFzqPHjT+SprrHol9ewIAAAAAAGAAnq/6QmlyT6icmzRWSZrrfin2owkAAAAAAIABeH4qje8OlelxQ5Wky9E/xLqSrwcAAAAA4P/YuwfQa884jsP3bCOMueWajvPSsmebcc5Y1mvrz6PXPFnzsjXb1r3fbB49T+911Sfb9b0xPMAArMrCytzcu2ik0riSPoruT+MFAAAAAAAYgFWZW54bu2bHOfxI0tfRpujwBAAAAAAAMJ4BWJXZZbm+Yya3Bj0D1biT9GR0dgIAAAAAADAAj6daf4Pxd1JJeiOqJAAAAAAAAAPwiJtZmqvddbl1oGuUmlSSvoluiA5LowMAAAAAABiAVW2vzs197UmPP5K0NDo2jQYAAAAAAGAAVmV+RW7uXZjW+CPJP8BnpuEBAAAAAAAGYFXmlufGrtlpDT+S9GJUT0MCAAAAAAAMwJpZluvbt+TWoDet4UeS3o9uTUMAAAAAAAAMwJpZmmv9DdMefyXp62hpdHgCAAAAAAAwAP+/qp21ubm/Y3ySVIQG0RkJAAAAAADAAPzfqy6uzs19baOTpKL0cnRBAgAAAAAAMAD/tyrzK3Jj74LBSVKR+ia6PAEAAAAAABiA/32VueW5vnPG2CSpiD2YAAAAAAAADMD/stllub5jS24NeoYmSUWsEx2S/gkAAAAAAGAA1tJc662P8bdrZJJU1J6JTkx/DwAAAAAAMACr2l2bm/s7BiZJRe7F6KL01wAAAAAAAAOwqourcnNf27gkqeh9El2Z/hwAAAAAAGAAVmVuRW7smTcsSSpD30SPRUem3wMAAAAAAAzAxt/lub5zxqgklSnNRKcmAAAAAADgVwzAmlma69s359agZ1CSVKaej85PAAAAAADALwzAxt9ab32Mv11jkqSy9VZUSQAAAAAAwA8MwKp21ubm/rYhSVIZ+zC6JgEAAAAAAMEA7N/fhVW5uc/4K6m0fR49noCDGgAAAABgAG7FAHxnDKB3H+zFv793x3giSWXtruiyBAAAAAAAAAAAAAAAAAAAAAAAAAAAAAAAAAAAAAAAAAAAAAAAAAAAAAAAAAAAAAAAAAAAAAAAAAAAAAAAAAAAAAAAAAAAAAAAAAAAAAAAAAAAAAAAAAAAAAAAAAAAAAAAAAAAAAAAAAAAAAAAAAAAAAAAAAAAAAAAAAAAAAAAAAAAAAAAAAAAAAAAAAAAAAAAAAAAAAAAAAAAAAAAAAAAAAAAAAAAAAAAAAAAAAAAAAAAAAAAAAAAAAAAAAAAAAAAAAAAAAAAAAAAAAAAAAAAAAAAAAAAAAAAAAAAAAAAAAAAAAAAAAAAAAAAAAAAAAAAAAAAAAAAAAAAAAAAAAAAAAAAAAAAAAAAAAAAAAAAAAAAAAAAAAAAAAAAAAAAAAAAAAAAAAAAAAAAAAAAAAAAAAAAAAAAAAAAAAAAAAAAAAAAAAAAAAAAAAAAAAAAAAAAAAAAAAAAAAAAAAAAAAAAAAAAAAAAAAAAAAAAAAAAAAAAAAAAAAAAAAAAAAAAAAAAAAAAAAAAAAAAAAAAAAAAAAAAAAAAAAAAAAAAAAAAAAAAAAAAAAAAAAAAAAAAAAAAAAAAAAAAAAAAAAAAAAAAAAAAAAAAAAAAAAAAAAAAAAAAAAAAAAAAAAAAAAAAAAAAAAAAAAAAAAAAAAAAAAAAAAAAAAAAAAAAAAAAAAAAAAAAAAAAAAAAAAAAAAAAAAAAAAAAAAAAAAAAAAAAAAAAAAAAAAAAAAAAAAAAAAAAAAAAAAAAAAAAAAAAAAAAAAAAAAAAAAAAAAAAAAAAAAAAAAAAAAAAAAAAAAAAAAAAAAAAAAAAAAAAAAAAAAAAAAAAAAAAAAAAAAAAAAAAAAAAAAAAAAAAAAAAAAAAAAAAAAAAAAAAAAAAAAAAAAAAAAAAAAAAAAAAAAAAAAAAAAAAAAAAAAAAAAAAAAAAAAAAAAAAAAAAAAAAAAAAAAAAAAAAAAAAAAAAAAAAAAAAAAAAAAAAAAAAAAAAAAAAAAAAAAAAAAAAAAAAAAAAAAAAAAAAAAAAAAAAAAAAAAAAAAAAAAAAAACU2rftwYEMAAAAwCB/63t8FQAAAAAAAAAAAAAAAAAAAAAAAAAAAAAAAAAAAAAAAAAAAAAAAAAAAAAAAAAAAAAAAAAAAAAAAAAAAAAAAAAAAAAAAAAAAAAAAAAAAAAAAAAAAAAAAAAAAAAAAAAAAAAAAAAAAAAAAAAAAAAAAAAAAAAAAAAAAAAAAAAAAAAAAAAAAAAAAAAAAAAAAAAAAAAAAAAAAAAAAAAAAAAAAAAAAAAAAAAAAAAAAAAAAAAAAAAAAAAAAAAAAAAAAAAAAAAAAAAAAAAAAAAAAAAAAAAAAAAAAAAAAAAAAAAAAAAAAAAAAAAAAAAAAAAAAAAAAAAAAAAAAAAAAAAAAAAAAAAAAAAAAAAAAAAAAAAAAAAAAAAAAAAAAAAAAAAAAAAAAAAAAAAAAAAAAAAAAAAAAAAAAAAAAAAAAAAAAAAAAAAAAAAAAAAAAAAAAAAAAAAAAAAAAAAAAAAAAAAAAAAAAAAAAAAAAAAAAAAAAAAAAAAAAAAAAAAAAAAAAAAAAAAAAAAAAAAAAAAAAAAAAAAAAAAAAAAAAAAAAAAAAAAAAAAAAAAAAAAAAAAAAAAAAAAAAAAAAAAAAAAAAAAAAAAAAAAAAAAAAAAAAAAAAAAAAAAAAAAAAAAAAAAAAAAAAAAAAAAAAAAAAAAAAAAAAAAAAAAAAAAAAAAAAAAAAAAAAAAAAAAAAAAAAAAAAAAAAAAAAAAAAAAAAAAAAAAAAAAAAAAAAAAAAAAAAAAAAAAAAAAAAAAAAAAAAAAAAAAAAAAAAAAAAAAAAAAAAAAAAAAAAAAAAAAAAAAAAAAAAAAAAAAAAAAAAAAAAAAAAAAAAAAAAAAAAAAAAAAAAAAAAAAAAAAAAAAAAAAAAAAAAAAAAAAAAAAAAAAAAAAAAAAAAAAAAAAAAAAAAAAAAAAAAAAAAAAAAAAAAAAAAAAAAAAAAAAAAAAAAPAWw3rtoFC0gJ0AAAAASUVORK5CYII=;" vertex="1" parent="1">
          <mxGeometry x="1800" y="390.5" width="260" height="119" as="geometry"/>
        </mxCell>
        <mxCell id="oFQstUxSCO1s48QNKXJ--38" value="" style="shape=image;verticalLabelPosition=bottom;labelBackgroundColor=#ffffff;verticalAlign=top;aspect=fixed;imageAspect=0;image=data:image/jpeg,/9j/4AAQSkZJRgABAQAAAQABAAD/2wCEAAkGBxMSEhUTExMVFhMXGRgXGBUYExsYFxoYGBsZGhcYGhsYHSghGBolGxgfITEhJSkrLi4uGB8zODMsNygtLisBCgoKDg0OGhAQGislICUvNS0tLi8tNi0tLTAvMjctMi0rLy0tLy0tLS0tLS8tLy0tLS01LS0tLS0tLS8tLS4tLf/AABEIAMMBAwMBIgACEQEDEQH/xAAcAAACAgMBAQAAAAAAAAAAAAAAAwIEAQUGBwj/xABKEAABAwEEBAkICAUDAgcAAAABAAIRAwQSITEFE0FRIjJSYXGBkaLRBkJTcpKhsfAHFBUWI7LB0jM1YoLhk8LxY3MkJUNUg9Pi/8QAGQEBAAMBAQAAAAAAAAAAAAAAAAECBAMF/8QAKxEAAgIBAgQGAwADAQAAAAAAAAECEQMEIRITMkEiMVFhcYEUocFSkfAj/9oADAMBAAIRAxEAPwBLPJyg3RjLa6nUe9wdxX4Ah7mguAGDRGP+V6P5BF32bZrr7sNdODTnUcBxiF5Po/yitrbNqqYBoUw4H8IOADiS6Tt42O6V619HzWnRtmDsiwggxB4b94WvNaW/qefpnFy8K7G9BqTAqHou05y9brUn3zHDcIz4mMADHHDHH+5DGUxgLo24Bm3bxVkUGTIzxBMNxki9OGOIHYszZuSEU9ZAmtOGPBYBO/B2WKGuftryDIypg5Rgb2wkFPFmYPNHss25+aj6szkj2WftUEiW6zGax5sKeAwIOecYbsQsTUGJrd2nGz+r5lP+rMmbonfdZswHmrIs7BkB7Lf2oDNkqOxlxqHDK4IwywO9WNYeS7u+KTTYG5SOgNH+3nUrx5Tu74IBmsPJd3fFGsPJd3fFLvHlO7vgi8eU7u+CAZrDyXd3xRrDyXd3xS7x5Tu74IvHlO7vggGaw8l3d8Uaw8l3d8Uu8eU7u+CLx5Tu74IBmsPJd3fFIqteXAguaMJbDTlPPhn7gp3jynd3wRePKd3fBAIFKtImo7ouM8Uy0tqOi4XM/taR7z8/Gd48p3d8EXjynd3wQEWh90glxdjwoaOqAVGg2oDLnOcMcLrBujEHZ+qZePKd3fBF48p3d8EAtrKl+9eddx4F1m3LGZww7FCtTqlxLXuaD5txhjDYZn/lPvHlO7vgi8eU7u+CATTZVDgS5zm4yC1gndBBWLNSqtq1Xue57H3LlO6wCndBvQ4Ol16RnlCfePKd3fBF48p3d8EAk0qux7/ZZuA37wT1rNBtUOlznOEcW4wdch0pt48p3d8EXjynd3wQEQH8PjcIy3BvA4IEDHHEF2O9IIqNuzUIAzlrOFlhJduB58VZvHlO7vgo1WBwh0kbiGn9EG5XZrNlUk4+awjIYcacCDt2rRWnyzoMbVpufWvsLmGoKODXDgzgYPCGG9dEyztBkAA7w1oy/tXO2jyIs73VHGpXGscXPAqNDSS69lc3o6Cvubl9YPh7cnNa4TnBaCEKBYGQxsw1rWiTjAaAPghQSeB6Pbafq9U0zFDHWcXOACMcZIOzOCvZfIGk12jbNeDSLrovAZ337+heS2HRD3UKj21XNY2bzLxAOEmQMMRgN5wXsHkMKbNG0C8i41pxdkOG8Se1btTFqP2eXoZKUu/l/TdOstM5tp4cw6f0B6kxlMNyugEk4QMSZJ6SUllezAYOpwMMDO/A+/NW2UKbgCGtIOIIggg4zO0LDZ6dGAwo1ZT2tAEDILKElfVlGrKsIQFfVlGrKzabXTpxfe1szF4wDGeJSftah6an7Y5xv3g9hQDdWUasrNG2U3OLWvaXCcJxgGCY3Tt509AV9WUasqwhAV9WUasqwq1XSFJjrrqjGu3FwBynI82KAzqyjVlL+1KMA61kHJ14XcIkTlOMrI0nR9KzHLhDHo3oCerKNWVYQgK+rKCwqwoVckAgnnHaPFE847R4qbrKx0EtBOc/PwWTZGHNjTnmN+fwQCx0jtHis9Y7R4qRsdPO432QpGzM5I7EAvrHaPFZ1ZUhZWchvZuyTkBX1ZRqyrCEBX1ZRqyrCEBp7Vxj87ELNr45QgPA7DTY+hVqPtTadRnFomlJqYYQ6RGOGRjMr2v6O3k6Ns5OJun8714ZY2Wc0ahqOcK3mAAwcMNkZ5zsyXuX0bfy2z+qfzvW3Uybju+55ehjFS2S8v6b2nU2atwkzxREmZOHzirA5lnDn96MOf3rEeoEolED5lGHP70ASo3zMY5Z4R0b1LDn96IHP70Aq1vgZTzRO5V6dpJ81w6WhPtFqptMPcAdxSvr1DltQEg857egKWtdv+CX9eoctqthjTiAEAjWu3/BGtdv+CfqhuRqhuQCqVQkjFNcshgGxZLUBR0hWdRovdSo61zRLaTSGzjjiRAwx6lapPkA3eqQYO0YFMAQ1oGQAU9iK3MTzH3LBqAYHDrHipqLmA5gGMsFBIOKg84HqTC1QqDAoBNrs73htyoaZG0NDpy2HD/lV2WGsHAm0uLQRwdWzETJBIG3LDJT0k0ENljHHGL1S5GUwY3KjUosvHgUyDME2l2MAtHBjMgRPxhAPGjawwFpfdjMtaXXoiTIxG2N6c6xVrxItDgCZDdW0gCcuzD35qmWNBwYyMYJtJnKMsY2zBWX2dnIaSJn/wAQ4AC7n09Q2GUBu0LRPptJPApnGT/4p3GMmI2DmWXUWhw4DBAF6bS6QBgJG3gtGJzQG8QtLq48xnBOA+suG2DOGezag2QuypCJgEWhwjnw2zsQG6QtU2xnE6lsmZmq4yHA3hiMNmGXYFfstEMbAETiReLoO2CdiA11r45Qi18coQHzvQtFMUn03UwXk3m1Nowi7EjA75Mbjs91+jc/+W2b1T+d68Go14Y9twG9BvbWwcCN2JjrHX7t9HjXHRtmugTdOcxF9+5bdT0/Z5mhfi+v6dM7EzLhzSEDpd2hKY2pta0f3HDp61IMfyWe0fDFYj0x17Pp3jmUD0u7WqAY/ksz5Ry3/wCPen6sbkAoj+p3a1Zp4ZknLEkfomasbkasbkBp9KWR7qt5rWuF0DFw8VUNgqejZ7Q8V0erG5GrG5Ac2/R9QiNW0c4cPFdFRwa0EiQAM+ZS1Y3I1Y3ICV4bwi8N4VZ7XeaBmc56slFjahiWtGe04bkBbvDeEXhvCqMbUxlrRuxO8Y9ESpXX8luzzjvE7N0oCzeG8IvDeFVLanJZ7RG3o3IDanC4LRGXCOPggLV4bwi8N4VUMfyWdpyx7Dl702kwxwgAeYkoBt4bwoVHCM1nVjcjVjcgIvYxwF4NPSAfj0KBs1LkM9kbyfiSespurG5GrG5AKNmpTNxk77onDL4rH1Wlncp7+K3PenasbkasbkAl1kpHEspn+1u3A7Nyy6zUjmxh2YtGRzCaaY3KvUD82taRG0wSZ2dSAZ9Xp48FmOfBGPTvzPap02tbldHRASAx/JZ2mD4LDm1Im6w8145Yf59yAt3hvCLw3hJo0z5wE8xP6pmrG5Aau1ccoRauOUID5/sBtAs9bVUnGiY1tQUi6A0SGl8EMGM4Qd+C9v8Ao0/ltn9V353rxPRtntRs1d1IkUBGtF4CYxwBxPPGzNe2fRp/LbP6rvzvWzUdP2ebourv5f3sdQhJfaQCRDsNwJ3bun4rH1oTEHs6PFYz0h6EqjXDpgERvaQVU0rpqhZmh1V4bOTc3HoaMevJSk26RDaStmwQuPP0hWfE6qtAIGTJxDjle/pW90Np6hah+E+XDEsIhw6jmOcSFeWKcfNF4wlKHMS29TZoUXvAzIHSYWNa3lDt6lzKk0urUIiGkyYw2c6yKzeUO0bM1g128pvaEAUtvSk2ms9jXvhpa1rnQCbxgEgLLq10jCbz7vuJnLmRaqLntewkXHNLcBwsRGeXuUoMTojSYr02PgAumWh4fdI2EjbEGNkq+uL0BVs9nrahtUucHvvucLreC0tgY7Dhzrd+T2naVoFxjiXsaJwwMYEg7RK65MdW0tjnCd7PzNsagvBu0gnsIH6qa1lrtF200pOBaR2nD3gKxTrfjvbuYz4u8QufDsWUty2haOh5RWcFjDUBc97wLvCAmo4NkjASqlfy5srK5oOvCDDqhADAZjaZInmVlim/JEcyNeZt9OaS+rUTVuF8EAgGMzEkwYCxoHSn1mlrbhZJIAJmY2gwJHgpjSVN7WOY4Pa910HtnDq96jpLTFCzljarw0vMNEE5ZkwMBzlK2qt/+7C97vY2CEsV2wTOAJB5iMws1qoaC5xgDM+5UotZNRJMiIjbvy2LDqoDg0nEyQN8RPxQW4zJwOW/DaoJIvqG9dumIm9s6FKlkpOyUaWSAK1VrGlznBrRiXEgADnJySRpGibgFWnL+IL7eH6uPC6krTYOoeA28SIABYCCSAHN1oLLwzF4ESAuFp6CrCjZqd1gLLRrnONWjcINqNca4ht81A0FwFEtYXkiLohAehULUx5cGPa4tMODXA3TuMZHmKcuV8krI4V69apQZSc8NY0U30zTbTpueWNhmJeS9znOIzMDAY9UgNRa+OUItfHKEB83sruDS0OcGui80OIBjKRkV7/9Gn8ts/qu/O9fPi+g/o0/ltn9V353rbqelHlaDrfwdQhCFiPVK2krY2jSfVdkxpdG+Mh0k4da4PyY0KbfUfa7US5t6A2SA4jZzMbkAMzPPPZeUtO9ZqggEcEkEAiA4E4FR8l7oszA0AAXgQBABvEnAdM9aiGsjDI8KT4mrvtXl/srPA5pTfStq9yy3RNANuChSucnVtjshcV5XeTn1WLXZSadwi80HizgHN5pMFuUHdK9BWt8o2g2Ws0mLzHNmJguED3kLtjnJSO+HNynd+Hv6UGg7c21WenVujhDFsYBwkOGPODHMroszOQ32RtMn34rR+QtjNKy3S4Ol7iCJywG3nBXQqs0lJpFJuDk3B2u3wL+rs5Lewbc0alvJbuyGW5MQqFSlaDiz/ufo6VYc10k3hd3Xce2VWtUyyCB+KMxsgz7laLTM3sOTA+KA4Ly28nGV6tOo12ra6+HhoxJBgu3S6YPRtUtG6IdQoUqdkeGVnudfqOwJA4rcjAyw2kLYW2reZT/ALz2vK1tSs8OENlgBJcHYgjEADMyvQi5OKjfkYG0pORDy5s1pNpa7XhlFrGkwSIznAZmcc9sKvoq11dIPqUK41YqMBbUbxTduQCCeFIByOezBbO22xlqF6JBa0PaRBDoBLSNhEqvSslMPpOLcKRloBiMo94B6lMXUKa3RDfjvsU9Husdks9TA1LRRILS4GZN27EQIBM45Sr1bR9G12c1K9FtKtfaS6mA1zmvgzwpIkE9YlTgXXNuthxBdwRJjKTEkDcpFxO3d7svije99wpbUUbXpBtjtLKFKjUdTa9sQ4nEEA5gyTEbNgVu06Xs9ttjKTmOvUjdF4bSccj0cE7kuy03Me9zqjn3nXgD5vMPnYrtpqjXOqACb0gxjAOAnqUOvuvMKTr7OUNqr0qtSn9ZcQ1xqPvEhrsRGJJkukCDgtzp/wAsKxotZqIqO4bsyBTGIN3PHPHYJxlOtFnbUaWvEg59WWSwLKwPc9rYLmtaccIa0DAbMlduDabXkQnJJpM1Vq07bKhpVrMWuDGhpYYJDhM3hIO4TOQ6V6JoqpUdSY6u0CuWukN3SMonZdy2rjbNYqdMuLGwXYndtyGzMrvWzdgCeDv2wMPncs+pcaSSO+nu3bMWMHVMnO4JzzjHPFTY8AKFjpFtJrTmGgdgywUX0nnFrgMMi0HGfBZDUOc9pEHEbiEg2ajBGrZBz4AxgQJw3FZ1D+WOm4PFAo1JHDaRt4EHqx3ICVFlNvFaBskNx7dqbrR8hIFB/pBEejEzjjn0disNZhjjzwgNVauOUItfHKEB81r6A+jpzho2zXW3jdO2PPfivn9fQf0afy2z+q7871u1PSjytB1v4OgdVf6Of7wjWv8AR7OUOzsVhCwnqiBL2ua9gAIiL0gg57FzTHVbC8gi9Rcc/hjsd8fh1iw5oIgiRuKyanS82pRfDJeT/j9UdceXgtNWn2NQfKOjAJvyRMXcfjHvWrtFpqW14Yxt2mDJJ+Ljv3N+R0DtFUSZNJk+rh2ZKyymAIAAAyAEDsW7HJQir3lW77X7GHJinkk03UfRede7I2agKbWsbkBA+d6YCoVaDXCCARMxzpYsVMYho/5VDQlWyHB43jtUkg2Nh80J6EiNUHZ7HSMdv65rFqBAc68YDTwYEZdqZS29KKtIOEGYIII3g4IgziS/ADd+qiunqaFp7GSP+4QpVNC0gMGEndfIWrnRMnIkcshdRT0LSjFhB9clQOiKQOLIbyjUPUnPiORI5pC6Spoyh5oB/wDlj9Vlmi6ESQAYk/iEjt6k50RyJHNIIXRUdG0ScQ0YbKpKk7RNI8RgcN+tOfvTnRHIkc2hdUdCUY4pn1yoU9C08ZZG7hkpz4jkSOYK7ehMDdHXkI/Va52hqc4MkYY6wzz4LZtpxGJwERs2eHvXLLNSqjrixuN2SdkkVbSylTNSo4MY0Euc4wABtJT3ZKlpGya6g+lwOGCPxKesZjymBzS4dDh0rkdirT8p7K7VXahcawJphtKo4kAta4kBpuAF7QS6ALyj96rINZeqlmrbffrKdSmA29dmajQDLjAiZOUrmz5KVaVCzsqWhmspmBX/ABr9Nt9tQ0qRvyWRTDeGYywiGLc/V2TaqtSq0utLWim64brKLWxSaMMYe9zzz1DuCA21p0xRp0mVnPOrqXbl1jnOffEtDWNBc4kYwBMA7kmh5R2Z76dNtUF1UB1Mhrrjg5t9oD4u3iwF12ZgEwue0po01bNRs7qtPVUm2cwWVWGoabHXgajSHMGNN4uQ4XCDIdCuaN8nrSypZjVq0qtKz02MYNWWEODLlSqGtN2+QS0bGtJAxcSQNna+OUItfHKEB81r6C+jd0aNs2B4rvzvXz6voD6O6V7RtmEkcEnAx571u1PSjytB1v4On1vMUa3mKSyyRm9538L5hS+qZ8N+P9WXOFhPVGa3mKNbzFJFkwjWPnfe6ezP3BMo0Lp4zjzEoCWt5ijW8xTEurs6QgDW8xRreYpP1P8Arft87advzvQbJlw34Z8LNAO1vMUa3mKU6ybqjxl527qT2NgRJPOc0Atj4nA4lS1vMUxCAXreYo1vMUxCAXreYrD3giC0kbiApVdnSkGx4zfftwvZ/M/BAY1FP0TfYasijTz1YnEcUZGZHvPaVk2T/qVN3G6ccs8VkWb+t+W/nBnLm7CgImlT9GPZCnSutwayBngAMepRNk/6lT2ujm+ZU6VnukG+89LpQEtbzFGt5imIQC9bzFGt5imIQCjV5ihj4GRTUIBet5isCoBsPuTUIBet5ijW8xTEIDUWrjlCLXxyhAfNa+g/o0/ltn9V353r58X0H9Gn8ts/qu/O9btT0o8rQdb+DqEoVgeLwowMHAEZg86q6etho2atVHGYxxHTGHvUNDWNtmszW7m33unFzyJe4k7SdpKx8Phs9Pi8XCXrzt3YVNrpWt0XphtY3Q0tMOMEOBlrg12bRlIzg45Zq+cHDn/RVLDEgNcALzpN7dGCel1dnSEBGy1r4JiIc5vTBiVw/lLp600rTUYyqWsaWwLrTEsaTmJzK7Cw12hrp4Ivvzw87EzGOa4XyqtLBa6oNGm4y3hF1UE8BvJqAdgWrSJObtXsZtU2oKnW5W+89r9MfYZ+1H3ntfpj7DP2qn9bZ/7el7Vb/wC1dH5KaLs9qbUL6LRdIAuvqjMHOXlbZ8uC4nH9Ixw5k3Sl+2aj7z2v0x9hn7Ufee1+mPsM/au0+6Nk9Ef9R/7kfdGyeiP+o/8AcuP5GD/H9I7cjN/l+2cX957X6Y+wz9q6HyL0vXrVXtq1C4BkgXWjGRuAWz+6Nk9Ef9R/7lc0boShZ3F1JhaSIPDccM/OJXPJmwyi1GO/wi+PDljJOUtvllq64DhGeFhhEDcmNpwZx7cOxYq7OlZa0znhuhYjYZj47+lLqcdoxjhbehFWsGlsnjOujDbDj+ixU47P7v0UpEWNI+ZSnH8RokxdeYncWR8Uuz21tRz2t8zCdhmcR1gjqVGnaZtpbuplo3S0sJ6+GfZVlB7+yKPItvd0bKtgWYnFxBx/pcf0TQPmUi1OgsJOAcSepj1jRtoNSm1+AJmRzgkH4KK2stauidfBzMTi4g4/0OPxCxbDFN5BMhrox5kWjjU/WP5HrFt/h1PVd+VPQn1JUDLqmJwcAMf6GH4lDv4jRJi67buLPFYs/GqeuPyMWXfxG+q/4sTuB0fMrBHzKzisFVJKdheTEkn8Okc9pvSfcry0fk/bdYXbmsogHe3hQekkE9BC3ivkjwyplISUo2jUWvjlCLXxyhULnzWvoP6NP5bZ/Vd+d6+fF9BfRs4DRtm9V353rdqelHlaDrfwdFb7I2tTfSfxXtLTGBg7udQq2unSAa512AMTOWWfUn60fIKNaPkFYr2o9SldlMaRs7TF9jcAMowOI2ZYq3TcHAOBkbCg1Gn/AIWdaPkFQSTS6uzpCzrR8gqNR4MdO5ATp0w0QBAxPbiVz2kvJSnXqvqufUaXEYANjABuGHMug1o+QUa0fIKtCcoO4srKEZKmcn9x6UxrKuWcNjoyW30Podtka64XvvEEyBOHRC2utHyCjWj5BV5ZpyVNlY4oRdpGST/j5KxTcSMo6R/lV32emSSb2OfCeB2AxtVjWj5BXI6GG1CSRBw2xgejFFR5BGBM7hl04rOtHyCjWj5BQGKuzpWWl04xHTioveDHSpNfJiD07EBp/KOqQKcZhxeOluX5lnTNvhtMsONQG6ZxDSAS7sIHSQq3lG+XsG4E+0f/AMrUVHkuZJmAQOYZx7/gtuPGnGLZgyZXGUku5d0TaNXUBMBpBadwBy94HalWK0H6zTefOLpHrlojtd7khwkHBQcTfBGd10dMshduFO/c4KbVe250vlJVLabRHGfd6ix8+4Edaz5OVJpEclxHbDvi5aPStudVewkENBN1u7guxO8/D3nYaBtNxtUnJrQ/svT8As8sbWKu5pjlTzX2NlTtWsLSBxar258lr8esQU+2/wAOp6rvyrSaBqG8GnlB3SbjwT7gtzpKqG0qhcYF12J6FxnHhnSO+OfFDiZOz8ap64/IxUNK6RNKrT4IdLXyL0bWRs6UaH0jratYRAlpbv4rQZ92C1flA+bSOZkdcg/qFfHj8dS9CmTL/wCfFH1OhsNtbVbLcxm0nEf451U8oLSWsDBm8xn5o43xA/uWgs9dzHBzcCOwjaDvCbpC2Gq+9BAgACcoz95PVC6LBU77HJ6i8ddzHkvWu1WjY6mwdYvEe4HtXYLhtDfxKfRR+JXcqmqXis6aR+CjUWvjlCLXxyhZjUfNa9/+jthOjbNddd4JxgHC+/DFeBsouIc4NJa2LzgCQ2cBJyEnKV9AfRp/LbP6rvzvW3U9KPK0HW/g3zKFTa8dTB7lnUPx/EHNwBge3FWVFzwOncFiPVK7aFSMXifUEbf8diDQqekH+mOfn6E7WbwVMGUAqjScOM4Ow5MY781KqMukJiQC6Beib2zcgF6ip6QRjPAGezqQaFTDhjn4Ay5vnapWBxIdM8d4x9YwFyunvKqvQtFSkxtItbdi81xOLWnGHDaV0x45ZHUTnkyRgrZ1Rov5Y9geKwKFT0g/0x4rhvvvaeTR9h370ffe08mj7Dv3rt+HkOX5WM9ApsgYwTviPcpXQvPfvvaeTR9h370ffe08mj7Dv3p+HkH5WM9CuhF0Lz3772nk0fYd+9bbyZ8pq1or6t7aYbdceC1wMiN7jvVZaXJFWyY6mEnSOpqjLpUhUExOO5Kl0cKONhG5PWc0HLadfNY8wA+Lv9y1rzwm9f6K3pB81Xn+oj2eD+iqP4zev9F6eNVFfB5OR3Jv3Jkpbjwx6rvixMKg7jj1XfFisVMVDi3pP5XJrK12QPOF33tdj1NI6wl1M29J/K5TCAsaNtDWVqZcYHCB3cRzv9qVpa2GrfccoddbuEfHef0SKwxZ63+1yLRxH+qfgo4VxcRbjfDw9i/oCrdtB/qJb3Gu+LUnSdS9aHn1h7Nxv+1KslS7ULtjXtJ6AGE+5Qe+88O3hx7S0/qo4fHxew4vBw+5OUSsrCsVMaGP4lPoo/EruVw2hv4lPoo/EruVk1XUjbpOlmotfHKEWvjlCyms8D0XXriz16dOm11J4mq4t5IvCCSAS3jAYkHEL2v6NP5bZ/Vd+d68U0XoevUs9e0UnBtOmCKgvEFwiXDAREHziJmBJwXtf0afy2z+q7871s1FV9nnaK+Lf0/pvdK6Qp2ejUr1TFOm0ucYJgDPAYlOokXQ7eJk4c+3JU/KPRjbVZa9ne642pTcwv5MjjY7s+pWabmhgaXNdADTJGOQxHP+qybUeiRs2kKdQgNJJIceKRg1105jfsTgIdzH4qtQs1CmbzG0mu4QkBoPCN5ww3lsnoVkOaSIcD0HeoAxLq7OkJiXV2dIQCNHiGu2cN8dF4rg/Kp1H63VvNql0tktqNA4jcgWE5c67uyUJadYAZc8gEZAnDPNc5pjyUfaK9Sq2o1ocRgWnC60N/RadNOMZtydbGfURlKKUV3EaJ8k6FekyqH1W3pwlpiCRnd5lb+4tH0tXu/tW70HZtTSbRJDnMGJggYkkZ9Kua0Xru3r+MKJaifE6exMcEKVrc5j7i0fS1e7+1H3Fo+lq939q6d1UAgHM9PgipWDYnblmfgFX8jL6k8jH6HMfcWj6Wr3f2q9ofyYp2aprGveTBEOuxjG4cy3NWqGiT0bT8AsvqQJOXXt6lDz5GqbJWGCdpGKuzpWXU8ZGB3xjCxW2dKRWoMddlh4LhUGzhjzsDjntXNe50d9iTrGDOUnbcbmTM5KtaKEVaYFOWm/Lg1l1mGE7TJ3SrIY3kn560XG8l3afFFJhxQfU283sN8FVfZ/xmC5LbjpfcZdBJbA3zgdm5ObZaYINwyMsThjO/erOt5iikw4ooWqzxUpgU5Bc4lwYyGANIEziZJ+KsPsgGQB/sZ+oT9bzFGt5inExwo11qom/SAoki9wiGsgANIkzvJ+KlbbL+E+GS664BoaySSMIV/W8xRreYqeJ7EcKNdYKN41L1IsEgi8xmILGgjCciCOxSNm/Ga25wQwnWXGXZJHB3zDZyjEK/reYo1vMU4hwoULGP6fYb4LBsjYyHsNn4J2t5ijW8xUWyaRqND03Xm3qLmRTZi5rOM0uBHBMziHArdpet5ijW8xUylbsRVI1lr45Qi1cYoVSTy63eTtmYXNbTIBOI1j4MHCeFjC6LQmkalCgylSddY0EAQDGJObgScShCvKTa3ZzhCMXsi6dPWg4Gp3G/tShpKpnwJOBOqZlu4qEKh0I/X35RTjKNTT/ap09K1WmWloO8U2A/lQhAN+37R6TuN8Fg6etHpO43wQhAZ+37R6TuN8Efb9o9J3G+CEIA+37R6TuN8Efb9o9J3G+CEICtW8obSP/VPst3kblZ+37R6TuN8EIQB9v2j0ncb4I+37R6TuN8EIQGDp60ek7jfBV/tqvP8AFd7vBCEBh+m7RA/FOR2DwUn6ctHpTs2Dm5kIQFj7ftHpO43wR9v2j0ncb4IQgD7ftHpO43wR9v2j0ncb4IQgD7ftHpO43wR9v2j0ncb4IQgD7ftHpO43wR9v2j0ncb4IQgD7ftHpO43wR9v2j0ncb4IQgD7ftHpO43wTKWnbQT/E7rfBYQgL31lzsScTzBCEID//2Q==;" vertex="1" parent="1">
          <mxGeometry x="1810" y="268.5" width="482" height="363" as="geometry"/>
        </mxCell>
        <mxCell id="oFQstUxSCO1s48QNKXJ--45" value="AWS Cloud" style="outlineConnect=0;fontColor=#FF9A03;gradientColor=none;strokeColor=#232F3E;fillColor=#ffffff;dashed=0;verticalLabelPosition=bottom;verticalAlign=top;align=center;html=1;fontSize=23;fontStyle=1;aspect=fixed;shape=mxgraph.aws4.resourceIcon;resIcon=mxgraph.aws4.aws_cloud;labelBackgroundColor=#FFFFFF;" vertex="1" parent="1">
          <mxGeometry x="50" y="740" width="180" height="180" as="geometry"/>
        </mxCell>
        <mxCell id="oFQstUxSCO1s48QNKXJ--52" value="&lt;span style=&quot;color: rgb(34 , 34 , 34) ; font-family: &amp;#34;arial&amp;#34; , sans-serif ; text-align: left ; white-space: normal&quot;&gt;&lt;font style=&quot;font-size: 32px&quot;&gt;search engine&lt;/font&gt;&lt;/span&gt;" style="rounded=1;whiteSpace=wrap;html=1;labelBackgroundColor=#FFFFFF;fontFamily=Verdana;fontSize=23;fontColor=#FF9A03;" vertex="1" parent="1">
          <mxGeometry x="1083" y="499" width="308" height="51" as="geometry"/>
        </mxCell>
        <mxCell id="oFQstUxSCO1s48QNKXJ--55" value="&lt;span style=&quot;color: rgb(34 , 34 , 34) ; font-family: &amp;#34;arial&amp;#34; , sans-serif ; text-align: left ; white-space: normal&quot;&gt;&lt;font style=&quot;font-size: 32px&quot;&gt;Data Visualization&lt;/font&gt;&lt;/span&gt;" style="rounded=1;whiteSpace=wrap;html=1;labelBackgroundColor=#FFFFFF;fontFamily=Verdana;fontSize=23;fontColor=#FF9A03;" vertex="1" parent="1">
          <mxGeometry x="1441.5" y="498.5" width="308" height="51" as="geometry"/>
        </mxCell>
        <mxCell id="oFQstUxSCO1s48QNKXJ--56" value="&lt;span style=&quot;color: rgb(34 , 34 , 34) ; font-family: &amp;#34;arial&amp;#34; , sans-serif ; text-align: left ; white-space: normal&quot;&gt;&lt;font style=&quot;font-size: 27px&quot;&gt;Data Processing Pipeline&lt;/font&gt;&lt;/span&gt;" style="rounded=1;whiteSpace=wrap;html=1;labelBackgroundColor=#FFFFFF;fontFamily=Verdana;fontSize=23;fontColor=#FF9A03;" vertex="1" parent="1">
          <mxGeometry x="580" y="419.5" width="308" height="51" as="geometry"/>
        </mxCell>
        <mxCell id="oFQstUxSCO1s48QNKXJ--60" style="edgeStyle=orthogonalEdgeStyle;rounded=0;comic=0;jumpStyle=arc;orthogonalLoop=1;jettySize=auto;html=1;shadow=0;fontFamily=Verdana;fontSize=23;fontColor=#FF9A03;exitX=1;exitY=0.3;exitDx=0;exitDy=0;exitPerimeter=0;" edge="1" parent="1" source="oFQstUxSCO1s48QNKXJ--66" target="oFQstUxSCO1s48QNKXJ--59">
          <mxGeometry relative="1" as="geometry">
            <mxPoint x="1150" y="-110" as="targetPoint"/>
            <Array as="points">
              <mxPoint x="1070" y="-120"/>
              <mxPoint x="1070" y="-120"/>
            </Array>
          </mxGeometry>
        </mxCell>
        <mxCell id="oFQstUxSCO1s48QNKXJ--57" value="&lt;font style=&quot;font-size: 23px&quot;&gt;Amazon S3&lt;/font&gt;" style="outlineConnect=0;fontColor=#232F3E;gradientColor=none;strokeColor=#ffffff;fillColor=#232F3E;dashed=0;verticalLabelPosition=middle;verticalAlign=bottom;align=center;html=1;whiteSpace=wrap;fontSize=10;fontStyle=1;spacing=3;shape=mxgraph.aws4.productIcon;prIcon=mxgraph.aws4.s3;labelBackgroundColor=#FFFFFF;" vertex="1" parent="1">
          <mxGeometry x="660" y="-180" width="135" height="200" as="geometry"/>
        </mxCell>
        <mxCell id="oFQstUxSCO1s48QNKXJ--59" value="&lt;font style=&quot;font-size: 22px&quot;&gt;Amazon Glacier&lt;/font&gt;" style="outlineConnect=0;fontColor=#232F3E;gradientColor=none;strokeColor=#ffffff;fillColor=#232F3E;dashed=0;verticalLabelPosition=middle;verticalAlign=bottom;align=center;html=1;whiteSpace=wrap;fontSize=10;fontStyle=1;spacing=3;shape=mxgraph.aws4.productIcon;prIcon=mxgraph.aws4.glacier;labelBackgroundColor=#FFFFFF;" vertex="1" parent="1">
          <mxGeometry x="1237" y="-180" width="133" height="190" as="geometry"/>
        </mxCell>
        <mxCell id="oFQstUxSCO1s48QNKXJ--65" value="" style="edgeStyle=orthogonalEdgeStyle;rounded=0;comic=0;jumpStyle=arc;orthogonalLoop=1;jettySize=auto;html=1;shadow=0;fontFamily=Verdana;fontSize=23;fontColor=#FF9A03;entryX=0;entryY=0.328;entryDx=0;entryDy=0;entryPerimeter=0;" edge="1" parent="1" source="oFQstUxSCO1s48QNKXJ--61" target="oFQstUxSCO1s48QNKXJ--57">
          <mxGeometry relative="1" as="geometry">
            <mxPoint x="650" y="-120" as="targetPoint"/>
            <Array as="points"/>
          </mxGeometry>
        </mxCell>
        <mxCell id="oFQstUxSCO1s48QNKXJ--61" value="&lt;div style=&quot;text-align: left&quot;&gt;&lt;font color=&quot;#222222&quot; face=&quot;arial, sans-serif&quot;&gt;&lt;span style=&quot;font-size: 32px&quot;&gt;Log Backups On S3&lt;/span&gt;&lt;/font&gt;&lt;/div&gt;" style="rounded=1;whiteSpace=wrap;html=1;labelBackgroundColor=#FFFFFF;fontFamily=Verdana;fontSize=23;fontColor=#FF9A03;" vertex="1" parent="1">
          <mxGeometry x="270" y="-140" width="308" height="51" as="geometry"/>
        </mxCell>
        <mxCell id="oFQstUxSCO1s48QNKXJ--66" value="&lt;div style=&quot;text-align: left&quot;&gt;&lt;font color=&quot;#222222&quot; face=&quot;arial, sans-serif&quot;&gt;&lt;span style=&quot;font-size: 32px&quot;&gt;Archive on Glacier&lt;/span&gt;&lt;/font&gt;&lt;/div&gt;" style="rounded=1;whiteSpace=wrap;html=1;labelBackgroundColor=#FFFFFF;fontFamily=Verdana;fontSize=23;fontColor=#FF9A03;" vertex="1" parent="1">
          <mxGeometry x="862" y="-140" width="308" height="51" as="geometry"/>
        </mxCell>
        <mxCell id="oFQstUxSCO1s48QNKXJ--68" style="edgeStyle=orthogonalEdgeStyle;rounded=0;comic=0;jumpStyle=arc;orthogonalLoop=1;jettySize=auto;html=1;shadow=0;fontFamily=Verdana;fontSize=23;fontColor=#FF9A03;exitX=1;exitY=0.3;exitDx=0;exitDy=0;exitPerimeter=0;" edge="1" parent="1" source="oFQstUxSCO1s48QNKXJ--57" target="oFQstUxSCO1s48QNKXJ--66">
          <mxGeometry relative="1" as="geometry">
            <mxPoint x="1237" y="-120" as="targetPoint"/>
            <mxPoint x="793.666666666667" y="-120" as="sourcePoint"/>
            <Array as="points">
              <mxPoint x="840" y="-120"/>
              <mxPoint x="840" y="-120"/>
            </Array>
          </mxGeometry>
        </mxCell>
      </root>
    </mxGraphModel>
  </diagram>
</mxfile>
